<svg width="32" height="36" viewBox="0 0 32 36" fill="none" xmlns="http://www.w3.org/2000/svg">
<path d="M21.6686 13.2063H19.7095V12.672C19.7095 10.3384 17.8343 8.45459 15.5112 8.45459C13.1882 8.45459 11.313 10.3384 11.313 12.672V13.2063H9.35393C8.57027 13.2063 7.95453 13.8248 7.95453 14.6121V23.8904C7.95453 25.9147 9.57783 27.5455 11.593 27.5455H19.4297C21.4448 27.5455 23.0682 25.9148 23.0682 23.8904V14.6121C23.068 13.8531 22.4522 13.2063 21.6686 13.2063ZM12.9923 12.7003C12.9923 11.2945 14.1117 10.1699 15.5111 10.1699C16.9105 10.1699 18.0299 11.2945 18.0299 12.7003V13.2345H12.9921L12.9923 12.7003ZM21.3887 23.8905C21.3887 24.987 20.5211 25.8585 19.4296 25.8585H11.5929C10.5014 25.8585 9.63381 24.987 9.63381 23.8905V14.8933H11.3132V17.733C11.3132 18.2109 11.6771 18.5765 12.1529 18.5765C12.6287 18.5765 12.9926 18.211 12.9926 17.733L12.9924 14.8933H18.0302V17.733C18.0302 18.2109 18.3941 18.5765 18.8699 18.5765C19.3457 18.5765 19.7096 18.211 19.7096 17.733L19.7094 14.8933H21.3888L21.3887 23.8905Z" fill="#222222"/>
</svg>
