<svg width="43" height="43" viewBox="0 0 43 43" fill="none" xmlns="http://www.w3.org/2000/svg">
<circle cx="21.7671" cy="21.5564" r="19.5" fill="#66463E" stroke="white" stroke-width="3"/>
<path d="M16.9371 19.2064C16.9371 18.9544 16.9838 18.7351 17.0771 18.5484C17.1704 18.3617 17.2918 18.2031 17.4411 18.0724C17.5998 17.9417 17.7864 17.8437 18.0011 17.7784C18.2158 17.7131 18.4398 17.6804 18.6731 17.6804C19.1584 17.6804 19.5551 17.8111 19.8631 18.0724C20.1804 18.3244 20.3391 18.7024 20.3391 19.2064C20.3391 19.7104 20.1851 20.1024 19.8771 20.3824C19.5691 20.6624 19.1771 20.8024 18.7011 20.8024C18.4584 20.8024 18.2298 20.7697 18.0151 20.7044C17.8004 20.6391 17.6138 20.5411 17.4551 20.4104C17.2964 20.2797 17.1704 20.1164 17.0771 19.9204C16.9838 19.7151 16.9371 19.4771 16.9371 19.2064ZM15.6771 19.1644C15.6771 19.6124 15.8031 20.0277 16.0551 20.4104C16.3071 20.7837 16.6431 21.0544 17.0631 21.2224C16.5031 21.4184 16.0738 21.7357 15.7751 22.1744C15.4764 22.6037 15.3271 23.1124 15.3271 23.7004C15.3271 24.2044 15.4111 24.6477 15.5791 25.0304C15.7564 25.4037 15.9944 25.7164 16.2931 25.9684C16.6011 26.2204 16.9604 26.4071 17.3711 26.5284C17.7818 26.6497 18.2251 26.7104 18.7011 26.7104C19.1584 26.7104 19.5878 26.6451 19.9891 26.5144C20.3904 26.3837 20.7358 26.1924 21.0251 25.9404C21.3238 25.6791 21.5571 25.3617 21.7251 24.9884C21.9024 24.6151 21.9911 24.1857 21.9911 23.7004C21.9911 23.0844 21.8464 22.5664 21.5571 22.1464C21.2678 21.7171 20.8244 21.4091 20.2271 21.2224C20.6471 21.0357 20.9784 20.7604 21.2211 20.3964C21.4731 20.0231 21.5991 19.6124 21.5991 19.1644C21.5991 18.8471 21.5431 18.5391 21.4311 18.2404C21.3191 17.9324 21.1418 17.6617 20.8991 17.4284C20.6658 17.1857 20.3578 16.9944 19.9751 16.8544C19.5924 16.7051 19.1304 16.6304 18.5891 16.6304C18.2064 16.6304 17.8378 16.6864 17.4831 16.7984C17.1378 16.9104 16.8298 17.0737 16.5591 17.2884C16.2884 17.5031 16.0738 17.7691 15.9151 18.0864C15.7564 18.3944 15.6771 18.7537 15.6771 19.1644ZM16.5871 23.7564C16.5871 23.4671 16.6384 23.2057 16.7411 22.9724C16.8531 22.7391 17.0024 22.5384 17.1891 22.3704C17.3851 22.2024 17.6091 22.0764 17.8611 21.9924C18.1224 21.8991 18.3978 21.8524 18.6871 21.8524C18.9671 21.8524 19.2284 21.9037 19.4711 22.0064C19.7231 22.0997 19.9424 22.2304 20.1291 22.3984C20.3158 22.5664 20.4604 22.7671 20.5631 23.0004C20.6751 23.2244 20.7311 23.4717 20.7311 23.7424C20.7311 24.0224 20.6798 24.2791 20.5771 24.5124C20.4838 24.7457 20.3438 24.9511 20.1571 25.1284C19.9798 25.2964 19.7651 25.4317 19.5131 25.5344C19.2704 25.6277 18.9998 25.6744 18.7011 25.6744C18.0851 25.6744 17.5764 25.5064 17.1751 25.1704C16.7831 24.8251 16.5871 24.3537 16.5871 23.7564ZM27.2224 22.5384V19.4724H26.2704V22.5384H23.2184V23.4904H26.2704V26.5564H27.2224V23.4904H30.2744V22.5384H27.2224Z" fill="white"/>
</svg>
