<svg width="56" height="54" viewBox="0 0 56 54" fill="none" xmlns="http://www.w3.org/2000/svg">
<path fill-rule="evenodd" clip-rule="evenodd" d="M55.1602 10.4617C55.1602 10.4617 51.6992 10.7338 51.9558 14.4112C52.2124 18.0886 52.087 18.8277 52.087 18.8277C52.087 18.8277 40.0845 15.6017 39.6371 20.4911C39.1889 25.3838 49.3826 21.1278 51.4606 21.3336C53.5382 21.5396 52.4522 30.831 44.4539 29.5545C36.4578 28.2767 35.0792 24.8098 33.4529 27.6622C31.8288 30.5134 36.4896 32.3614 39.1846 32.4391C41.8796 32.5169 47.3787 30.4682 48.6059 31.5572C49.8332 32.6462 45.0197 39.5532 40.0908 37.5614C35.162 35.5697 27.754 29.0438 25.2374 33.1477C22.7228 37.2514 26.4294 40.363 30.5931 40.6288C34.7567 40.8943 40.4431 39.7306 41.4555 41.1264C42.4684 42.5221 23.575 50.7449 18.8891 43.2684C16.5274 39.4982 16.0015 37.1036 15.38 35.6058C8.68054 35.6813 10.2341 53.9751 5.71441 53.0582C-2.91833 51.311 10.1519 38.204 12.1898 33.4019C11.9589 33.3723 11.7137 33.3483 11.4445 33.329C6.14791 32.9345 -5.13682 25.122 3.68559 14.862C12.5079 4.60154 15.3965 4.17587 13.678 10.7003C11.9603 17.2248 14.6182 22.785 17.7269 21.8643C20.8356 20.9436 19.667 15.4887 18.5455 11.0678C17.4221 6.64764 18.7472 1.9175 23.5434 0.805266C28.3395 -0.306972 38.1103 -1.02302 32.065 3.99175C26.0197 9.00652 21.3378 14.3872 23.1076 17.3723C24.8786 20.3595 28.4709 20.3566 30.3506 14.7536C32.2303 9.15065 34.2803 0.406768 40.6875 1.12824C47.0946 1.84971 38.9788 7.50874 36.8537 10.533C34.7293 13.5591 32.9781 18.2679 36.948 17.1612C40.9189 16.0563 42.9428 5.35427 45.987 5.4397C49.0305 5.52319 47.82 9.49554 55.157 10.4656L55.1602 10.4617ZM13.4549 25.115C14.4188 26.7846 14.257 28.6837 13.0934 29.3562C11.9292 30.029 10.2024 29.2214 9.23851 27.5518C8.2746 25.8823 8.43642 23.9831 9.60222 23.3094C10.7663 22.6366 12.491 23.4455 13.4549 25.115ZM26.3866 24.2657C26.9238 25.1961 26.8344 26.2555 26.1849 26.6308C25.5354 27.0062 24.5748 26.5565 24.0364 25.6239C23.4992 24.6935 23.5886 23.6341 24.2381 23.2588C24.8876 22.8834 25.8482 23.3332 26.3866 24.2657Z" fill="white" fill-opacity="0.1"/>
</svg>
