<svg width="190" height="186" viewBox="0 0 190 186" fill="none" xmlns="http://www.w3.org/2000/svg">
<g id="Group">
<path id="Vector" fill-rule="evenodd" clip-rule="evenodd" d="M76.5191 11.881C78.0617 12.3518 79.2656 13.0166 80.2039 13.8113C80.7126 14.2429 81.1188 14.7211 81.4606 15.2183C82.3872 16.5703 82.7228 18.0966 82.6248 19.5641C82.582 20.2219 82.4343 20.87 82.205 21.4873C80.8412 25.1548 76.5875 27.8615 71.5975 26.1496C66.4083 24.3204 64.1285 18.9927 65.1001 15.081C66.0098 11.426 69.7019 8.80097 76.5191 11.8814L76.5191 11.881ZM76.2145 12.6034C70.27 10.261 67.107 12.234 66.4777 15.3891C65.8259 18.6475 67.8703 22.9599 72.2118 24.2817C75.9684 25.4582 79.0446 23.4258 80.0806 20.6965C80.4075 19.8308 80.5533 18.9037 80.4228 17.968C80.3399 17.367 80.1689 16.7628 79.871 16.1745C79.3908 15.2304 78.6604 14.3211 77.5658 13.5009C77.1547 13.1938 76.7172 12.8877 76.2147 12.6033L76.2145 12.6034Z" fill="#482F28" fill-opacity="0.1"/>
<path id="Vector_2" fill-rule="evenodd" clip-rule="evenodd" d="M64.8958 101.99C66.4951 102.49 67.7655 103.25 68.7622 104.182C69.2633 104.65 69.6769 105.173 70.0279 105.716C70.7836 106.885 71.2022 108.187 71.3544 109.498C71.4595 110.401 71.4201 111.312 71.257 112.187C70.4005 116.817 66.2923 120.494 61.1042 118.718C56.1826 116.99 53.5699 111.457 53.9569 106.985C54.1445 104.821 55.0123 102.92 56.5957 101.815C58.3815 100.568 61.1205 100.29 64.8958 101.991L64.8958 101.99ZM64.5902 102.71C61.2027 101.371 58.8031 101.585 57.2848 102.753C56.0359 103.712 55.439 105.308 55.3625 107.078C55.1968 110.882 57.4831 115.557 61.7159 116.852C65.5767 118.064 68.3703 115.18 69.0302 111.77C69.2268 110.753 69.2595 109.688 69.0611 108.638C68.9307 107.956 68.7266 107.283 68.4124 106.633C67.8919 105.555 67.1319 104.542 66.0204 103.675C65.5858 103.336 65.1218 103.006 64.5904 102.711L64.5902 102.71Z" fill="#482F28" fill-opacity="0.1"/>
<path id="Vector_3" fill-rule="evenodd" clip-rule="evenodd" d="M87.3686 70.3649C88.9723 70.8664 90.244 71.633 91.2445 72.5725C91.7449 73.0432 92.1568 73.5662 92.5108 74.1155C93.2633 75.2861 93.6821 76.5914 93.8353 77.9053C93.9433 78.8119 93.9066 79.7236 93.7469 80.6005C92.9037 85.2724 88.8 88.9877 83.6074 87.2098C78.6919 85.4857 76.0702 79.9348 76.4454 75.4371C76.6247 73.2639 77.4815 71.3515 79.0484 70.2304C80.8306 68.9565 83.5748 68.6558 87.3685 70.365L87.3686 70.3649ZM87.0622 71.0858C83.6624 69.7406 81.2612 69.9708 79.7471 71.1615C78.5094 72.1346 77.9222 73.7435 77.8497 75.5234C77.6961 79.3541 79.9879 84.0501 84.219 85.3429C88.0835 86.5588 90.8673 83.6337 91.5174 80.1935C91.7101 79.17 91.7407 78.0983 91.5402 77.043C91.4104 76.3582 91.2069 75.6813 90.8924 75.0276C90.3715 73.9429 89.6102 72.924 88.4975 72.0546C88.0609 71.7126 87.596 71.3812 87.062 71.0854L87.0622 71.0858Z" fill="#482F28" fill-opacity="0.1"/>
<path id="Vector_4" fill-rule="evenodd" clip-rule="evenodd" d="M61.7246 21.4106C63.3286 21.9889 64.5649 22.7854 65.4992 23.728C66.2865 24.524 66.8178 25.4295 67.1786 26.3624C67.5063 27.214 67.6555 28.1006 67.6649 28.9774C67.6731 29.8723 67.5195 30.7624 67.2344 31.6021C65.873 35.5904 61.5746 38.5359 56.5508 36.8024C51.5199 35.0259 50.2526 30.0489 51.5718 26.0098C52.9007 21.9505 56.7764 18.8694 61.7245 21.4103L61.7246 21.4106ZM61.3838 22.116C57.0578 20.1604 53.8634 22.8937 52.8952 26.4082C51.9884 29.707 53.0384 33.7322 57.1485 34.9793C60.9642 36.1687 64.0732 33.8778 65.0854 30.8729C65.2931 30.2512 65.4195 29.6038 65.4476 28.9428C65.49 27.9786 65.3476 26.996 64.9272 26.0417C64.5994 25.2967 64.1496 24.5638 63.5075 23.8762C62.9272 23.2551 62.2469 22.6538 61.384 22.1159L61.3838 22.116Z" fill="#482F28" fill-opacity="0.1"/>
<path id="Vector_5" fill-rule="evenodd" clip-rule="evenodd" d="M40.2023 48.7081L40.6695 49.4448C41.9329 51.344 44.2101 53.7446 46.9043 56.5451C48.9522 58.6736 51.2443 61.0171 53.5353 63.5269C55.2488 65.4051 56.9623 67.379 58.5751 69.4154C61.073 72.567 63.3277 75.8742 65.0272 79.2021C67.8969 84.8231 69.1464 90.5357 67.2789 95.8428L67.0628 96.4779L66.3929 96.4802C56.9869 96.4255 48.9617 88.2283 43.9246 78.3557C38.5265 67.7764 36.555 55.3745 39.6928 49.6594L40.2023 48.7081ZM39.927 51.0563C41.2013 52.9393 43.1733 55.249 45.4992 57.8512C47.4586 60.0432 49.6597 62.4511 51.894 64.9947C53.5427 66.8742 55.2086 68.8259 56.7957 70.8257C59.2069 73.8621 61.4438 77.0041 63.1241 80.1908C65.677 85.0286 66.9948 89.9379 65.696 94.5892C57.1541 94.2989 49.9032 86.6811 45.1237 77.7282C40.0162 68.1627 37.7216 56.9934 39.9268 51.0561L39.927 51.0563Z" fill="#482F28" fill-opacity="0.1"/>
<path id="Vector_6" fill-rule="evenodd" clip-rule="evenodd" d="M88.5038 16.2887C86.5363 23.5656 82.761 29.3921 79.5748 34.8724C76.9504 39.3815 74.7267 43.6656 74.1353 48.2899C73.5555 52.8014 74.5088 57.6383 78.1458 63.3143L78.4129 63.7213L78.8984 63.7184C87.5638 63.7471 93.4121 57.4726 96.0393 48.9557C96.8855 46.2102 97.4037 43.2327 97.5478 40.1685C97.6858 37.2453 97.4927 34.2441 96.9591 31.2996C96.5349 28.9585 95.8956 26.6523 95.0416 24.4517C93.7316 21.0809 91.92 17.9557 89.6224 15.2935L88.9545 14.4831L88.6654 15.6765C88.6195 15.8598 88.5709 16.0409 88.5216 16.2227L88.4693 16.2444L88.5038 16.2887ZM89.1158 17.1047C90.8553 19.5155 92.1982 22.2454 93.1937 25.1282C93.9236 27.2419 94.4573 29.4405 94.8125 31.6661C95.2578 34.459 95.411 37.2966 95.2795 40.0612C95.1444 42.9389 94.7137 45.7404 93.9543 48.3285C91.7503 55.8447 86.8701 61.5854 79.3678 61.9195C76.1166 56.8906 75.185 52.5524 75.6285 48.4662C76.1141 44.0101 78.1974 39.8603 80.6317 35.4732C83.6577 30.0214 87.2284 24.221 89.116 17.1044L89.1158 17.1047Z" fill="#482F28" fill-opacity="0.1"/>
<path id="Vector_7" fill-rule="evenodd" clip-rule="evenodd" d="M123.003 70.771L122.587 71.5551C121.373 73.9572 120.464 77.6289 119.541 81.9207C118.821 85.2496 118.113 88.9466 117.282 92.7238C116.648 95.5976 115.94 98.5143 115.117 101.349C113.798 105.897 112.169 110.228 110.1 113.849C106.46 120.216 101.421 124.399 94.1195 123.939L93.5543 123.711C90.9389 121.407 89.5571 118.024 89.2513 114.021C88.7386 107.277 91.2838 98.7369 95.7212 91.031C101.93 80.2521 111.812 71.1259 121.912 70.8126L123.003 70.771ZM120.837 71.6854C119.667 74.1134 118.655 77.5366 117.671 81.4868C116.848 84.7924 116.032 88.4696 115.135 92.2311C114.462 95.0523 113.747 97.9224 112.937 100.717C111.669 105.094 110.183 109.288 108.23 112.795C105.115 118.396 100.861 122.249 94.5441 122.07C91.7246 119.488 90.6845 115.364 90.9157 110.608C91.2022 104.755 93.4286 97.9625 96.9015 91.6982C102.533 81.5364 111.445 72.7496 120.837 71.6854Z" fill="#482F28" fill-opacity="0.1"/>
<path id="Vector_8" fill-rule="evenodd" clip-rule="evenodd" d="M115.626 183.961C112.104 178.228 108.436 172.405 104.83 166.403C103.421 164.059 102.023 161.686 100.646 159.28C98.6076 155.719 96.5986 152.101 94.6656 148.408C85.3073 130.527 77.1601 111.281 72.465 90.4169C67.7346 69.389 66.6417 46.6607 71.8031 21.7953C71.8856 21.3712 72.2987 21.0934 72.7228 21.1759C73.1451 21.2569 73.4228 21.6683 73.3411 22.0932C68.8758 46.7108 70.5436 69.0551 75.6739 89.6587C80.7602 110.087 89.4356 128.708 98.6866 146.295C101.912 152.425 105.175 158.447 108.408 164.364C111.761 170.503 115.016 176.555 118.216 182.468C118.628 183.182 118.384 184.098 117.669 184.51C116.954 184.921 116.04 184.676 115.628 183.962L115.626 183.961Z" fill="#482F28" fill-opacity="0.1"/>
<path id="Vector_9" fill-rule="evenodd" clip-rule="evenodd" d="M86.5859 128.156C85.7227 127.648 84.7508 127.184 83.7227 126.664C83.0976 126.348 82.4515 126.025 81.7974 125.673C80.7095 125.089 79.6 124.444 78.4641 123.809C75.8302 122.336 73.1169 120.802 70.6923 119.247C68.1425 117.611 65.9271 115.938 64.4857 114.237C64.3405 114.079 64.3492 113.83 64.5087 113.685C64.669 113.538 64.9163 113.547 65.0615 113.705C66.1199 114.76 67.5387 115.758 69.1703 116.737C71.4706 118.117 74.1881 119.422 76.9171 120.731C78.7126 121.59 80.5311 122.401 82.1951 123.307C83.162 123.833 84.0706 124.39 84.9119 124.962C85.8602 125.609 86.6962 126.286 87.4563 126.941C87.7926 127.182 87.8712 127.65 87.6313 127.985C87.3896 128.319 86.9223 128.396 86.5859 128.156L86.5859 128.156Z" fill="#482F28" fill-opacity="0.1"/>
<path id="Vector_10" fill-rule="evenodd" clip-rule="evenodd" d="M68.9666 45.7446C68.7528 45.1734 68.4843 44.6265 68.22 44.0418C68.1188 43.8185 68.016 43.5971 67.9187 43.3692C67.7773 43.0361 67.6305 42.7 67.4914 42.3531C66.8464 40.7225 66.1237 39.0085 65.1309 37.3027C64.1225 35.5673 62.9386 33.8263 61.522 32.1259C61.3717 31.9684 61.3789 31.7212 61.5356 31.5718C61.6915 31.4233 61.9403 31.4287 62.0879 31.5838C64.6962 33.9848 66.8081 36.5338 68.358 39.1245C68.8287 39.9105 69.2514 40.6948 69.594 41.4925C69.683 41.6987 69.7635 41.9073 69.8332 42.1191C69.9767 42.5528 70.0952 42.984 70.1824 43.4182C70.3174 44.1043 70.3822 44.7647 70.4277 45.429C70.5152 45.8316 70.2602 46.2305 69.8558 46.3181C69.4522 46.4049 69.0551 46.1497 68.9666 45.7446L68.9666 45.7446Z" fill="#482F28" fill-opacity="0.1"/>
<path id="Vector_11" fill-rule="evenodd" clip-rule="evenodd" d="M77.994 108.221C76.526 107.155 75.0981 106.065 73.7319 104.917C72.3403 103.748 70.9997 102.54 69.7363 101.29C68.1763 99.7457 66.7321 98.1361 65.3538 96.5293C63.1693 93.9828 61.1943 91.4027 59.3956 88.8894C50.5227 76.4836 46.1744 65.5905 46.1744 65.5905C46.0893 65.3908 46.1823 65.1623 46.382 65.0772C46.5809 64.9931 46.8111 65.086 46.8943 65.2841C46.8943 65.2841 51.6574 75.8514 60.8784 87.7863C62.7359 90.1895 64.7838 92.6416 66.9869 95.0928C68.3735 96.6349 69.84 98.1603 71.3372 99.6996C72.551 100.948 73.7832 102.205 75.0603 103.444C76.3172 104.663 77.5885 105.88 78.9275 107.054C79.2496 107.312 79.3018 107.781 79.0448 108.105C78.7869 108.426 78.3169 108.479 77.9938 108.221L77.994 108.221Z" fill="#482F28" fill-opacity="0.1"/>
<path id="Vector_12" fill-rule="evenodd" clip-rule="evenodd" d="M71.0992 76.0592C71.0992 76.0592 72.0432 74.7484 73.5022 72.1933C74.139 71.0768 74.8622 69.7228 75.6765 68.1499C76.4333 66.6911 77.2779 65.052 78.1282 63.2041C79.1712 60.9448 80.2582 58.3922 81.2975 55.5288C83.5123 49.4227 85.5585 41.9431 86.7915 33.0397C86.8173 32.8262 87.0121 32.6715 87.2255 32.6956C87.4407 32.7213 87.5945 32.9152 87.5705 33.1303C86.5186 44.4623 84.1151 53.618 81.5139 60.5795C80.5315 63.2101 79.5307 65.5329 78.544 67.5306C78.2521 68.119 77.9608 68.6808 77.668 69.2096C76.7822 70.8098 75.9328 72.153 75.1816 73.2471C73.4339 75.8006 72.2404 77.0241 72.2404 77.0241C71.9735 77.3393 71.5025 77.3787 71.1866 77.1126C70.8723 76.8465 70.8318 76.373 71.0989 76.0596L71.0992 76.0592Z" fill="#482F28" fill-opacity="0.1"/>
<path id="Vector_13" fill-rule="evenodd" clip-rule="evenodd" d="M75.192 97.2617C75.192 97.2617 75.1465 96.5129 75.2702 95.2399C75.3246 94.6735 75.407 94.007 75.5748 93.2695C75.7336 92.5626 75.9841 91.7996 76.2729 90.987C76.6453 89.9473 77.1182 88.8416 77.6841 87.7002C79.0178 85.0157 80.875 82.1668 83.4409 79.7175C83.5894 79.561 83.8363 79.5519 83.9945 79.7003C84.1519 79.8479 84.1592 80.095 84.0108 80.2531C82.3003 82.2952 81.05 84.5307 80.088 86.6929C79.0526 89.0208 78.4665 91.2808 77.9611 93.1041C77.7333 93.9218 77.5108 94.647 77.3276 95.2626C76.926 96.6134 76.6788 97.4111 76.6788 97.4111C76.6381 97.822 76.271 98.1221 75.8609 98.0803C75.4498 98.0378 75.1515 97.6723 75.1923 97.2614L75.192 97.2617Z" fill="#482F28" fill-opacity="0.1"/>
<path id="Vector_14" fill-rule="evenodd" clip-rule="evenodd" d="M92.3542 140.834C92.3542 140.834 91.5512 138.771 91.3164 134.569C91.2205 132.86 91.2289 130.792 91.4524 128.367C91.524 127.584 91.6281 126.768 91.7603 125.913C92.1982 123.115 92.9267 119.928 94.0093 116.349C96.6267 107.706 101.396 96.7837 109.771 83.6056C109.928 83.3461 110.265 83.2624 110.526 83.4197C110.784 83.5755 110.867 83.9119 110.712 84.1713C104.702 94.7382 100.864 103.815 98.4148 111.412C97.1857 115.233 96.3266 118.673 95.701 121.736C95.1687 124.334 94.844 126.66 94.5938 128.711C94.3153 130.99 94.1473 132.924 94.0944 134.536C93.9701 138.311 94.3563 140.227 94.3563 140.227C94.5237 140.78 94.211 141.365 93.6586 141.531C93.1053 141.697 92.5214 141.385 92.3549 140.833L92.3542 140.834Z" fill="#482F28" fill-opacity="0.1"/>
</g>
</svg>
