<svg width="753" height="221" viewBox="0 0 753 221" fill="none" xmlns="http://www.w3.org/2000/svg">
<mask id="mask0_1220_470" style="mask-type:alpha" maskUnits="userSpaceOnUse" x="0" y="0" width="753" height="222">
<path fill-rule="evenodd" clip-rule="evenodd" d="M697.953 221H0V214.798C1.2514 214.838 2.50055 214.687 3.67229 214.354C4.84403 214.021 5.91416 213.514 6.81829 212.862C7.72242 212.21 8.44186 211.428 8.93334 210.561C9.42482 209.695 9.67818 208.763 9.67818 207.821C9.67818 206.879 9.42482 205.947 8.93334 205.081C8.44186 204.215 7.72242 203.432 6.81829 202.78C5.91416 202.129 4.84403 201.621 3.67229 201.288C2.50055 200.955 1.2514 200.804 0 200.844V193.402C1.2514 193.441 2.50055 193.29 3.67229 192.958C4.84403 192.625 5.91416 192.117 6.81829 191.466C7.72242 190.814 8.44186 190.031 8.93334 189.165C9.42482 188.299 9.67818 187.367 9.67818 186.425C9.67818 185.483 9.42482 184.551 8.93334 183.684C8.44186 182.818 7.72242 182.036 6.81829 181.384C5.91416 180.732 4.84403 180.224 3.67229 179.892C2.50055 179.559 1.2514 179.408 0 179.448V172.005C1.2514 172.045 2.50055 171.894 3.67229 171.561C4.84403 171.228 5.91416 170.721 6.81829 170.069C7.72242 169.417 8.44186 168.635 8.93334 167.768C9.42482 166.902 9.67818 165.97 9.67818 165.028C9.67818 164.086 9.42482 163.154 8.93334 162.288C8.44186 161.422 7.72242 160.639 6.81829 159.987C5.91416 159.335 4.84403 158.828 3.67229 158.495C2.50055 158.162 1.2514 158.011 0 158.051V150.609C1.2514 150.648 2.50055 150.497 3.67229 150.165C4.84403 149.832 5.91416 149.324 6.81829 148.673C7.72242 148.021 8.44186 147.238 8.93334 146.372C9.42482 145.506 9.67818 144.573 9.67818 143.632C9.67818 142.69 9.42482 141.758 8.93334 140.891C8.44186 140.025 7.72242 139.243 6.81829 138.591C5.91416 137.939 4.84403 137.431 3.67229 137.099C2.50055 136.766 1.2514 136.615 0 136.654V129.212C1.2514 129.252 2.50055 129.101 3.67229 128.768C4.84403 128.435 5.91416 127.928 6.81829 127.276C7.72242 126.624 8.44186 125.842 8.93334 124.975C9.42482 124.109 9.67818 123.177 9.67818 122.235C9.67818 121.293 9.42482 120.361 8.93334 119.495C8.44186 118.629 7.72242 117.846 6.81829 117.194C5.91416 116.542 4.84403 116.035 3.67229 115.702C2.50055 115.369 1.2514 115.218 0 115.258V107.816C1.2514 107.855 2.50055 107.704 3.67229 107.372C4.84403 107.039 5.91416 106.531 6.81829 105.879C7.72242 105.228 8.44186 104.445 8.93334 103.579C9.42482 102.713 9.67818 101.78 9.67818 100.839C9.67818 99.8967 9.42482 98.9646 8.93334 98.0983C8.44186 97.232 7.72242 96.4495 6.81829 95.7977C5.91416 95.1459 4.84403 94.6383 3.67229 94.3056C2.50055 93.9728 1.2514 93.8217 0 93.8614V86.4191C1.2514 86.4588 2.50055 86.3078 3.67229 85.975C4.84403 85.6423 5.91416 85.1347 6.81829 84.4829C7.72242 83.8311 8.44186 83.0486 8.93334 82.1823C9.42482 81.316 9.67818 80.3838 9.67818 79.442C9.67818 78.5002 9.42482 77.5681 8.93334 76.7018C8.44186 75.8355 7.72242 75.0529 6.81829 74.4012C5.91416 73.7494 4.84403 73.2418 3.67229 72.909C2.50055 72.5763 1.2514 72.4252 0 72.4649V65.0226C1.2514 65.0623 2.50055 64.9112 3.67229 64.5785C4.84403 64.2458 5.91416 63.7382 6.81829 63.0864C7.72242 62.4346 8.44186 61.6521 8.93334 60.7858C9.42482 59.9195 9.67818 58.9873 9.67818 58.0455C9.67818 57.1036 9.42482 56.1716 8.93334 55.3053C8.44186 54.439 7.72242 53.6564 6.81829 53.0046C5.91416 52.3528 4.84403 51.8453 3.67229 51.5125C2.50055 51.1798 1.2514 51.0287 0 51.0683V43.6261C1.2514 43.6658 2.50055 43.5147 3.67229 43.182C4.84403 42.8492 5.91416 42.3417 6.81829 41.6899C7.72242 41.0381 8.44186 40.2555 8.93334 39.3892C9.42482 38.5229 9.67818 37.5908 9.67818 36.6489C9.67818 35.7071 9.42482 34.775 8.93334 33.9087C8.44186 33.0424 7.72242 32.2599 6.81829 31.6081C5.91416 30.9563 4.84403 30.4487 3.67229 30.116C2.50055 29.7832 1.2514 29.6321 0 29.6718V22.2295C1.2514 22.2692 2.50055 22.1182 3.67229 21.7854C4.84403 21.4527 5.91416 20.9451 6.81829 20.2933C7.72242 19.6415 8.44186 18.859 8.93334 17.9927C9.42482 17.1264 9.67818 16.1942 9.67818 15.2524C9.67818 14.3106 9.42482 13.3785 8.93334 12.5122C8.44186 11.6459 7.72242 10.8633 6.81829 10.2116C5.91416 9.55976 4.84403 9.05219 3.67229 8.71945C2.50055 8.38671 1.2514 8.23559 0 8.27528V0.522949H697.953V1H753V8.73555C750.555 8.81128 748.245 9.57788 746.552 10.8752C744.858 12.1726 743.913 13.9003 743.913 15.6976C743.913 17.4948 744.858 19.2226 746.552 20.5199C748.245 21.8173 750.555 22.5839 753 22.6596V30.0858C750.488 30.0858 748.08 30.8186 746.304 32.1231C744.528 33.4275 743.53 35.1969 743.53 37.0417C743.53 38.8876 744.527 40.6581 746.302 41.9646C748.078 43.271 750.487 44.0065 753 44.0098V51.436C750.555 51.5117 748.245 52.2783 746.552 53.5756C744.858 54.873 743.913 56.6007 743.913 58.398C743.913 60.1953 744.858 61.923 746.552 63.2204C748.245 64.5177 750.555 65.2843 753 65.36V72.7862C750.555 72.8619 748.245 73.6285 746.552 74.9259C744.858 76.2232 743.913 77.951 743.913 79.7482C743.913 81.5455 744.858 83.2732 746.552 84.5706C748.245 85.8679 750.555 86.6345 753 86.7102V94.1364C750.555 94.2121 748.245 94.9787 746.552 96.2761C744.858 97.5734 743.913 99.3012 743.913 101.098C743.913 102.896 744.858 104.623 746.552 105.921C748.245 107.218 750.555 107.985 753 108.06V115.487C750.555 115.562 748.245 116.329 746.552 117.626C744.858 118.924 743.913 120.651 743.913 122.449C743.913 124.246 744.858 125.974 746.552 127.271C748.245 128.568 750.555 129.335 753 129.411V136.837C750.555 136.913 748.245 137.679 746.552 138.977C744.858 140.274 743.913 142.002 743.913 143.799C743.913 145.596 744.858 147.324 746.552 148.621C748.245 149.919 750.555 150.685 753 150.761V158.187C750.555 158.263 748.245 159.029 746.552 160.327C744.858 161.624 743.913 163.352 743.913 165.149C743.913 166.946 744.858 168.674 746.552 169.971C748.245 171.269 750.555 172.035 753 172.111V179.537C750.555 179.613 748.245 180.38 746.552 181.677C744.858 182.974 743.913 184.702 743.913 186.499C743.913 188.297 744.858 190.024 746.552 191.322C748.245 192.619 750.555 193.386 753 193.461V200.887C750.555 200.963 748.245 201.73 746.552 203.027C744.858 204.325 743.913 206.052 743.913 207.85C743.913 209.647 744.858 211.375 746.552 212.672C748.245 213.969 750.555 214.736 753 214.812V221L697.953 221Z" fill="white"/>
</mask>
<g mask="url(#mask0_1220_470)">
<rect y="143" width="753" height="78" fill="#F8DCDB"/>
</g>
</svg>
