<svg width="109" height="84" viewBox="0 0 109 84" fill="none" xmlns="http://www.w3.org/2000/svg">
<path fill-rule="evenodd" clip-rule="evenodd" d="M94.3001 5.0365C93.3004 4.72733 92.412 4.64567 91.6187 4.73047C91.1884 4.77688 90.7961 4.88563 90.4315 5.02807C89.4415 5.41631 88.7053 6.11342 88.2232 6.93689C88.0065 7.30559 87.8497 7.70734 87.7479 8.12219C87.1437 10.5878 88.4411 13.5903 91.7434 14.489C95.1955 15.3972 98.3605 13.3677 99.2641 10.9138C100.107 8.62042 99.0819 5.86636 94.2999 5.03673L94.3001 5.0365ZM94.2004 5.53528C98.2449 6.44316 99.224 8.65448 98.4123 10.5774C97.575 12.5641 94.9064 14.1343 92.0942 13.2625C89.649 12.5256 88.7381 10.3141 89.1764 8.47152C89.3163 7.88772 89.5758 7.33693 89.9868 6.88218C90.2503 6.58971 90.5622 6.32767 90.9364 6.12037C91.5382 5.78848 92.2616 5.56644 93.148 5.52486C93.4806 5.50974 93.8269 5.50477 94.2003 5.53514L94.2004 5.53528Z" fill="#482F28" fill-opacity="0.1"/>
<path fill-rule="evenodd" clip-rule="evenodd" d="M67.7117 57.6418C66.6713 57.3273 65.7121 57.2729 64.8378 57.4098C64.3983 57.4785 63.9857 57.6086 63.5993 57.7725C62.7678 58.1246 62.0687 58.6709 61.5093 59.3195C61.124 59.7657 60.8133 60.2691 60.5819 60.7985C59.3547 63.596 60.2206 67.0661 63.6525 68.0027C66.9241 68.8679 70.3427 66.8492 71.764 64.3079C72.4519 63.0776 72.6787 61.7409 72.2314 60.5709C71.727 59.2511 70.358 58.1041 67.7116 57.642L67.7117 57.6418ZM67.6135 58.1396C69.9198 58.6546 71.1301 59.6436 71.5195 60.8237C71.8407 61.7932 71.5796 62.8674 70.9758 63.8454C69.6787 65.948 66.7481 67.6247 64.0042 66.7779C61.4899 66.0225 61.0412 63.4564 61.9291 61.3858C62.1941 60.7683 62.5646 60.1846 63.0538 59.6931C63.3723 59.3744 63.7269 59.0876 64.1326 58.853C64.8047 58.464 65.5817 58.197 66.4942 58.1366C66.8509 58.1131 67.2204 58.1046 67.6133 58.1397L67.6135 58.1396Z" fill="#482F28" fill-opacity="0.1"/>
<path fill-rule="evenodd" clip-rule="evenodd" d="M67.1698 32.4783C66.1262 32.1633 65.1642 32.1116 64.2848 32.2515C63.8447 32.3219 63.433 32.4526 63.0429 32.6185C62.2124 32.9728 61.512 33.521 60.9511 34.1705C60.5628 34.6178 60.2504 35.1207 60.0166 35.6495C58.7671 38.4647 59.6164 41.954 63.0516 42.891C66.3185 43.756 69.7482 41.7312 71.1855 39.18C71.8811 37.9481 72.1178 36.6094 71.6852 35.4368C71.1926 34.1038 69.829 32.9427 67.1698 32.4783L67.1698 32.4783ZM67.0716 32.9769C69.3868 33.4932 70.5919 34.4914 70.9709 35.6821C71.2807 36.6553 71.0098 37.733 70.4002 38.7148C69.087 40.8272 66.1458 42.5133 63.4034 41.666C60.8859 40.911 60.4573 38.3268 61.3617 36.2432C61.6311 35.6236 62.0052 35.0371 62.4973 34.5436C62.8165 34.2233 63.1723 33.934 63.5794 33.6977C64.2542 33.3052 65.0341 33.0355 65.9481 32.9741C66.3071 32.9496 66.6774 32.941 67.0719 32.9767L67.0716 32.9769Z" fill="#482F28" fill-opacity="0.1"/>
<path fill-rule="evenodd" clip-rule="evenodd" d="M98.7702 15.5416C97.6984 15.2677 96.7445 15.2449 95.8995 15.4106C95.1869 15.5511 94.5718 15.8437 94.0382 16.2131C93.552 16.5509 93.1489 16.9725 92.8244 17.4397C92.494 17.9172 92.2521 18.4509 92.0992 19.0056C91.3769 21.6425 92.6112 24.7894 95.9396 25.6889C99.2876 26.5678 101.781 24.3576 102.545 21.7088C103.31 19.0456 102.352 15.9798 98.7703 15.5415L98.7702 15.5416ZM98.6961 16.0444C101.731 16.5703 102.45 19.2013 101.689 21.4406C100.974 23.5418 98.9437 25.3202 96.283 24.4924C93.8014 23.7411 92.9671 21.3788 93.5185 19.3969C93.6335 18.9876 93.8016 18.5939 94.0273 18.2288C94.3558 17.6958 94.7902 17.2202 95.3636 16.861C95.811 16.5805 96.3195 16.351 96.9147 16.2157C97.4525 16.0936 98.0368 16.0187 98.696 16.0442L98.6961 16.0444Z" fill="#482F28" fill-opacity="0.1"/>
<path fill-rule="evenodd" clip-rule="evenodd" d="M100.379 38.035L99.8595 38.2604C98.4894 38.8196 96.3924 39.2788 93.9258 39.8007C92.051 40.1973 89.9669 40.6204 87.8227 41.1331C86.2186 41.5172 84.5797 41.9527 82.972 42.4584C80.4829 43.2402 78.0677 44.1943 75.943 45.3617C72.3547 47.3338 69.6027 49.9453 68.6718 53.4746L68.5564 53.8943L68.9151 54.1396C73.9842 57.5366 81.2786 56.0596 87.5793 52.5947C94.3313 48.8819 99.9079 42.9424 100.306 38.7313L100.379 38.035ZM99.671 39.3959C98.3009 39.9425 96.4009 40.4641 94.2043 41.0137C92.3539 41.4767 90.2951 41.9675 88.169 42.519C86.5992 42.9274 84.9939 43.3683 83.4134 43.8636C81.0128 44.6153 78.6674 45.4871 76.6044 46.5857C73.4715 48.2528 70.9755 50.4082 69.9781 53.3783C74.6692 56.3341 81.3369 54.886 87.1642 51.821C93.3909 48.5466 98.6918 43.3865 99.6712 39.3959L99.671 39.3959Z" fill="#482F28" fill-opacity="0.1"/>
<path fill-rule="evenodd" clip-rule="evenodd" d="M86.2612 3.03569C84.6661 7.65896 84.5699 12.1622 84.2836 16.2648C84.0496 19.6415 83.6824 22.7515 82.3151 25.4494C80.9826 28.0826 78.7086 30.332 74.6882 32.0542L74.3966 32.1754L74.137 31.997C69.4749 28.8558 68.6215 23.357 70.3143 17.8277C70.8603 16.0456 71.6669 14.2583 72.706 12.5608C73.697 10.9413 74.894 9.40049 76.2532 8.01416C77.3339 6.91187 78.5173 5.90671 79.7775 5.03641C81.7089 3.70402 83.82 2.6862 86.0233 2.09399L86.6771 1.90224L86.3975 2.6482C86.3553 2.76334 86.3154 2.87822 86.2757 2.99385L86.2958 3.0245L86.2612 3.03569ZM85.6353 3.25087C83.8232 3.9114 82.1077 4.88775 80.523 6.07271C79.3611 6.94157 78.2736 7.92746 77.272 8.99282C76.0155 10.33 74.8994 11.7975 73.9627 13.3296C72.9868 14.9237 72.1973 16.5845 71.662 18.2506C70.1067 23.0884 70.6349 27.948 74.5405 30.8603C78.1179 29.3449 80.1986 27.3553 81.4493 25.0001C82.8121 22.431 83.2057 19.4444 83.4974 16.2024C83.8593 12.1733 84.0558 7.7587 85.6354 3.25066L85.6353 3.25087Z" fill="#482F28" fill-opacity="0.1"/>
<path fill-rule="evenodd" clip-rule="evenodd" d="M47.8937 19.7141L47.831 20.2864C47.6078 22.0184 46.7577 24.3204 45.6897 26.9608C44.863 29.01 43.8963 31.2528 42.9662 33.5832C42.2594 35.357 41.5767 37.1806 40.9857 39.0019C40.0369 41.9246 39.3331 44.8425 39.1247 47.5405C38.7588 52.2844 39.9395 56.3654 44.0268 58.7787L44.4135 58.8617C46.6567 58.5779 48.6313 57.2648 50.254 55.2272C52.9863 51.7935 54.7315 46.2818 55.1571 40.5285C55.7515 32.4803 53.7717 23.9811 48.4638 20.1336L47.8937 19.7141ZM48.723 20.9938C48.4665 22.7235 47.7623 24.9297 46.8514 27.4089C46.089 29.4835 45.1873 31.7548 44.2982 34.1009C43.6315 35.8604 42.9697 37.6618 42.3859 39.4572C41.472 42.2689 40.7422 45.0616 40.5128 47.6558C40.1438 51.7975 41.0241 55.4154 44.48 57.6204C46.9344 57.2612 48.9951 55.4265 50.6039 52.7888C52.5826 49.5423 53.8623 45.0848 54.2804 40.4568C54.9596 32.9499 53.3769 24.9863 48.723 20.9938Z" fill="#482F28" fill-opacity="0.1"/>
<path fill-rule="evenodd" clip-rule="evenodd" d="M10.6154 83.1644C14.5947 81.3701 18.6849 79.5799 22.8072 77.6718C24.4181 76.9267 26.0329 76.1621 27.6488 75.3723C30.04 74.2033 32.4367 72.9926 34.8198 71.7143C46.3578 65.5245 57.7432 58.1605 67.8648 48.6706C78.065 39.1056 86.9322 27.3027 93.2207 12.0743C93.3309 11.8165 93.2104 11.517 92.9526 11.4068C92.6964 11.2964 92.3975 11.4161 92.2865 11.6739C85.7147 26.5157 76.6788 37.9031 66.4185 47.0947C56.2456 56.2082 44.8045 63.044 33.4312 69.1152C29.4663 71.2311 25.5207 73.2754 21.6299 75.274C17.5932 77.3481 13.6411 79.4114 9.7688 81.4197C9.28751 81.6531 9.08496 82.2333 9.3184 82.7153C9.55253 83.1964 10.1327 83.3981 10.614 83.1647L10.6154 83.1644Z" fill="#482F28" fill-opacity="0.1"/>
<path fill-rule="evenodd" clip-rule="evenodd" d="M46.5358 63.786C47.1842 63.8278 47.8748 63.9329 48.6163 64.0281C49.0669 64.0863 49.5313 64.1483 50.0107 64.1976C50.8073 64.2807 51.6378 64.3386 52.4789 64.4117C54.4294 64.5804 56.4448 64.7453 58.3126 64.7939C60.2775 64.8445 62.0761 64.7535 63.4696 64.3654C63.6051 64.3336 63.6911 64.1967 63.6584 64.0606C63.6256 63.9237 63.4896 63.8384 63.3542 63.8702C62.4017 64.051 61.2765 64.0698 60.0443 64.0007C58.3067 63.9035 56.3725 63.6141 54.4309 63.3224C53.154 63.1296 51.8826 62.9023 50.6592 62.7826C49.9484 62.7128 49.2578 62.6808 48.5978 62.6813C47.853 62.6833 47.1575 62.7423 46.5111 62.8167C46.2429 62.8234 46.0302 63.0461 46.0367 63.3136C46.0449 63.5809 46.2675 63.7927 46.5357 63.786L46.5358 63.786Z" fill="#482F28" fill-opacity="0.1"/>
<path fill-rule="evenodd" clip-rule="evenodd" d="M86.017 25.9667C86.34 25.738 86.6833 25.5422 87.0382 25.3246C87.1739 25.2416 87.3097 25.1601 87.445 25.0732C87.6423 24.946 87.8435 24.819 88.0445 24.6834C88.9849 24.0429 89.9972 23.3861 91.1516 22.8319C92.3252 22.2676 93.595 21.7643 94.9749 21.3675C95.113 21.3377 95.1992 21.2024 95.1695 21.0651C95.1399 20.9285 95.0044 20.8408 94.8687 20.8703C92.5938 21.209 90.5314 21.8081 88.7556 22.6343C88.2166 22.8848 87.7039 23.1519 87.2294 23.4553C87.1065 23.5336 86.9873 23.6162 86.8727 23.7046C86.6377 23.8851 86.417 24.0734 86.2119 24.2748C85.8895 24.594 85.6142 24.9249 85.3477 25.265C85.1541 25.4493 85.1457 25.7563 85.3308 25.9507C85.5158 26.1443 85.822 26.152 86.0171 25.9667L86.017 25.9667Z" fill="#482F28" fill-opacity="0.1"/>
<path fill-rule="evenodd" clip-rule="evenodd" d="M58.4102 56.2157C59.5866 56.1782 60.7503 56.1131 61.9021 55.9944C63.0749 55.874 64.2343 55.7142 65.3681 55.5032C66.7681 55.2425 68.1298 54.9045 69.4551 54.5441C71.5554 53.9728 73.5556 53.3073 75.4368 52.6134C84.7195 49.186 91.0222 44.9224 91.0222 44.9224C91.1406 44.8462 91.1739 44.6896 91.0977 44.5713C91.0216 44.4536 90.8642 44.4196 90.7473 44.4957C90.7473 44.4957 84.3407 48.4332 75.0427 51.481C73.1701 52.0944 71.1774 52.6647 69.1017 53.178C67.7956 53.5007 66.4526 53.7853 65.0881 54.0662C63.9816 54.2944 62.8623 54.5203 61.7255 54.7198C60.6066 54.9164 59.4806 55.1069 58.3341 55.2493C58.0675 55.27 57.8686 55.5029 57.8886 55.7703C57.91 56.0368 58.1429 56.2365 58.4103 56.2158L58.4102 56.2157Z" fill="#482F28" fill-opacity="0.1"/>
<path fill-rule="evenodd" clip-rule="evenodd" d="M73.8275 41.4627C73.8275 41.4627 73.7983 40.4152 73.9461 38.512C74.011 37.6806 74.1161 36.6903 74.2521 35.5492C74.3773 34.4904 74.5212 33.3028 74.738 32.001C75.0012 30.4082 75.3478 28.6419 75.8331 26.726C76.869 22.6413 78.4958 17.8805 81.0778 12.6516C81.1418 12.5276 81.0936 12.3736 80.9702 12.3088C80.8453 12.2442 80.6921 12.2923 80.6266 12.4165C77.0625 18.8832 75.0168 24.6739 73.8767 29.3587C73.4457 31.1288 73.1366 32.7403 72.9384 34.1722C72.8807 34.5944 72.8324 35.0022 72.7969 35.3926C72.6894 36.5744 72.6559 37.6049 72.6606 38.4659C72.6684 40.4734 72.8633 41.565 72.8633 41.565C72.8917 41.8314 73.1302 42.0242 73.3968 41.9964C73.6624 41.968 73.8567 41.7286 73.8275 41.463L73.8275 41.4627Z" fill="#482F28" fill-opacity="0.1"/>
<path fill-rule="evenodd" clip-rule="evenodd" d="M63.9067 51.3531C63.9067 51.3531 64.204 50.9677 64.6014 50.2393C64.7786 49.9154 64.9772 49.5275 65.1559 49.0705C65.3282 48.6331 65.4717 48.1322 65.6128 47.5908C65.7916 46.8969 65.9407 46.1311 66.0527 45.3122C66.3149 43.3852 66.356 41.1792 65.871 38.9295C65.8483 38.7914 65.719 38.6966 65.58 38.7186C65.4417 38.7405 65.3478 38.8705 65.3698 39.0095C65.544 40.7289 65.4007 42.3845 65.1293 43.8957C64.8369 45.5226 64.3281 46.9494 63.9351 48.1124C63.7594 48.6344 63.6146 49.1047 63.4887 49.502C63.2121 50.3734 63.0541 50.8917 63.0541 50.8917C62.9263 51.1272 63.014 51.422 63.2494 51.549C63.4855 51.6759 63.7788 51.5884 63.9067 51.3529L63.9067 51.3531Z" fill="#482F28" fill-opacity="0.1"/>
<path fill-rule="evenodd" clip-rule="evenodd" d="M38.8195 68.491C38.8195 68.491 40.002 67.6763 41.6592 65.5057C42.3333 64.6232 43.0823 63.51 43.8457 62.1269C44.0925 61.6806 44.3341 61.2043 44.5745 60.6974C45.359 59.0356 46.1291 57.0593 46.8517 54.7439C48.5959 49.1503 50.0151 41.5493 50.3206 31.4238C50.3311 31.2275 50.1806 31.0597 49.9835 31.0493C49.7879 31.0387 49.6208 31.1891 49.6095 31.3848C48.9859 39.247 47.7391 45.5177 46.2859 50.4882C45.5535 52.9873 44.7613 55.147 43.9812 57.0192C43.3201 58.6082 42.6469 59.9752 42.034 61.1673C41.3533 62.4919 40.7388 63.5915 40.1799 64.4761C38.8712 66.5479 37.9658 67.436 37.9658 67.436C37.6744 67.672 37.6292 68.0998 37.8651 68.3904C38.1018 68.6808 38.5288 68.7261 38.8195 68.4902L38.8195 68.491Z" fill="#482F28" fill-opacity="0.1"/>
</svg>
