<svg width="39" height="36" viewBox="0 0 39 36" fill="none" xmlns="http://www.w3.org/2000/svg">
<path d="M30.8778 18.9098C30.8139 18.8036 30.7395 18.7032 30.6556 18.6095L28.2674 15.8736C27.8093 15.3498 27.1167 15.0451 26.3843 15.0455H23.129V14.3069C23.1283 13.7194 22.8734 13.156 22.4201 12.7407C21.9671 12.3253 21.3525 12.0916 20.7117 12.091C20.7117 10.5077 19.7902 9.04458 18.2943 8.25285C16.7984 7.46129 14.9555 7.46129 13.4596 8.25285C11.9637 9.04458 11.0423 10.5077 11.0423 12.091C10.4014 12.0916 9.78683 12.3252 9.3338 12.7407C8.88054 13.1561 8.62568 13.7194 8.62494 14.3069V23.9091C8.62566 24.4965 8.88052 25.0599 9.3338 25.4752C9.78687 25.8907 10.4015 26.1243 11.0423 26.125H11.1567C11.3927 26.9759 12.0312 27.6855 12.8974 28.0601C13.7636 28.4345 14.7672 28.4345 15.6335 28.0601C16.4996 27.6855 17.1382 26.9759 17.3742 26.125H23.2435C23.4847 26.9896 24.1404 27.7071 25.0267 28.0766C25.9128 28.4461 26.9337 28.4273 27.8032 28.0258C28.6725 27.6242 29.2964 26.8831 29.4998 26.0104C29.9878 25.8694 30.4142 25.59 30.7175 25.2122C31.0207 24.8343 31.1851 24.3781 31.1869 23.9091V19.9943C31.1858 19.874 31.1742 19.7538 31.1522 19.6349C31.1702 19.5838 31.1819 19.5309 31.1869 19.4773C31.1844 19.2547 31.0706 19.0455 30.8779 18.9098L30.8778 18.9098ZM26.3843 16.5227C26.6283 16.5231 26.8591 16.6249 27.0114 16.7997L28.7036 18.7386H23.129V16.5227L26.3843 16.5227ZM15.8769 9.13639C16.7318 9.13639 17.5516 9.44768 18.1559 10.0018C18.7604 10.5558 19.1 11.3073 19.1 12.0909C19.1 12.8746 18.7604 13.6261 18.1559 14.18C17.5516 14.7342 16.7318 15.0455 15.8769 15.0455C15.022 15.0455 14.2022 14.7342 13.5979 14.18C12.9933 13.6261 12.6538 12.8746 12.6538 12.0909C12.6547 11.3076 12.9944 10.5565 13.5987 10.0026C14.2029 9.44865 15.0223 9.1372 15.8769 9.13639ZM10.2364 23.909V14.3068C10.2366 14.111 10.3215 13.9232 10.4726 13.7847C10.6237 13.6462 10.8285 13.5684 11.0422 13.5682H11.3242C11.7694 14.7273 12.7205 15.6646 13.9497 16.1552C15.1787 16.6459 16.5751 16.6459 17.8041 16.1552C19.0333 15.6646 19.9844 14.7273 20.4296 13.5682H20.7116C20.9253 13.5684 21.1302 13.6462 21.2812 13.7847C21.4323 13.9232 21.5172 14.111 21.5174 14.3068V24.6477H17.3741C17.1381 23.7968 16.4996 23.0871 15.6334 22.7125C14.7672 22.3381 13.7636 22.3381 12.8973 22.7125C12.0311 23.0871 11.3926 23.7968 11.1566 24.6477H11.0422C10.8285 24.6475 10.6237 24.5697 10.4726 24.4312C10.3215 24.2927 10.2366 24.1049 10.2364 23.9091L10.2364 23.909ZM14.2653 26.8636C13.838 26.8636 13.428 26.7079 13.1257 26.431C12.8236 26.1538 12.6538 25.778 12.6538 25.3863C12.6538 24.9946 12.8236 24.6188 13.1257 24.3417C13.4281 24.0647 13.838 23.909 14.2653 23.909C14.6927 23.909 15.1026 24.0647 15.4049 24.3417C15.7071 24.6188 15.8769 24.9946 15.8769 25.3863C15.8763 25.7779 15.7064 26.1535 15.4042 26.4303C15.1022 26.7073 14.6925 26.8631 14.2653 26.8636ZM26.352 26.8636C25.9247 26.8636 25.5148 26.7079 25.2124 26.431C24.9103 26.1538 24.7405 25.778 24.7405 25.3863C24.7405 24.9946 24.9103 24.6188 25.2124 24.3417C25.5148 24.0647 25.9247 23.909 26.352 23.909C26.7794 23.909 27.1893 24.0647 27.4916 24.3417C27.7938 24.6188 27.9636 24.9946 27.9636 25.3863C27.9631 25.7779 27.7931 26.1535 27.4909 26.4303C27.1889 26.7073 26.7792 26.8631 26.352 26.8636ZM29.3721 24.3864C29.0629 23.5892 28.394 22.9528 27.5366 22.64C26.6791 22.3273 25.7161 22.3683 24.8941 22.7528C24.072 23.1371 23.4705 23.8278 23.2433 24.6477H23.1289V20.2159H29.5751V23.9091C29.5728 24.0855 29.5007 24.255 29.3721 24.3864L29.3721 24.3864Z" fill="#222222"/>
<path d="M16.1131 13.3519C16.3178 13.5331 16.6115 13.602 16.886 13.5331C17.1603 13.464 17.3746 13.2675 17.45 13.0161C17.5252 12.7645 17.45 12.4952 17.2523 12.3076L16.6827 11.7853V10.6139C16.6827 10.3499 16.5291 10.1061 16.2798 9.97417C16.0305 9.84227 15.7233 9.84227 15.4741 9.97417C15.2248 10.1061 15.0712 10.3499 15.0712 10.6139V12.0911C15.0712 12.287 15.1561 12.475 15.3073 12.6133L16.1131 13.3519Z" fill="#222222"/>
</svg>
