<svg width="179" height="40" viewBox="0 0 179 40" fill="none" xmlns="http://www.w3.org/2000/svg">
<g id="download (2) 1" clip-path="url(#clip0_1_2074)">
<g id="XMLID_20_">
<g id="XMLID_69_">
<g id="XMLID_38_">
<g id="XMLID_56_">
<path id="XMLID_58_" d="M173.964 0.346113H174.86V2.87841H175.204V0.346113H176.101V0.032959H173.964V0.346113Z" fill="#EE8DAE"/>
<path id="XMLID_57_" d="M178.623 0.0245406L177.743 2.30069C177.634 1.97918 177.492 1.62423 177.341 1.22849L176.846 0.0161841H176.461V2.86999H176.788V0.733933C176.863 0.923695 176.939 1.12131 177.006 1.31108C177.132 1.63259 177.232 1.8966 177.308 2.09472C177.459 2.4826 177.56 2.72988 177.601 2.84492L177.61 2.87785H177.845L177.853 2.84492C178.079 2.28399 178.256 1.84693 178.373 1.54213C178.499 1.22062 178.599 0.964995 178.674 0.774741L178.665 1.05544C178.665 1.2865 178.657 1.50871 178.657 1.72305V2.86949L179.001 2.87785V0.0078125H178.623V0.0245406H178.623Z" fill="#EE8DAE"/>
</g>
<path id="XMLID_55_" d="M0 39.876V22.3918C0 14.2021 7.50764 7.5712 16.7335 7.6125C25.6911 7.65379 32.931 14.1116 32.931 22.0624V40.0004H29.6799V23.9674C29.6799 16.8582 23.848 11.0931 16.6251 11.0518C9.18438 11.0189 3.14271 16.9408 3.14271 24.2639V39.8765L0.000503013 39.9178V39.876H0Z" fill="#EE8DAE"/>
<path id="XMLID_43_" d="M54.8425 7.73608C45.818 7.73608 38.5111 14.9362 38.5111 23.8108C38.5111 32.6849 45.8264 39.8846 54.8425 39.8846C63.8586 39.8846 71.1739 32.6844 71.1739 23.8108C71.1744 14.9362 63.8671 7.73608 54.8425 7.73608ZM54.8425 36.5937C47.67 36.5937 41.8546 30.8699 41.8546 23.8103C41.8546 16.7503 47.67 11.0265 54.8425 11.0265C62.015 11.0265 67.8304 16.7503 67.8304 23.8103C67.8389 30.8704 62.024 36.5937 54.8425 36.5937Z" fill="#EE8DAE"/>
<path id="XMLID_40_" d="M113.834 7.73608C104.809 7.73608 97.5023 14.9362 97.5023 23.8108C97.5023 32.6928 104.818 39.8846 113.834 39.8846C122.85 39.8846 130.165 32.6844 130.165 23.8108C130.165 14.9279 122.85 7.73608 113.834 7.73608ZM113.834 36.5937C106.661 36.5937 100.845 30.8699 100.845 23.8103C100.845 16.7503 106.661 11.0265 113.834 11.0265C121.006 11.0265 126.822 16.7503 126.822 23.8103C126.822 30.8704 121.006 36.5937 113.834 36.5937Z" fill="#EE8DAE"/>
<path id="XMLID_39_" d="M90.631 31.5875C90.2709 34.3671 88.1342 36.5032 85.5449 36.5032C82.7043 36.5032 80.4003 33.9301 80.4003 30.7464V24.6597V11.1419H92.609V7.72764H80.4587L80.5511 0L77.2581 0.0413027V31.2827C77.2581 35.9427 80.9702 39.7198 85.5454 39.7198C90.0197 39.7198 93.6649 36.1069 93.8242 31.5875H90.631Z" fill="#EE8DAE"/>
<path id="XMLID_59_" d="M132.779 7.95874L142.298 23.8349L132.779 39.8845H136.751L144.259 27.1749L151.675 39.8845H155.504L146.178 23.8103L155.504 7.95874H151.633L144.142 20.5357L136.894 7.95874H132.779Z" fill="#EE8DAE"/>
<path id="XMLID_61_" d="M160.406 8.04907H159.77V39.6779H160.406V8.04907Z" fill="#EE8DAE"/>
</g>
</g>
<g id="XMLID_37_">
<path id="XMLID_64_" d="M174.618 28.6923H170.017L174.618 24.5608V22.7954L169.539 27.5213L164.336 22.7954V24.5273L169.095 28.6923H164.336V30.0201H174.618V28.6923Z" fill="#EE8DAE"/>
<path id="XMLID_70_" d="M174.718 19.0183H164.336V20.3461H174.718V19.0183Z" fill="#EE8DAE"/>
<path id="XMLID_81_" d="M174.718 14.3093H166.556L174.718 9.65765V8.26343H164.436V9.46788H172.598L164.436 14.119V15.5132H174.718V14.3093Z" fill="#EE8DAE"/>
<path id="XMLID_82_" d="M174.927 36.8744C174.927 36.693 174.927 36.4953 174.927 36.2889C174.927 35.2579 174.618 34.4497 174.006 33.8396C173.394 33.2374 172.673 32.9321 171.852 32.9321C171.316 32.9321 170.855 33.0314 170.494 33.2374C170.126 33.4434 169.849 33.7074 169.665 34.0289C169.48 34.3504 169.33 34.7054 169.212 35.1016C169.095 35.4974 168.994 35.8931 168.903 36.2805C168.81 36.6767 168.702 37.0307 168.584 37.3527C168.458 37.6742 168.274 37.9382 168.014 38.1442C167.763 38.3507 167.436 38.4495 167.05 38.4495C166.472 38.4495 166.028 38.2681 165.726 37.9053C165.425 37.5425 165.274 37.0804 165.274 36.5116C165.274 35.9428 165.425 35.489 165.718 35.1508C166.012 34.8125 166.372 34.6306 166.791 34.5894H167.126L167.117 33.2286H166.782C165.944 33.3195 165.24 33.616 164.762 34.1936C164.285 34.7708 164.118 35.4718 164.118 36.4535C164.118 37.4348 164.394 38.2263 164.939 38.8374C165.484 39.4475 166.204 39.7523 167.1 39.7523C167.653 39.7523 168.114 39.6534 168.483 39.4475C168.852 39.241 169.137 38.9775 169.322 38.656C169.514 38.3345 169.665 37.9795 169.791 37.5833C169.916 37.1875 170.017 36.7918 170.1 36.4044C170.184 36.0081 170.294 35.6537 170.41 35.3317C170.536 35.0102 170.721 34.7467 170.972 34.5402C171.223 34.3342 171.575 34.2354 172.044 34.2354C172.505 34.2354 172.916 34.4251 173.259 34.8042C173.603 35.1832 173.779 35.695 173.779 36.338C173.779 36.5278 173.704 37.1629 173.704 37.1629C173.611 37.6496 173.201 38.6393 171.365 38.7877L171.466 39.9509C173.762 39.7695 174.634 38.4829 174.868 37.4845C174.877 37.4845 174.927 37.2372 174.927 37.0971C174.927 37.0145 174.936 36.9398 174.927 36.8744Z" fill="#EE8DAE"/>
</g>
</g>
</g>
<defs>
<clipPath id="clip0_1_2074">
<rect width="179" height="40" fill="white"/>
</clipPath>
</defs>
</svg>
