<svg width="94" height="75" viewBox="0 0 94 75" fill="none" xmlns="http://www.w3.org/2000/svg">
<path id="Vector" d="M88.6523 66.4935C88.2577 64.9367 87.4592 63.0873 87.1655 62.0846C86.4892 59.7082 85.7154 57.3934 84.9848 55.0451C84.0938 52.1956 88.4227 50.6703 89.3572 53.5137C90.4822 56.9071 91.4118 60.3689 92.2681 63.8427C92.7881 65.986 94.1981 69.2659 92.8309 71.3758C91.5553 73.3394 88.4585 73.4189 86.4509 73.7703C82.8405 74.3624 79.199 74.7284 75.5474 74.8662C75.1856 74.877 74.8348 74.7475 74.5674 74.5045C74.3 74.2615 74.1365 73.9235 74.1108 73.5605C74.0851 73.1975 74.1991 72.8372 74.4293 72.5542C74.6594 72.2711 74.988 72.087 75.3473 72.0398C77.521 71.7353 79.6402 71.4043 81.7426 70.9969C83.2527 70.669 84.7817 70.3025 86.324 69.9085C86.4896 69.8596 86.6472 69.8273 86.7993 69.7923C64.6778 64.1084 57.4049 39.6046 42.7036 24.7611C38.5997 20.6247 33.6499 16.9354 27.921 15.5062C27.6297 15.4392 27.3112 15.3726 27.0363 15.3272C28.6243 19.3489 29.0756 23.8737 27.5942 28.0155C26.1129 32.1573 22.415 35.7231 17.7472 34.9137C13.3106 34.1147 9.71166 29.8152 9.53505 25.3084C9.31186 20.2331 13.1166 15.8121 17.4888 13.7553C19.186 12.9628 21.002 12.4642 22.8595 12.2809C18.2929 5.03993 9.48953 0.767703 0.884377 1.98156C0.237721 2.07557 0.0171002 0.992427 0.658019 0.841051C10.3456 -1.34586 20.4966 3.74725 25.4396 12.2087C35.4274 12.7538 44.8038 21.9239 50.5152 29.1706C61.4255 42.9295 69.7466 62.63 88.6523 66.4935ZM24.4002 15.0992C19.5952 15.0689 14.7069 17.2425 12.7612 22.0038C10.6142 27.2468 15.8013 34.5993 21.5751 31.7592C26.7362 29.2343 26.6184 21.5225 25.106 16.8897C24.8879 16.299 24.659 15.6893 24.4002 15.0992Z" fill="url(#paint0_linear_1_2142)"/>
<defs>
<linearGradient id="paint0_linear_1_2142" x1="96.5409" y1="63.8277" x2="-5.88664" y2="13.8384" gradientUnits="userSpaceOnUse">
<stop stop-color="#482F28"/>
<stop offset="1" stop-color="#482F28" stop-opacity="0"/>
</linearGradient>
</defs>
</svg>
