<svg width="19" height="22" viewBox="0 0 19 22" fill="none" xmlns="http://www.w3.org/2000/svg">
<g id="Group">
<path id="Vector" d="M17.2389 5.5213H14.776V4.91072C14.776 2.24371 12.4186 0.0908203 9.49829 0.0908203C6.57794 0.0908203 4.22054 2.24371 4.22054 4.91072V5.5213H1.75766C0.772482 5.5213 -0.00158691 6.22821 -0.00158691 7.12793V17.7317C-0.00158691 20.0453 2.03914 21.909 4.57252 21.909H14.4243C16.9576 21.909 18.9984 20.0453 18.9984 17.7317V7.12793C18.9982 6.26052 18.2241 5.5213 17.2389 5.5213ZM6.33158 4.94302C6.33158 3.33639 7.73885 2.0512 9.4981 2.0512C11.2573 2.0512 12.6646 3.33639 12.6646 4.94302V5.5536H6.33133L6.33158 4.94302ZM16.8871 17.7318C16.8871 18.985 15.7964 19.981 14.4242 19.981H4.57239C3.20018 19.981 2.10951 18.985 2.10951 17.7318V7.44937H4.22073V10.6947C4.22073 11.2409 4.67821 11.6587 5.27634 11.6587C5.87446 11.6587 6.33195 11.241 6.33195 10.6947L6.33171 7.44937H12.665V10.6947C12.665 11.2409 13.1225 11.6587 13.7206 11.6587C14.3187 11.6587 14.7762 11.241 14.7762 10.6947L14.776 7.44937H16.8872L16.8871 17.7318Z" fill="white"/>
</g>
</svg>
