<svg width="244" height="243" viewBox="0 0 244 243" fill="none" xmlns="http://www.w3.org/2000/svg">
<g id="Group">
<path id="Vector" fill-rule="evenodd" clip-rule="evenodd" d="M189.249 198.572C189.249 198.572 185.649 188.397 174.813 192.124C163.976 195.851 161.656 196.069 161.656 196.069C161.656 196.069 161.694 157.433 146.652 160.02C131.599 162.607 152.574 189.797 153.627 196.202C154.679 202.607 125.904 206.815 123.307 181.771C120.716 156.732 130.019 149.805 120.146 147.214C110.278 144.629 108.476 160.111 110.409 168.266C112.342 176.422 122.915 191.288 120.631 195.849C118.348 200.41 93.7366 191.508 95.7553 175.106C97.774 158.704 111.415 131.211 97.0683 126.953C82.7236 122.701 76.3594 136.334 78.9087 149.05C81.4586 161.767 89.5245 177.907 86.1469 182.07C82.77 186.233 42.8885 136.108 61.5729 116.026C70.9958 105.903 77.7638 102.399 81.7622 99.3282C76.1494 79.271 22.4632 98.6433 21.583 84.3337C19.8899 57.0054 69.757 85.7174 85.8158 87.9766C85.7188 87.2595 85.5938 86.5036 85.4354 85.6799C82.3619 69.4574 96.7503 29.2893 134.653 47.5341C172.557 65.7783 176.158 74.1104 155.184 74.1949C134.21 74.282 119.65 86.7335 124.914 95.3286C130.178 103.924 145.619 96.0291 157.993 89.1072C170.363 82.1803 185.633 82.3568 192.829 95.8652C200.025 109.374 210.03 138.139 190.111 124.017C170.192 109.895 150.27 100.161 142.729 107.875C135.182 115.595 138.079 126.38 156.415 127.52C174.752 128.661 202.657 127.787 205.642 147.608C208.626 167.428 185.108 147.606 174.318 143.656C163.523 139.709 147.975 138.236 154.489 149.268C161 160.304 194.764 157.778 196.955 166.988C199.151 176.194 186.249 175.753 189.235 198.565L189.249 198.572ZM111.718 85.1135C107.479 89.3502 101.646 90.3911 98.6909 87.4375C95.7347 84.4826 96.7718 78.6477 101.01 74.411C105.249 70.1742 111.082 69.1333 114.043 72.0925C116.999 75.0474 115.956 80.8768 111.718 85.1135ZM124.664 123.264C122.302 125.625 119.049 126.208 117.4 124.56C115.75 122.911 116.329 119.665 118.696 117.298C121.058 114.937 124.312 114.354 125.961 116.002C127.61 117.651 127.032 120.897 124.664 123.264Z" fill="#482F28" fill-opacity="0.1"/>
</g>
</svg>
