<svg width="28" height="25" viewBox="0 0 28 25" fill="none" xmlns="http://www.w3.org/2000/svg">
<g id="Iconly/Light-Outline/Message">
<g id="Message">
<path id="Combined-Shape" fill-rule="evenodd" clip-rule="evenodd" d="M19.8236 0.5C23.9861 0.5 27.1249 3.89625 27.1249 8.4V16.985C27.1249 19.29 26.3099 21.3725 24.8286 22.85C23.4999 24.1737 21.7761 24.875 19.8436 24.875H7.52738C5.59863 24.875 3.87613 24.175 2.54613 22.85C1.06488 21.3725 0.249878 19.29 0.249878 16.985V8.4C0.249878 3.89625 3.38863 0.5 7.55113 0.5H19.8236ZM19.8236 2.375H7.55113C4.40738 2.375 2.12488 4.90875 2.12488 8.4V16.985C2.12488 18.7887 2.74488 20.4 3.86988 21.5212C4.83988 22.49 6.10613 23 7.53113 23H19.8236C19.8261 22.9975 19.8361 23 19.8436 23C21.2699 23 22.5349 22.49 23.5049 21.5212C24.6311 20.4 25.2499 18.7887 25.2499 16.985V8.4C25.2499 4.90875 22.9674 2.375 19.8236 2.375ZM21.7936 8.161C22.1199 8.56225 22.0586 9.15225 21.6574 9.47975L16.1024 13.9948C15.3999 14.5522 14.5599 14.831 13.7211 14.831C12.8849 14.831 12.0511 14.5547 11.3536 14.0022L5.74738 9.48225C5.34363 9.15725 5.28113 8.566 5.60488 8.1635C5.93113 7.76225 6.52113 7.6985 6.92363 8.02225L12.5249 12.5372C13.2286 13.0947 14.2199 13.0948 14.9286 12.5323L20.4736 8.02475C20.8761 7.696 21.4661 7.7585 21.7936 8.161Z" fill="#222222"/>
</g>
</g>
</svg>
