<svg width="106" height="106" viewBox="0 0 106 106" fill="none" xmlns="http://www.w3.org/2000/svg">
<g id="Layer 2">
<circle id="Ellipse 72" cx="52.9984" cy="53" r="53" fill="#F8DCDB"/>
<g id="Group 10">
<g id="Layer 1">
<path id="Vector" d="M83.9811 73.062L90.6756 75.975L90.0853 76.7394L86.7402 75.2062C85.9138 74.8317 85.1027 74.4419 84.4839 74.1221L84.473 74.1396C84.9584 74.6609 85.4875 75.3508 86.0603 76.1108L88.3013 79.0435L87.7175 79.8013L84.3659 78.2835C83.581 77.9265 82.8005 77.5607 82.1468 77.1884L82.1358 77.2037C82.6584 77.7973 83.159 78.4368 83.7231 79.153L85.9728 82.0791L85.4022 82.8194L81.0295 76.8949L81.6133 76.1393L85.0721 77.6899C85.7941 78.0004 86.4984 78.3507 87.1819 78.739L87.195 78.7237C86.6647 78.1347 86.1662 77.5176 85.7017 76.8752L83.4039 73.8089L83.9811 73.062Z" fill="#1D1D1B"/>
<path id="Vector_2" d="M77.3936 80.3552L77.8768 80.7933L77.9009 80.7714C77.8752 80.4712 77.9213 80.1692 78.0354 79.8903C78.1495 79.6115 78.3282 79.364 78.5568 79.1681C79.322 78.4804 80.1965 78.6688 80.6884 79.2141C81.5083 80.1296 81.1454 81.3605 79.6784 82.6681L79.7483 82.7469C80.0304 83.058 80.6228 83.5442 81.3924 82.8499C81.7389 82.5355 81.9923 82.1316 82.1249 81.6825L82.6867 81.9957C82.5154 82.5579 82.1905 83.0609 81.7488 83.4478C80.5922 84.4882 79.6018 83.9516 78.9219 83.1938L77.6516 81.7789C77.3849 81.4705 77.0923 81.1854 76.7771 80.9269L77.3936 80.3552ZM79.228 82.1972C79.991 81.5401 80.7234 80.6378 80.0653 79.9041C79.9941 79.8102 79.9034 79.7329 79.7996 79.6774C79.6957 79.6219 79.5811 79.5895 79.4637 79.5824C79.3462 79.5754 79.2285 79.5938 79.1188 79.6364C79.0091 79.6791 78.9099 79.745 78.8279 79.8296C78.6232 80.004 78.4793 80.2393 78.4172 80.5012C78.3551 80.7631 78.3779 81.0381 78.4824 81.2861C78.5215 81.3784 78.5746 81.4641 78.6398 81.5401L79.228 82.1972Z" fill="#1D1D1B"/>
<path id="Vector_3" d="M78.7098 87.5919L77.8637 86.4004L76.7858 87.167L76.3792 86.5932L77.457 85.8266L75.8698 83.5882C75.5047 83.0757 75.1527 82.8873 74.7329 83.1852C74.584 83.2873 74.4501 83.4097 74.335 83.5488L73.8977 83.0056C74.0594 82.7784 74.2609 82.5825 74.4924 82.4274C74.6366 82.3117 74.8041 82.2286 74.9833 82.1836C75.1625 82.1387 75.3493 82.1329 75.5309 82.1668C75.9026 82.2368 76.2415 82.55 76.5869 83.0428L78.1938 85.3031L78.8344 84.8476L79.2411 85.4214L78.6005 85.8792L79.3067 86.8713L78.7098 87.5919Z" fill="#1D1D1B"/>
<path id="Vector_4" d="M70.1088 85.3798C70.4104 84.9781 70.7962 84.6476 71.2392 84.4117C72.5772 83.6626 73.9546 84.0853 74.711 85.4433C75.4675 86.8012 75.0915 88.3256 73.6441 89.136C73.2613 89.3544 72.8365 89.4888 72.3979 89.5302L72.2339 88.8031C72.6056 88.7933 72.9682 88.6861 73.2856 88.4921C74.3022 87.9226 74.4334 86.8647 73.9174 85.9361C73.3424 84.9089 72.3301 84.6438 71.4512 85.1366C71.105 85.3246 70.8059 85.589 70.5767 85.9098L70.1088 85.3798Z" fill="#1D1D1B"/>
<path id="Vector_5" d="M71.9366 92.5459L71.0752 92.8788L69.9361 89.9155H69.9164C69.8676 90.2278 69.7345 90.5209 69.5316 90.7631C69.3251 91.0239 69.0536 91.2256 68.7446 91.3479C68.1083 91.5932 66.9386 91.5932 66.309 89.9549L65.2158 87.1295L66.0772 86.7966L67.1245 89.5234C67.4196 90.29 67.9509 90.8266 68.7642 90.5134C69.0219 90.4087 69.2401 90.2254 69.3881 89.9896C69.536 89.7537 69.6061 89.4772 69.5885 89.1993C69.5856 89.0481 69.5521 88.8991 69.4901 88.7612L68.4057 85.9052L69.2693 85.5723L71.9366 92.5459Z" fill="#1D1D1B"/>
<path id="Vector_6" d="M60.7688 88.168L64.1708 94.7977L63.1979 94.9554L61.5559 91.6833C61.1034 90.7875 60.7076 89.9771 60.3906 89.1886H60.3687C60.3032 90.0297 60.1501 90.9583 59.9905 91.922L59.363 95.5687L58.3989 95.7242L59.7741 88.3257L60.7688 88.168Z" fill="#1D1D1B"/>
<path id="Vector_7" d="M56.8907 88.6343L57.1488 93.7156L56.2257 93.7638L55.9677 88.6803L56.8907 88.6343ZM56.1929 95.2049C56.1858 95.1281 56.195 95.0506 56.22 94.9775C56.245 94.9045 56.2852 94.8376 56.3379 94.7813C56.3906 94.725 56.4547 94.6806 56.5258 94.6509C56.597 94.6212 56.6736 94.607 56.7507 94.6092C56.8248 94.6041 56.8991 94.6142 56.9692 94.6387C57.0393 94.6632 57.1036 94.7017 57.1584 94.7519C57.2132 94.8021 57.2573 94.8628 57.288 94.9305C57.3186 94.9982 57.3353 95.0715 57.3369 95.1458C57.3429 95.2222 57.3332 95.2991 57.3084 95.3716C57.2837 95.4441 57.2444 95.5109 57.193 95.5677C57.1416 95.6245 57.0792 95.6702 57.0095 95.7019C56.9398 95.7337 56.8644 95.7509 56.7879 95.7525C56.7114 95.7593 56.6343 95.7498 56.5617 95.7248C56.4891 95.6998 56.4226 95.6597 56.3664 95.6072C56.3103 95.5548 56.2659 95.491 56.236 95.4202C56.2061 95.3494 56.1914 95.273 56.1929 95.1962V95.2049Z" fill="#1D1D1B"/>
<path id="Vector_8" d="M49.7803 95.9409L50.1717 89.8083C50.2001 89.3571 50.222 88.8424 50.2132 88.4941L51.0397 88.5467L51.0265 89.4228H51.0462C51.2317 89.1212 51.4983 88.878 51.8153 88.7211C52.1324 88.5642 52.4872 88.5 52.839 88.5358C54.0634 88.6146 54.9401 89.7141 54.8417 91.256C54.7433 92.9468 53.6305 93.9171 52.3952 93.8383C51.6212 93.7879 51.1206 93.3871 50.915 92.9622H50.8954L50.6964 96L49.7803 95.9409ZM50.985 91.5604C50.9745 91.6906 50.9804 91.8216 51.0025 91.9503C51.049 92.2583 51.1997 92.541 51.4293 92.7511C51.6589 92.9612 51.9536 93.086 52.264 93.1045C53.2172 93.1659 53.836 92.3642 53.9059 91.2407C53.9715 90.2135 53.5233 89.3308 52.5286 89.2695C52.2116 89.2502 51.8977 89.3404 51.6391 89.5249C51.3805 89.7095 51.1929 89.9772 51.1074 90.2835C51.0693 90.4125 51.0465 90.5456 51.0397 90.68L50.985 91.5604Z" fill="#1D1D1B"/>
<path id="Vector_9" d="M47.9832 90.5047C48.2302 89.2804 47.5612 88.6058 46.6604 88.4065C46.1925 88.2891 45.7048 88.2741 45.2306 88.3627L45.2174 87.6815C45.7877 87.5784 46.3733 87.5971 46.9359 87.7363C48.4663 88.0714 49.155 89.2695 48.8271 90.7763C48.4991 92.2832 47.36 93.2644 45.9149 92.9468C44.2948 92.5898 44.1768 91.0698 44.3845 90.1565C44.418 90.0157 44.4589 89.8768 44.5069 89.7404L47.9832 90.5047ZM45.1978 90.5726C45.0622 91.1443 45.1125 92.0926 46.127 92.3248C47.0408 92.5241 47.6246 91.7707 47.8323 91.1596L45.1978 90.5726Z" fill="#1D1D1B"/>
<path id="Vector_10" d="M38.9121 87.9248C39.579 86.1726 41.0985 85.8616 42.2354 86.2997C43.5209 86.7881 44.1528 88.1088 43.5821 89.6113C42.9787 91.2036 41.586 91.7424 40.2698 91.2408C38.9078 90.7239 38.3612 89.3791 38.9121 87.9248ZM42.6989 89.309C43.0946 88.2687 42.7929 87.2546 41.9489 86.9326C41.105 86.6107 40.213 87.1517 39.8063 88.2314C39.5003 89.0374 39.5156 90.2136 40.5366 90.6013C41.5576 90.9889 42.3556 90.2136 42.6989 89.309Z" fill="#1D1D1B"/>
<path id="Vector_11" d="M31.9399 82.4645C31.2031 83.3275 30.1056 83.4326 29.2923 82.7339C28.479 82.0352 28.4396 80.9511 29.1764 80.0903C29.9132 79.2296 30.9648 79.0828 31.8263 79.8209C32.6396 80.5196 32.6592 81.6279 31.9399 82.4645Z" fill="#1D1D1B"/>
<path id="Vector_12" d="M24.7294 72.1068L19.3095 77.0085L18.8591 76.1543L21.6335 73.7451C22.3157 73.1472 23.0066 72.5668 23.551 72.1375V72.1178C22.8754 72.3368 22.0205 72.5427 21.1088 72.7551L17.5123 73.583L17.0751 72.7376L19.8473 70.2977C20.5032 69.7304 21.1591 69.1697 21.7625 68.7295L21.7516 68.7098C20.9973 68.9441 20.2081 69.1347 19.3248 69.3493L15.7152 70.1838L15.2779 69.3559L22.4687 67.8228L22.906 68.6704L20.0878 71.1847C19.5071 71.7147 18.8969 72.2112 18.26 72.6719L18.271 72.6916C19.0217 72.4564 19.7844 72.2612 20.5557 72.1068L24.2724 71.2789L24.7294 72.1068Z" fill="#1D1D1B"/>
<path id="Vector_13" d="M20.8225 63.0853L20.2343 63.346V63.3766C20.5179 63.476 20.7738 63.6417 20.9806 63.86C21.1875 64.0782 21.3394 64.3428 21.4237 64.6316C21.7342 65.6128 21.2051 66.3334 20.5033 66.5568C19.3314 66.927 18.3628 66.0881 17.7791 64.2111L17.6807 64.2418C17.2806 64.3688 16.5875 64.7083 16.9089 65.7005C17.055 66.1485 17.323 66.5467 17.6829 66.8503L17.1647 67.2358C16.7242 66.846 16.4008 66.3409 16.2312 65.7771C15.7633 64.2943 16.6684 63.6132 17.6304 63.3066L19.432 62.7305C19.8218 62.6167 20.2014 62.4702 20.5667 62.2925L20.8225 63.0853ZM18.3935 64.003C18.6777 64.9711 19.1915 66.0093 20.1425 65.7114C20.2569 65.6851 20.3643 65.6345 20.4575 65.5629C20.5506 65.4913 20.6272 65.4005 20.6822 65.2966C20.7372 65.1927 20.7692 65.0782 20.776 64.9608C20.7829 64.8434 20.7644 64.7259 20.7219 64.6163C20.6476 64.3575 20.4928 64.1292 20.2801 63.9646C20.0674 63.7999 19.8078 63.7075 19.5391 63.7008C19.4394 63.6975 19.3397 63.71 19.2439 63.738L18.3935 64.003Z" fill="#1D1D1B"/>
<path id="Vector_14" d="M13.7015 61.2939L15.1336 61.0158L14.8822 59.7148L15.5708 59.5812L15.8245 60.88L18.5115 60.3565C19.1302 60.2361 19.4472 59.993 19.3488 59.4805C19.3167 59.3025 19.2616 59.1295 19.1848 58.9658L19.8561 58.7927C19.997 59.0329 20.0919 59.2974 20.1359 59.5724C20.1824 59.7517 20.1895 59.939 20.1566 60.1212C20.1238 60.3035 20.0518 60.4764 19.9457 60.6281C19.7271 60.9391 19.3029 61.1165 18.7148 61.2326L15.9972 61.7692L16.1459 62.5424L15.4572 62.676L15.3063 61.9028L14.1104 62.135L13.7015 61.2939Z" fill="#1D1D1B"/>
<path id="Vector_15" d="M19.2636 54.3662C19.5062 54.806 19.6474 55.2947 19.6768 55.7964C19.8058 57.3296 18.8525 58.4072 17.3046 58.5364C15.7567 58.6656 14.528 57.6931 14.3902 56.0373C14.3492 55.5983 14.4021 55.1555 14.5455 54.7385L15.2735 54.8875C15.1288 55.2331 15.0768 55.6106 15.1227 55.9826C15.2189 57.1456 16.1284 57.7019 17.1844 57.6143C18.3562 57.5179 19.0143 56.7032 18.9334 55.6979C18.9026 55.3055 18.7838 54.9252 18.5858 54.5852L19.2636 54.3662Z" fill="#1D1D1B"/>
<path id="Vector_16" d="M11.9984 53.0522L12.0553 52.1279L15.2189 52.3206V52.2987C14.9611 52.1273 14.7548 51.8888 14.622 51.6088C14.4645 51.3121 14.389 50.9787 14.4034 50.6429C14.4449 49.9618 14.9303 48.8908 16.6793 49.0025L19.6965 49.1865L19.6506 50.1129L16.7384 49.9355C15.9229 49.8851 15.2079 50.1545 15.1598 51.0197C15.1484 51.2969 15.2238 51.5707 15.3756 51.8029C15.5273 52.035 15.7477 52.2138 16.006 52.3141C16.1444 52.3727 16.293 52.4032 16.4432 52.4039L19.5041 52.59L19.4319 53.5143L11.9984 53.0522Z" fill="#1D1D1B"/>
<path id="Vector_17" d="M20.6169 44.7029L13.1834 45.0446L13.4458 44.0918L17.0991 43.956C18.1005 43.9188 18.999 43.8947 19.8495 43.9341V43.9122C19.1193 43.5027 18.3388 42.977 17.532 42.4295L14.4712 40.3422L14.7313 39.4004L20.8771 43.7283L20.6169 44.7029Z" fill="#1D1D1B"/>
<path id="Vector_18" d="M16.1306 37.6155C16.2676 37.6734 16.3767 37.7826 16.4346 37.9198C16.4925 38.0571 16.4945 38.2116 16.4404 38.3504C16.3862 38.4892 16.2801 38.6013 16.1446 38.6628C16.0092 38.7244 15.8551 38.7305 15.7152 38.6799C15.6441 38.6542 15.5789 38.6144 15.5236 38.5629C15.4682 38.5114 15.4238 38.4492 15.393 38.3801C15.3622 38.311 15.3456 38.2364 15.3442 38.1607C15.3428 38.085 15.3567 38.0098 15.385 37.9396C15.4094 37.8668 15.4487 37.8 15.5005 37.7434C15.5523 37.6868 15.6154 37.6418 15.6857 37.6112C15.756 37.5806 15.832 37.5652 15.9086 37.5659C15.9852 37.5667 16.0609 37.5836 16.1306 37.6155ZM21.815 40.9643L17.0904 39.0983L17.4293 38.2375L22.1539 40.1036L21.815 40.9643Z" fill="#1D1D1B"/>
<path id="Vector_19" d="M18.1005 31.4609L23.5182 34.352C23.9161 34.571 24.3752 34.7901 24.6966 34.9324L24.3075 35.664L23.5095 35.2872V35.3048C23.7076 35.5983 23.819 35.9418 23.831 36.2959C23.843 36.65 23.755 37.0003 23.5772 37.3066C23 38.4017 21.638 38.7368 20.2759 38.0119C18.7761 37.2256 18.3388 35.8085 18.9269 34.7134C19.292 34.0257 19.8627 33.7366 20.3327 33.7234L20.3437 33.7059L17.6654 32.2779L18.1005 31.4609ZM21.5833 34.3674C21.4695 34.3044 21.3483 34.2559 21.2226 34.2228C20.9231 34.1372 20.6033 34.1576 20.317 34.2804C20.0307 34.4033 19.7954 34.6211 19.6506 34.8974C19.2133 35.7406 19.6768 36.6364 20.6672 37.1664C21.5746 37.6505 22.5628 37.6045 23.0307 36.7284C23.1793 36.4468 23.227 36.1227 23.1657 35.8101C23.1044 35.4976 22.9379 35.2156 22.694 35.0113C22.5934 34.9238 22.4817 34.8501 22.3616 34.7923L21.5833 34.3674Z" fill="#1D1D1B"/>
<path id="Vector_20" d="M23.7871 32.0697C24.7994 32.8012 25.6892 32.4705 26.2423 31.7302C26.5388 31.3509 26.7512 30.9126 26.8654 30.4446L27.4973 30.7118C27.3543 31.2704 27.0958 31.7927 26.7386 32.2449C25.8029 33.4999 24.4189 33.6335 23.1924 32.7158C21.9659 31.7981 21.5374 30.3613 22.4228 29.1786C23.4154 27.847 24.8475 28.3682 25.5974 28.9289C25.712 29.0159 25.8208 29.1103 25.9231 29.2115L23.7871 32.0697ZM24.8803 29.5006C24.4146 29.1414 23.5335 28.7953 22.9126 29.6298C22.3551 30.3789 22.7989 31.2221 23.2668 31.6667L24.8803 29.5006Z" fill="#1D1D1B"/>
<path id="Vector_21" d="M29.8869 24.8663C31.1987 26.2046 30.8555 27.7136 29.9831 28.5678C29.0037 29.5359 27.541 29.5644 26.4129 28.4211C25.2191 27.2077 25.3088 25.714 26.3101 24.724C27.3486 23.7033 28.796 23.7581 29.8869 24.8663ZM27.0557 27.7399C27.8384 28.5328 28.8834 28.6817 29.5262 28.0465C30.169 27.4114 30.04 26.3688 29.2354 25.5541C28.632 24.9408 27.5585 24.459 26.7824 25.2343C26.0062 26.0096 26.3779 27.0522 27.0557 27.7399Z" fill="#1D1D1B"/>
<path id="Vector_22" d="M39.7429 19.8199C39.3275 18.7642 39.7429 17.7414 40.7442 17.3472C41.7456 16.9529 42.7119 17.426 43.1317 18.4817C43.5515 19.5374 43.182 20.5383 42.1282 20.9545C41.1312 21.3465 40.1452 20.8559 39.7429 19.8199Z" fill="#1D1D1B"/>
<path id="Vector_23" d="M54.3628 18.1861L53.0182 11L53.9759 11.0613L54.588 14.6927C54.7411 15.5863 54.8744 16.4799 54.9575 17.1698H54.9772C55.1368 16.4733 55.4145 15.6476 55.7096 14.7606L56.8771 11.2563L57.8304 11.3154L58.4688 14.9424C58.6153 15.7944 58.7508 16.6442 58.8076 17.3976H58.8295C59.0241 16.631 59.2668 15.8645 59.5488 14.9884L60.7076 11.484L61.6389 11.5432L59.1924 18.4927L58.2392 18.4314L57.5833 14.6927C57.4344 13.9196 57.3293 13.1386 57.2685 12.3536H57.2554C57.0655 13.1231 56.8348 13.882 56.5645 14.627L55.327 18.2452L54.3628 18.1861Z" fill="#1D1D1B"/>
<path id="Vector_24" d="M64.0921 19.5594L64.173 18.9176H64.1423C63.9098 19.1077 63.6355 19.2396 63.342 19.3025C63.0485 19.3653 62.7443 19.3573 62.4545 19.279C61.4554 19.0293 61.1208 18.1992 61.2957 17.4852C61.5909 16.2916 62.8131 15.9017 64.7152 16.3901L64.7414 16.2872C64.842 15.8798 64.9119 15.1176 63.9019 14.8679C63.4485 14.7569 62.9733 14.7736 62.5288 14.9161L62.4698 14.2744C63.0315 14.1002 63.6306 14.0873 64.1992 14.2371C65.7078 14.6117 65.8193 15.7331 65.5744 16.723L65.1262 18.5562C65.0185 18.9507 64.9454 19.3537 64.9076 19.7609L64.0921 19.5594ZM64.5818 17.0056C63.6089 16.7406 62.4567 16.6398 62.2184 17.5991C62.1807 17.7109 62.1676 17.8295 62.18 17.9468C62.1924 18.0641 62.23 18.1773 62.2903 18.2787C62.3505 18.38 62.432 18.4671 62.529 18.5339C62.626 18.6007 62.7364 18.6457 62.8524 18.6658C63.1116 18.7381 63.3871 18.7258 63.6387 18.6304C63.8904 18.5351 64.1051 18.3618 64.2517 18.1357C64.3055 18.0512 64.3461 17.9589 64.3719 17.862L64.5818 17.0056Z" fill="#1D1D1B"/>
<path id="Vector_25" d="M69.3239 14.4035L68.8167 15.7746L70.0564 16.2345L69.8115 16.8916L68.5718 16.4295L67.6186 19.0052C67.4 19.5965 67.4415 19.9951 67.9225 20.1747C68.0913 20.2394 68.2676 20.2821 68.4472 20.3018L68.2461 20.9588C67.9676 20.9533 67.6926 20.8961 67.435 20.7902C67.258 20.7369 67.0947 20.6456 66.9565 20.5226C66.8183 20.3997 66.7085 20.2481 66.6348 20.0784C66.4839 19.7301 66.5517 19.2746 66.7616 18.7117L67.7257 16.1097L66.9889 15.8359L67.2338 15.1789L67.9684 15.4592L68.4057 14.3159L69.3239 14.4035Z" fill="#1D1D1B"/>
<path id="Vector_26" d="M72.3411 22.7658C71.8395 22.743 71.3491 22.6099 70.9047 22.3759C69.5338 21.6882 69.1075 20.3105 69.8115 18.9197C70.5155 17.529 71.976 16.9836 73.4583 17.7261C73.8543 17.9192 74.2046 18.1947 74.4859 18.5343L73.9786 19.0796C73.7604 18.7782 73.4682 18.5383 73.1303 18.3831C72.0875 17.8619 71.1386 18.3503 70.6642 19.3008C70.1394 20.3543 70.4914 21.3399 71.3922 21.7933C71.7421 21.9698 72.1266 22.0663 72.5182 22.0758L72.3411 22.7658Z" fill="#1D1D1B"/>
<path id="Vector_27" d="M77.2319 17.2312L77.9884 17.759L76.1781 20.3654L76.1956 20.3763C76.4802 20.2415 76.7964 20.1877 77.1095 20.2208C77.4414 20.2461 77.761 20.3578 78.0365 20.545C78.5962 20.9349 79.2521 21.9051 78.2551 23.3463L76.5301 25.8322L75.7714 25.3043L77.4374 22.8951C77.9053 22.2227 78.0496 21.478 77.3347 20.9808C77.1044 20.8265 76.8317 20.7484 76.5548 20.7574C76.2779 20.7665 76.0108 20.8622 75.7911 21.0312C75.6697 21.1193 75.5665 21.2301 75.4872 21.3576L73.7381 23.8785L72.9795 23.3507L77.2319 17.2312Z" fill="#1D1D1B"/>
<path id="Vector_28" d="M79.8708 28.9597L83.4498 22.4241L84.1254 23.1447L82.337 26.3314C81.8494 27.2075 81.4012 27.9894 80.9268 28.6968L80.9399 28.7122C81.6745 28.296 82.525 27.8996 83.4148 27.4966L86.7818 25.9635L87.4486 26.6775L80.5617 29.6781L79.8708 28.9597Z" fill="#1D1D1B"/>
<path id="Vector_29" d="M82.4332 31.9144L86.491 28.8481L87.0463 29.5862L82.9885 32.6525L82.4332 31.9144ZM88.251 28.8175C88.1293 28.9005 87.9805 28.9334 87.8353 28.9094C87.69 28.8854 87.5596 28.8063 87.471 28.6886C87.3825 28.5708 87.3425 28.4234 87.3595 28.277C87.3765 28.1305 87.4491 27.9962 87.5623 27.902C87.622 27.8541 87.6909 27.819 87.7647 27.7988C87.8384 27.7786 87.9155 27.7736 87.9913 27.7843C88.067 27.7949 88.1398 27.821 88.2051 27.8608C88.2704 27.9006 88.327 27.9534 88.3712 28.0159C88.4191 28.0751 88.4541 28.1437 88.474 28.2173C88.494 28.2909 88.4985 28.3678 88.4872 28.4432C88.4758 28.5186 88.449 28.5908 88.4084 28.6552C88.3677 28.7196 88.3141 28.7749 88.251 28.8175Z" fill="#1D1D1B"/>
<path id="Vector_30" d="M92.4552 33.7037L87.1665 36.827C86.7774 37.046 86.3401 37.3285 86.0581 37.53L85.6361 36.816L86.3751 36.332L86.3641 36.3123C86.011 36.3282 85.6605 36.244 85.353 36.0692C85.0456 35.8945 84.7936 35.6363 84.626 35.3245C84.0007 34.2644 84.4183 32.9153 85.7476 32.1377C87.1971 31.2617 88.6248 31.6449 89.2457 32.7138C89.6393 33.384 89.589 34.0279 89.355 34.4331L89.366 34.4506L91.9786 32.9175L92.4552 33.7037ZM88.1613 35.1646C88.2753 35.1004 88.3811 35.0224 88.4761 34.9325C88.7047 34.7208 88.8538 34.4369 88.8984 34.1283C88.943 33.8197 88.8804 33.5051 88.721 33.2372C88.2356 32.4115 87.2256 32.3611 86.257 32.9218C85.3715 33.4453 84.8949 34.3126 85.4 35.1734C85.5624 35.447 85.8136 35.6565 86.1116 35.7669C86.4097 35.8773 86.7365 35.8819 87.0375 35.7801C87.1656 35.7398 87.2882 35.6839 87.4026 35.6136L88.1613 35.1646Z" fill="#1D1D1B"/>
<path id="Vector_31" d="M88.9725 38.2485C87.8225 38.7347 87.641 39.6678 87.9864 40.5263C88.1508 40.9807 88.4128 41.3935 88.7539 41.7353L88.1985 42.1296C87.7923 41.7152 87.4779 41.2196 87.2759 40.6753C86.6943 39.2231 87.2999 37.9703 88.7232 37.3899C90.1465 36.8095 91.6004 37.206 92.1514 38.5814C92.7701 40.1146 91.5808 41.0783 90.7128 41.4287C90.5785 41.4805 90.4412 41.5244 90.3018 41.5601L88.9725 38.2485ZM90.5947 40.5198C91.1435 40.3007 91.9065 39.7357 91.5108 38.7676C91.1632 37.8915 90.2121 37.8389 89.5912 38.0098L90.5947 40.5198Z" fill="#1D1D1B"/>
<path id="Vector_32" d="M91.9459 47.2128C90.1159 47.6508 89.0206 46.5689 88.7363 45.3708C88.4193 44.0304 89.1539 42.7645 90.7172 42.3943C92.3722 42.0001 93.5987 42.8543 93.9223 44.2253C94.259 45.6468 93.4566 46.8536 91.9459 47.2128ZM90.9642 43.2967C89.882 43.5551 89.2151 44.3721 89.4207 45.2526C89.6262 46.133 90.5838 46.5667 91.6966 46.2995C92.534 46.1002 93.496 45.4234 93.2445 44.3655C92.9931 43.3076 91.9021 43.0733 90.9642 43.2967Z" fill="#1D1D1B"/>
<path id="Vector_33" d="M90.7609 60.4616C91.8541 60.7266 92.4597 61.6574 92.2104 62.7C91.9612 63.7425 91.0167 64.2747 89.9148 64.0141C88.8129 63.7535 88.2029 62.8796 88.4653 61.7757C88.7145 60.7288 89.6896 60.2053 90.7609 60.4616Z" fill="#1D1D1B"/>
</g>
<g id="Group">
<path id="Vector_34" d="M52.8391 61.5054L60.1257 57.1922C63.1367 55.4126 63.1367 51.0388 60.1257 49.2592L52.8391 44.9758C49.7678 43.1658 45.9137 45.368 45.9137 48.9575V57.5541C45.8835 61.1133 49.7678 63.3153 52.8391 61.5054Z" fill="black"/>
</g>
</g>
</g>
</svg>
