<svg width="34" height="34" viewBox="0 0 34 34" fill="none" xmlns="http://www.w3.org/2000/svg">
<g id="Quote">
<path id="Vector" d="M28.7711 25.0864C31.4443 22.1851 31.1752 18.4592 31.1667 18.4167V7.08341C31.1667 6.70769 31.0174 6.34736 30.7517 6.08168C30.4861 5.816 30.1257 5.66675 29.75 5.66675H21.25C19.6874 5.66675 18.4167 6.9375 18.4167 8.50008V18.4167C18.4167 18.7925 18.5659 19.1528 18.8316 19.4185C19.0973 19.6842 19.4576 19.8334 19.8333 19.8334H24.1938C24.1639 20.5338 23.9546 21.2148 23.5861 21.8111C22.8664 22.9458 21.5107 23.7207 19.5543 24.1117L18.4167 24.3384V28.3334H19.8333C23.7759 28.3334 26.7835 27.2412 28.7711 25.0864ZM13.1778 25.0864C15.8525 22.1851 15.5819 18.4592 15.5734 18.4167V7.08341C15.5734 6.70769 15.4242 6.34736 15.1585 6.08168C14.8928 5.816 14.5325 5.66675 14.1568 5.66675H5.65676C4.09418 5.66675 2.82343 6.9375 2.82343 8.50008V18.4167C2.82343 18.7925 2.97268 19.1528 3.23836 19.4185C3.50403 19.6842 3.86437 19.8334 4.24009 19.8334H8.60059C8.57066 20.5338 8.3614 21.2148 7.99284 21.8111C7.27318 22.9458 5.91743 23.7207 3.96101 24.1117L2.82343 24.3384V28.3334H4.24009C8.18268 28.3334 11.1903 27.2412 13.1778 25.0864Z" fill="#FFEFEB"/>
</g>
</svg>
