<svg width="336" height="341" viewBox="0 0 336 341" fill="none" xmlns="http://www.w3.org/2000/svg">
<path fill-rule="evenodd" clip-rule="evenodd" d="M332.578 24.4741C331.744 25.4998 331.275 26.8912 331.275 28.3419C331.275 29.7934 331.744 31.1857 332.578 32.2131C333.412 33.2404 334.544 33.8188 335.725 33.8214V39.661C334.576 39.7206 333.49 40.3234 332.695 41.3436C331.899 42.3638 331.455 43.7224 331.455 45.1357C331.455 46.549 331.899 47.9076 332.695 48.9278C333.49 49.948 334.576 50.5508 335.725 50.6104V56.4501C334.576 56.5096 333.49 57.1124 332.695 58.1326C331.899 59.1528 331.455 60.5114 331.455 61.9247C331.455 63.338 331.899 64.6967 332.695 65.7169C333.49 66.737 334.576 67.3399 335.725 67.3994V73.2391C334.576 73.2986 333.49 73.9015 332.695 74.9216C331.899 75.9418 331.455 77.3005 331.455 78.7138C331.455 80.1271 331.899 81.4857 332.695 82.5059C333.49 83.5261 334.576 84.1289 335.725 84.1885V90.0281C334.576 90.0877 333.49 90.6905 332.695 91.7107C331.899 92.7309 331.455 94.0895 331.455 95.5028C331.455 96.9161 331.899 98.2747 332.695 99.2949C333.49 100.315 334.576 100.918 335.725 100.977V106.817C334.576 106.877 333.49 107.48 332.695 108.5C331.899 109.52 331.455 110.879 331.455 112.292C331.455 113.705 331.899 115.064 332.695 116.084C333.49 117.104 334.576 117.707 335.725 117.767V123.606C334.576 123.666 333.49 124.269 332.695 125.289C331.899 126.309 331.455 127.668 331.455 129.081C331.455 130.494 331.899 131.853 332.695 132.873C333.49 133.893 334.576 134.496 335.725 134.556V140.395C334.576 140.455 333.49 141.058 332.695 142.078C331.899 143.098 331.455 144.457 331.455 145.87C331.455 147.283 331.899 148.642 332.695 149.662C333.49 150.682 334.576 151.285 335.725 151.345V157.184C334.576 157.244 333.49 157.847 332.695 158.867C331.899 159.887 331.455 161.246 331.455 162.659C331.455 164.072 331.899 165.431 332.695 166.451C333.301 167.228 334.075 167.763 334.917 168H335.725V168.134V173V174.083C334.576 174.143 333.49 174.745 332.695 175.766C331.899 176.786 331.455 178.144 331.455 179.558C331.455 180.971 331.899 182.33 332.695 183.35C333.49 184.37 334.576 184.973 335.725 185.032V190.872C334.545 190.872 333.413 191.448 332.578 192.474C331.744 193.5 331.275 194.891 331.275 196.342C331.275 197.793 331.744 199.186 332.578 200.213C333.412 201.24 334.544 201.819 335.725 201.821V207.661C334.576 207.721 333.49 208.323 332.695 209.344C331.899 210.364 331.455 211.722 331.455 213.136C331.455 214.549 331.899 215.908 332.695 216.928C333.49 217.948 334.576 218.551 335.725 218.61V224.45C334.576 224.51 333.49 225.112 332.695 226.133C331.899 227.153 331.455 228.511 331.455 229.925C331.455 231.338 331.899 232.697 332.695 233.717C333.49 234.737 334.576 235.34 335.725 235.399V241.239C334.576 241.299 333.49 241.901 332.695 242.922C331.899 243.942 331.455 245.3 331.455 246.714C331.455 248.127 331.899 249.486 332.695 250.506C333.49 251.526 334.576 252.129 335.725 252.188V258.028C334.576 258.088 333.49 258.69 332.695 259.711C331.899 260.731 331.455 262.09 331.455 263.503C331.455 264.916 331.899 266.275 332.695 267.295C333.49 268.315 334.576 268.918 335.725 268.977V274.817C334.576 274.877 333.49 275.48 332.695 276.5C331.899 277.52 331.455 278.879 331.455 280.292C331.455 281.705 331.899 283.064 332.695 284.084C333.49 285.104 334.576 285.707 335.725 285.767V291.606C334.576 291.666 333.49 292.269 332.695 293.289C331.899 294.309 331.455 295.668 331.455 297.081C331.455 298.494 331.899 299.853 332.695 300.873C333.49 301.893 334.576 302.496 335.725 302.556V308.395C334.576 308.455 333.49 309.058 332.695 310.078C331.899 311.098 331.455 312.457 331.455 313.87C331.455 315.283 331.899 316.642 332.695 317.662C333.49 318.682 334.576 319.285 335.725 319.345V325.184C334.576 325.244 333.49 325.847 332.695 326.867C331.899 327.887 331.455 329.246 331.455 330.659C331.455 332.072 331.899 333.431 332.695 334.451C333.49 335.471 334.576 336.074 335.725 336.134V341H0.724609V336.134C1.32525 336.165 1.92481 336.046 2.48722 335.785C3.04962 335.524 3.56326 335.126 3.99722 334.614C4.43117 334.103 4.77649 333.489 5.01239 332.809C5.24829 332.129 5.36989 331.398 5.36989 330.659C5.36989 329.92 5.24829 329.189 5.01239 328.509C4.77649 327.829 4.43117 327.215 3.99722 326.704C3.56326 326.192 3.04962 325.794 2.48722 325.533C1.92481 325.272 1.32525 325.153 0.724609 325.184V319.345C1.32525 319.376 1.92481 319.257 2.48722 318.996C3.04962 318.735 3.56326 318.337 3.99722 317.825C4.43117 317.314 4.77649 316.7 5.01239 316.02C5.24829 315.34 5.36989 314.609 5.36989 313.87C5.36989 313.131 5.24829 312.4 5.01239 311.72C4.77649 311.04 4.43117 310.426 3.99722 309.915C3.56326 309.403 3.04962 309.005 2.48722 308.744C1.92481 308.483 1.32525 308.364 0.724609 308.395V302.556C1.32525 302.587 1.92481 302.468 2.48722 302.207C3.04962 301.946 3.56326 301.548 3.99722 301.036C4.43117 300.525 4.77649 299.911 5.01239 299.231C5.24829 298.551 5.36989 297.82 5.36989 297.081C5.36989 296.342 5.24829 295.611 5.01239 294.931C4.77649 294.251 4.43117 293.637 3.99722 293.126C3.56326 292.614 3.04962 292.216 2.48722 291.955C1.92481 291.694 1.32525 291.575 0.724609 291.606V285.767C1.32525 285.798 1.92481 285.679 2.48722 285.418C3.04962 285.157 3.56326 284.759 3.99722 284.247C4.43117 283.736 4.77649 283.122 5.01239 282.442C5.24829 281.762 5.36989 281.031 5.36989 280.292C5.36989 279.553 5.24829 278.821 5.01239 278.142C4.77649 277.462 4.43117 276.848 3.99722 276.336C3.56326 275.825 3.04962 275.427 2.48722 275.166C1.92481 274.905 1.32525 274.786 0.724609 274.817V268.977C1.32525 269.009 1.92481 268.89 2.48722 268.629C3.04962 268.368 3.56326 267.97 3.99722 267.458C4.43117 266.947 4.77649 266.333 5.01239 265.653C5.24829 264.973 5.36989 264.242 5.36989 263.503C5.36989 262.764 5.24829 262.032 5.01239 261.353C4.77649 260.673 4.43117 260.059 3.99722 259.547C3.56326 259.036 3.04962 258.638 2.48722 258.377C1.92481 258.116 1.32525 257.997 0.724609 258.028V252.188C1.32525 252.22 1.92481 252.101 2.48722 251.84C3.04962 251.579 3.56326 251.181 3.99722 250.669C4.43117 250.158 4.77649 249.544 5.01239 248.864C5.24829 248.184 5.36989 247.453 5.36989 246.714C5.36989 245.975 5.24829 245.243 5.01239 244.564C4.77649 243.884 4.43117 243.27 3.99722 242.758C3.56326 242.247 3.04962 241.849 2.48722 241.588C1.92481 241.327 1.32525 241.208 0.724609 241.239V235.399C1.32525 235.431 1.92481 235.312 2.48722 235.051C3.04962 234.79 3.56326 234.392 3.99722 233.88C4.43117 233.369 4.77649 232.755 5.01239 232.075C5.24829 231.395 5.36989 230.664 5.36989 229.925C5.36989 229.186 5.24829 228.454 5.01239 227.775C4.77649 227.095 4.43117 226.481 3.99722 225.969C3.56326 225.458 3.04962 225.06 2.48722 224.799C1.92481 224.537 1.32525 224.419 0.724609 224.45V218.61C1.32525 218.642 1.92481 218.523 2.48722 218.262C3.04962 218.001 3.56326 217.603 3.99722 217.091C4.43117 216.58 4.77649 215.966 5.01239 215.286C5.24829 214.606 5.36989 213.875 5.36989 213.136C5.36989 212.397 5.24829 211.665 5.01239 210.986C4.77649 210.306 4.43117 209.692 3.99722 209.18C3.56326 208.669 3.04962 208.271 2.48722 208.01C1.92481 207.748 1.32525 207.63 0.724609 207.661V201.821C1.32525 201.852 1.92481 201.734 2.48722 201.473C3.04962 201.212 3.56326 200.814 3.99722 200.302C4.43117 199.791 4.77649 199.177 5.01239 198.497C5.24829 197.817 5.36989 197.086 5.36989 196.347C5.36989 195.608 5.24829 194.876 5.01239 194.197C4.77649 193.517 4.43117 192.903 3.99722 192.391C3.56326 191.88 3.04962 191.482 2.48722 191.221C1.92481 190.959 1.32525 190.841 0.724609 190.872V185.032C1.32525 185.063 1.92481 184.945 2.48722 184.684C3.04962 184.423 3.56326 184.025 3.99722 183.513C4.43117 183.002 4.77649 182.388 5.01239 181.708C5.24829 181.028 5.36989 180.297 5.36989 179.558C5.36989 178.819 5.24829 178.087 5.01239 177.408C4.77649 176.728 4.43117 176.114 3.99722 175.602C3.56326 175.091 3.04962 174.693 2.48722 174.431C1.92481 174.17 1.32525 174.052 0.724609 174.083V173V168.134V168H1.90828C2.10455 167.945 2.29798 167.873 2.48722 167.785C3.04962 167.524 3.56326 167.126 3.99722 166.614C4.43117 166.103 4.77649 165.489 5.01239 164.809C5.24829 164.129 5.36989 163.398 5.36989 162.659C5.36989 161.92 5.24829 161.189 5.01239 160.509C4.77649 159.829 4.43117 159.215 3.99722 158.704C3.56326 158.192 3.04962 157.794 2.48722 157.533C1.92481 157.272 1.32525 157.153 0.724609 157.184V151.345C1.32525 151.376 1.92481 151.257 2.48722 150.996C3.04962 150.735 3.56326 150.337 3.99722 149.825C4.43117 149.314 4.77649 148.7 5.01239 148.02C5.24829 147.34 5.36989 146.609 5.36989 145.87C5.36989 145.131 5.24829 144.4 5.01239 143.72C4.77649 143.04 4.43117 142.426 3.99722 141.915C3.56326 141.403 3.04962 141.005 2.48722 140.744C1.92481 140.483 1.32525 140.364 0.724609 140.395V134.556C1.32525 134.587 1.92481 134.468 2.48722 134.207C3.04962 133.946 3.56326 133.548 3.99722 133.036C4.43117 132.525 4.77649 131.911 5.01239 131.231C5.24829 130.551 5.36989 129.82 5.36989 129.081C5.36989 128.342 5.24829 127.61 5.01239 126.931C4.77649 126.251 4.43117 125.637 3.99722 125.126C3.56326 124.614 3.04962 124.216 2.48722 123.955C1.92481 123.694 1.32525 123.575 0.724609 123.606V117.767C1.32525 117.798 1.92481 117.679 2.48722 117.418C3.04962 117.157 3.56326 116.759 3.99722 116.247C4.43117 115.736 4.77649 115.122 5.01239 114.442C5.24829 113.762 5.36989 113.031 5.36989 112.292C5.36989 111.553 5.24829 110.821 5.01239 110.142C4.77649 109.462 4.43117 108.848 3.99722 108.336C3.56326 107.825 3.04962 107.427 2.48722 107.166C1.92481 106.905 1.32525 106.786 0.724609 106.817V100.977C1.32525 101.009 1.92481 100.89 2.48722 100.629C3.04962 100.368 3.56326 99.9697 3.99722 99.4582C4.43117 98.9468 4.77649 98.3327 5.01239 97.653C5.24829 96.9732 5.36989 96.2418 5.36989 95.5028C5.36989 94.7638 5.24829 94.0324 5.01239 93.3527C4.77649 92.6729 4.43117 92.0589 3.99722 91.5474C3.56326 91.036 3.04962 90.6377 2.48722 90.3766C1.92481 90.1156 1.32525 89.997 0.724609 90.0281V84.1885C1.32525 84.2196 1.92481 84.1011 2.48722 83.84C3.04962 83.5789 3.56326 83.1806 3.99722 82.6692C4.43117 82.1578 4.77649 81.5437 5.01239 80.864C5.24829 80.1842 5.36989 79.4528 5.36989 78.7138C5.36989 77.9747 5.24829 77.2434 5.01239 76.5636C4.77649 75.8839 4.43117 75.2698 3.99722 74.7584C3.56326 74.247 3.04962 73.8487 2.48722 73.5876C1.92481 73.3265 1.32525 73.2079 0.724609 73.2391V67.3994C1.32525 67.4306 1.92481 67.312 2.48722 67.051C3.04962 66.7899 3.56326 66.3916 3.99722 65.8802C4.43117 65.3687 4.77649 64.7547 5.01239 64.0749C5.24829 63.3952 5.36989 62.6638 5.36989 61.9247C5.36989 61.1857 5.24829 60.4544 5.01239 59.7746C4.77649 59.0949 4.43117 58.4808 3.99722 57.9694C3.56326 57.4579 3.04962 57.0597 2.48722 56.7986C1.92481 56.5375 1.32525 56.4189 0.724609 56.4501V50.6104C1.32525 50.6415 1.92481 50.523 2.48722 50.2619C3.04962 50.0008 3.56326 49.6026 3.99722 49.0911C4.43117 48.5797 4.77649 47.9656 5.01239 47.2859C5.24829 46.6061 5.36989 45.8747 5.36989 45.1357C5.36989 44.3967 5.24829 43.6653 5.01239 42.9856C4.77649 42.3058 4.43117 41.6918 3.99722 41.1803C3.56326 40.6689 3.04962 40.2706 2.48722 40.0095C1.92481 39.7485 1.32525 39.6299 0.724609 39.661V33.8214C1.32525 33.8525 1.92481 33.734 2.48722 33.4729C3.04962 33.2118 3.56326 32.8135 3.99722 32.3021C4.43117 31.7907 4.77649 31.1766 5.01239 30.4969C5.24829 29.8171 5.36989 29.0857 5.36989 28.3467C5.36989 27.6076 5.24829 26.8763 5.01239 26.1965C4.77649 25.5168 4.43117 24.9027 3.99722 24.3913C3.56326 23.8799 3.04962 23.4816 2.48722 23.2205C1.92481 22.9594 1.32525 22.8408 0.724609 22.872V17.0323C1.32525 17.0635 1.92481 16.9449 2.48722 16.6839C3.04962 16.4228 3.56326 16.0245 3.99722 15.5131C4.43117 15.0016 4.77649 14.3876 5.01239 13.7078C5.24829 13.0281 5.36989 12.2967 5.36989 11.5576C5.36989 10.8186 5.24829 10.0873 5.01239 9.40751C4.77649 8.72776 4.43117 8.11371 3.99722 7.60227C3.56326 7.09083 3.04962 6.69257 2.48722 6.43148C1.92481 6.17039 1.32525 6.05181 0.724609 6.08295V0H335.725V6.08295C334.576 6.1425 333.49 6.74533 332.695 7.76552C331.899 8.7857 331.455 10.1443 331.455 11.5576C331.455 12.9709 331.899 14.3296 332.695 15.3498C333.49 16.3699 334.576 16.9728 335.725 17.0323V22.872C334.545 22.872 333.413 23.4483 332.578 24.4741Z" fill="#FFEFEB"/>
</svg>
