<svg width="336" height="171" viewBox="0 0 336 171" fill="none" xmlns="http://www.w3.org/2000/svg">
<mask id="mask0_1_580" style="mask-type:alpha" maskUnits="userSpaceOnUse" x="0" y="0" width="336" height="171">
<path d="M331.275 26.3419C331.275 24.8912 331.744 23.4998 332.578 22.4741C333.413 21.4483 334.545 20.872 335.725 20.872V15.0323C334.576 14.9728 333.49 14.3699 332.695 13.3498C331.899 12.3296 331.455 10.9709 331.455 9.55764C331.455 8.14434 331.899 6.7857 332.695 5.76552C333.49 4.74533 334.576 4.1425 335.725 4.08295V0H0.724609L0.724616 4.08295C1.32526 4.05181 1.92481 4.17039 2.48722 4.43148C3.04963 4.69257 3.56326 5.09083 3.99722 5.60227C4.43118 6.11371 4.77649 6.72775 5.01239 7.40751C5.24829 8.08726 5.3699 8.81861 5.3699 9.55764C5.3699 10.2967 5.24829 11.0281 5.01239 11.7078C4.77649 12.3876 4.43118 13.0016 3.99722 13.5131C3.56326 14.0245 3.04963 14.4228 2.48722 14.6839C1.92481 14.9449 1.32526 15.0635 0.724616 15.0323V20.872C1.32526 20.8408 1.92481 20.9594 2.48722 21.2205C3.04963 21.4816 3.56326 21.8799 3.99722 22.3913C4.43118 22.9027 4.77649 23.5168 5.01239 24.1965C5.24829 24.8763 5.3699 25.6076 5.3699 26.3467C5.3699 27.0857 5.24829 27.8171 5.01239 28.4969C4.77649 29.1766 4.43118 29.7907 3.99722 30.3021C3.56326 30.8135 3.04963 31.2118 2.48722 31.4729C1.92481 31.734 1.32526 31.8525 0.724616 31.8214V37.661C1.32526 37.6299 1.92481 37.7485 2.48722 38.0095C3.04963 38.2706 3.56326 38.6689 3.99722 39.1803C4.43118 39.6918 4.77649 40.3058 5.01239 40.9856C5.24829 41.6653 5.3699 42.3967 5.3699 43.1357C5.3699 43.8747 5.24829 44.6061 5.01239 45.2859C4.77649 45.9656 4.43118 46.5797 3.99722 47.0911C3.56326 47.6026 3.04963 48.0008 2.48722 48.2619C1.92481 48.523 1.32526 48.6415 0.724616 48.6104V54.4501C1.32526 54.4189 1.92481 54.5375 2.48722 54.7986C3.04963 55.0597 3.56326 55.4579 3.99722 55.9694C4.43118 56.4808 4.77649 57.0949 5.01239 57.7746C5.24829 58.4544 5.3699 59.1857 5.3699 59.9247C5.3699 60.6638 5.24829 61.3952 5.01239 62.0749C4.77649 62.7547 4.43118 63.3687 3.99722 63.8802C3.56326 64.3916 3.04963 64.7899 2.48722 65.051C1.92481 65.312 1.32526 65.4306 0.724616 65.3994V71.2391C1.32526 71.2079 1.92481 71.3265 2.48722 71.5876C3.04963 71.8487 3.56326 72.247 3.99722 72.7584C4.43118 73.2698 4.77649 73.8839 5.01239 74.5636C5.24829 75.2434 5.3699 75.9747 5.3699 76.7138C5.3699 77.4528 5.24829 78.1842 5.01239 78.864C4.77649 79.5437 4.43118 80.1578 3.99722 80.6692C3.56326 81.1806 3.04963 81.5789 2.48722 81.84C1.92481 82.1011 1.32526 82.2196 0.724616 82.1885V88.0281C1.32526 87.997 1.92481 88.1156 2.48722 88.3766C3.04963 88.6377 3.56326 89.036 3.99722 89.5474C4.43118 90.0589 4.77649 90.6729 5.01239 91.3527C5.24829 92.0324 5.3699 92.7638 5.3699 93.5028C5.3699 94.2418 5.24829 94.9732 5.01239 95.653C4.77649 96.3327 4.43118 96.9468 3.99722 97.4582C3.56326 97.9697 3.04963 98.3679 2.48722 98.629C1.92481 98.8901 1.32526 99.0086 0.724616 98.9775V104.817C1.32526 104.786 1.92481 104.905 2.48722 105.166C3.04963 105.427 3.56326 105.825 3.99722 106.336C4.43118 106.848 4.77649 107.462 5.01239 108.142C5.24829 108.821 5.3699 109.553 5.3699 110.292C5.3699 111.031 5.24829 111.762 5.01239 112.442C4.77649 113.122 4.43118 113.736 3.99722 114.247C3.56326 114.759 3.04963 115.157 2.48722 115.418C1.92481 115.679 1.32526 115.798 0.724616 115.767V121.606C1.32526 121.575 1.92481 121.694 2.48722 121.955C3.04963 122.216 3.56326 122.614 3.99722 123.126C4.43118 123.637 4.77649 124.251 5.01239 124.931C5.24829 125.61 5.3699 126.342 5.3699 127.081C5.3699 127.82 5.24829 128.551 5.01239 129.231C4.77649 129.911 4.43118 130.525 3.99722 131.036C3.56326 131.548 3.04963 131.946 2.48722 132.207C1.92481 132.468 1.32526 132.587 0.724616 132.556V138.395C1.32526 138.364 1.92481 138.483 2.48722 138.744C3.04963 139.005 3.56326 139.403 3.99722 139.915C4.43118 140.426 4.77649 141.04 5.01239 141.72C5.24829 142.4 5.3699 143.131 5.3699 143.87C5.3699 144.609 5.24829 145.34 5.01239 146.02C4.77649 146.7 4.43118 147.314 3.99722 147.825C3.56326 148.337 3.04963 148.735 2.48722 148.996C1.92481 149.257 1.32526 149.376 0.724616 149.345V155.184C1.32526 155.153 1.92481 155.272 2.48722 155.533C3.04963 155.794 3.56326 156.192 3.99722 156.704C4.43118 157.215 4.77649 157.829 5.01239 158.509C5.24829 159.189 5.3699 159.92 5.3699 160.659C5.3699 161.398 5.24829 162.129 5.01239 162.809C4.77649 163.489 4.43118 164.103 3.99722 164.614C3.56326 165.126 3.04963 165.524 2.48722 165.785C1.92481 166.046 1.32526 166.165 0.724616 166.134V171H335.725V166.134C334.576 166.074 333.49 165.471 332.695 164.451C331.899 163.431 331.455 162.072 331.455 160.659C331.455 159.246 331.899 157.887 332.695 156.867C333.49 155.847 334.576 155.244 335.725 155.184V149.345C334.576 149.285 333.49 148.682 332.695 147.662C331.899 146.642 331.455 145.283 331.455 143.87C331.455 142.457 331.899 141.098 332.695 140.078C333.49 139.058 334.576 138.455 335.725 138.395V132.556C334.576 132.496 333.49 131.893 332.695 130.873C331.899 129.853 331.455 128.494 331.455 127.081C331.455 125.668 331.899 124.309 332.695 123.289C333.49 122.269 334.576 121.666 335.725 121.606V115.767C334.576 115.707 333.49 115.104 332.695 114.084C331.899 113.064 331.455 111.705 331.455 110.292C331.455 108.879 331.899 107.52 332.695 106.5C333.49 105.48 334.576 104.877 335.725 104.817V98.9775C334.576 98.9179 333.49 98.3151 332.695 97.2949C331.899 96.2747 331.455 94.9161 331.455 93.5028C331.455 92.0895 331.899 90.7309 332.695 89.7107C333.49 88.6905 334.576 88.0877 335.725 88.0281V82.1885C334.576 82.1289 333.49 81.5261 332.695 80.5059C331.899 79.4857 331.455 78.1271 331.455 76.7138C331.455 75.3005 331.899 73.9418 332.695 72.9216C333.49 71.9015 334.576 71.2986 335.725 71.2391V65.3994C334.576 65.3399 333.49 64.737 332.695 63.7169C331.899 62.6967 331.455 61.338 331.455 59.9247C331.455 58.5114 331.899 57.1528 332.695 56.1326C333.49 55.1124 334.576 54.5096 335.725 54.4501V48.6104C334.576 48.5508 333.49 47.948 332.695 46.9278C331.899 45.9076 331.455 44.549 331.455 43.1357C331.455 41.7224 331.899 40.3638 332.695 39.3436C333.49 38.3234 334.576 37.7206 335.725 37.661V31.8214C334.544 31.8188 333.412 31.2404 332.578 30.2131C331.744 29.1857 331.275 27.7934 331.275 26.3419Z" fill="#FFEFEB"/>
</mask>
<g mask="url(#mask0_1_580)">
<rect x="0.724609" width="335" height="72" fill="#F8DCDB"/>
</g>
</svg>
