<svg width="139" height="133" viewBox="0 0 139 133" fill="none" xmlns="http://www.w3.org/2000/svg">
<path fill-rule="evenodd" clip-rule="evenodd" d="M128.045 82.7252C128.369 80.956 128.288 79.4567 127.915 78.178C127.712 77.4843 127.401 76.8773 127.032 76.3287C126.028 74.8397 124.502 73.8872 122.803 73.4026C122.042 73.1843 121.234 73.0773 120.415 73.0663C115.551 73.0023 110.168 76.2843 109.331 82.0825C108.517 88.1318 113.23 92.593 118.152 93.1564C122.752 93.6808 127.733 90.9422 128.044 82.725L128.045 82.7252ZM127.067 82.7494C126.41 89.7777 122.452 92.2339 118.567 91.6211C114.555 90.9904 110.849 87.1753 111.765 82.1974C112.52 77.8771 116.497 75.5336 120.129 75.5595C121.28 75.5695 122.4 75.7897 123.376 76.2965C124.004 76.621 124.587 77.0372 125.082 77.5771C125.876 78.4459 126.491 79.5572 126.807 81.0064C126.924 81.5502 127.025 82.1207 127.067 82.7493L127.067 82.7494Z" fill="#482F28" fill-opacity="0.1"/>
<path fill-rule="evenodd" clip-rule="evenodd" d="M20.6207 58.707C20.9441 56.8683 20.7927 55.2626 20.299 53.8695C20.051 53.1692 19.6932 52.5367 19.2777 51.9601C18.3849 50.7195 17.1566 49.7713 15.7704 49.0925C14.8168 48.625 13.7738 48.3022 12.7023 48.1204C7.03874 47.1526 0.648969 49.8987 -0.225276 55.9254C-1.00588 61.66 3.75468 66.5445 8.9809 67.9303C11.5108 68.6008 14.1213 68.4691 16.2345 67.2864C18.6184 65.9525 20.4425 63.2555 20.6204 58.7069L20.6207 58.707ZM19.6448 58.7333C19.2757 62.74 17.7108 65.1148 15.5629 66.2057C13.7987 67.104 11.6799 67.0796 9.65361 66.4524C5.2973 65.1057 1.31909 60.8981 2.20493 56.0424C2.97735 51.6009 7.75375 49.8869 11.9401 50.5695C13.1887 50.7733 14.4006 51.1644 15.4686 51.7866C16.1612 52.1922 16.8027 52.6696 17.3582 53.251C18.2791 54.2143 18.995 55.3973 19.3529 56.8823C19.4927 57.463 19.6072 58.0704 19.6446 58.7329L19.6448 58.7333Z" fill="#482F28" fill-opacity="0.1"/>
<path fill-rule="evenodd" clip-rule="evenodd" d="M68.4747 48.2791C68.798 46.4351 68.6408 44.8257 68.1401 43.4254C67.8888 42.7248 67.5299 42.094 67.1096 41.512C66.2128 40.274 64.9808 39.3242 63.5924 38.6433C62.6358 38.1712 61.5934 37.8454 60.5223 37.6595C54.8193 36.6615 48.3883 39.3875 47.5141 45.4197C46.7327 51.1465 51.5078 56.0472 56.7571 57.4556C59.2923 58.1381 61.9093 58.0221 64.0313 56.8627C66.4434 55.5433 68.2958 52.8499 68.4746 48.2792L68.4747 48.2791ZM67.4974 48.3059C67.1281 52.3277 65.5441 54.6975 63.3733 55.7752C61.599 56.6561 59.4711 56.6168 57.4358 55.9815C53.0565 54.6118 49.0577 50.3901 49.9447 45.537C50.7156 41.0903 55.5318 39.4025 59.7474 40.1074C61.0012 40.3179 62.2195 40.7138 63.2918 41.3401C63.9877 41.7461 64.6343 42.2246 65.1935 42.8077C66.1217 43.7741 66.8436 44.9608 67.2038 46.4482C67.3461 47.0321 67.461 47.6408 67.4977 48.3063L67.4974 48.3059Z" fill="#482F28" fill-opacity="0.1"/>
<path fill-rule="evenodd" clip-rule="evenodd" d="M109.197 94.092C109.434 92.217 109.224 90.6321 108.683 89.2984C108.226 88.174 107.504 87.2683 106.657 86.5265C105.884 85.851 104.972 85.3446 103.994 84.9854C102.996 84.6203 101.913 84.4229 100.814 84.3805C95.5917 84.1862 89.9163 87.4186 89.0856 93.2601C88.2991 99.126 93.1787 102.409 98.4351 102.667C103.719 102.923 109.313 100.178 109.197 94.0923L109.197 94.092ZM108.218 94.1602C108.022 99.3748 103.194 101.56 98.7192 101.152C94.5205 100.766 90.5879 98.0849 91.4594 93.3741C92.2329 88.9882 96.5177 86.7141 100.445 86.8742C101.257 86.9092 102.052 87.0377 102.809 87.2724C103.913 87.6133 104.936 88.151 105.774 88.9624C106.428 89.5955 107.001 90.3489 107.417 91.2813C107.793 92.1238 108.092 93.061 108.218 94.16L108.218 94.1602Z" fill="#482F28" fill-opacity="0.1"/>
<path fill-rule="evenodd" clip-rule="evenodd" d="M66.719 105.269L66.151 104.496C64.7195 102.444 63.2857 99.1523 61.6337 95.2736C60.3784 92.3254 59.0169 89.0412 57.4682 85.6918C56.3087 83.1862 55.042 80.6426 53.6495 78.1772C51.4957 74.3598 49.033 70.7297 46.2406 67.6606C41.5234 62.4775 35.8089 58.919 28.8275 58.7179L27.9962 58.6863L27.6236 59.3721C22.4906 69.0374 27.2489 80.5331 35.5356 89.6332C44.4154 99.3853 57.2308 106.351 65.371 105.412L66.719 105.269ZM63.9344 104.615C62.527 102.558 61.0265 99.6155 59.3935 96.1934C58.0181 93.3107 56.534 90.0941 54.9162 86.7893C53.7195 84.3497 52.4514 81.8637 51.0858 79.4393C49.0131 75.7567 46.7259 72.2107 44.0811 69.2176C40.0671 64.6715 35.2909 61.3632 29.3588 60.8405C24.9671 69.7138 29.5035 80.1846 36.9014 88.654C44.8049 97.704 56.0602 104.509 63.9345 104.615L63.9344 104.615Z" fill="#482F28" fill-opacity="0.1"/>
<path fill-rule="evenodd" clip-rule="evenodd" d="M129.719 68.6786C120.475 67.7947 111.859 69.3423 103.957 70.4238C97.4532 71.3167 91.4229 71.8885 85.9127 70.6513C80.5353 69.4471 75.6396 66.5415 71.2851 60.5502L70.9763 60.1142L71.2477 59.6176C76 50.7226 86.2626 47.2284 97.2604 47.9304C100.805 48.1574 104.429 48.8132 107.944 49.887C111.297 50.911 114.554 52.3053 117.56 54.0262C119.95 55.3944 122.183 56.9692 124.178 58.7219C127.233 61.4088 129.736 64.5119 131.452 67.9286L131.992 68.9364L130.494 68.757C130.263 68.731 130.034 68.7086 129.802 68.6867L129.749 68.7316L129.719 68.6786ZM129.142 67.7259C127.4 64.9816 125.081 62.5165 122.399 60.3467C120.433 58.7558 118.263 57.3322 115.964 56.0808C113.079 54.5109 109.983 53.2226 106.811 52.2552C103.511 51.2465 100.133 50.5713 96.8122 50.318C87.1699 49.5811 78.0402 52.2955 73.5234 59.8535C77.3655 65.1913 81.7142 67.8759 86.5396 69.0502C91.8029 70.3288 97.6049 69.8475 103.867 69.1009C111.649 68.1721 120.123 66.8239 129.142 67.7259L129.142 67.7259Z" fill="#482F28" fill-opacity="0.1"/>
<path fill-rule="evenodd" clip-rule="evenodd" d="M87.6887 11.5848L86.5804 11.6981C83.2172 11.9857 78.5999 11.4531 73.2792 10.6888C69.1504 10.0991 64.6151 9.35163 59.9224 8.69761C56.351 8.2018 52.6908 7.7646 49.0595 7.47825C43.232 7.01789 37.4787 6.96059 32.2768 7.63861C23.1302 8.83154 15.6595 12.3293 12.143 19.9982L12.0874 20.6687C13.2253 24.2681 16.2552 27.0336 20.5736 28.9431C27.85 32.1571 38.8279 32.9525 49.9157 31.4755C65.4262 29.4079 81.1124 22.9154 87.0402 12.6859L87.6887 11.5848ZM85.4681 13.4402C82.1005 13.6718 77.7048 13.3441 72.7334 12.7783C68.5734 12.3047 64.0009 11.6752 59.2892 11.0951C55.7555 10.66 52.1434 10.249 48.5632 9.9647C42.9569 9.51977 37.4355 9.37206 32.426 9.97605C24.4274 10.9358 17.7602 13.7615 14.4729 20.3081C15.8109 24.228 19.8586 26.9381 25.318 28.5973C32.0369 30.6369 40.8801 31.0624 49.8195 29.9996C64.3199 28.2772 79.0899 22.6439 85.4681 13.4402Z" fill="#482F28" fill-opacity="0.1"/>
<path fill-rule="evenodd" clip-rule="evenodd" d="M-43.27 -25.9786C-38.7884 -20.0822 -34.2851 -14.0011 -29.5484 -7.91152C-27.6983 -5.53178 -25.8102 -3.15286 -23.8736 -0.781656C-21.0072 2.72708 -18.0601 6.2292 -14.9875 9.68309C-0.109483 26.4055 16.9681 42.4305 37.7654 55.5613C58.7272 68.7935 83.6038 78.9745 114.33 83.5954C114.851 83.6799 115.391 83.3672 115.532 82.8995C115.675 82.4342 115.367 81.9856 114.845 81.8999C84.7814 76.6642 60.6526 66.0468 40.3875 52.5737C20.2945 39.2156 4.20992 22.8983 -10.3979 6.40324C-15.4893 0.652586 -20.439 -5.0933 -25.2868 -10.766C-30.3176 -16.6512 -35.305 -22.4005 -40.1664 -28.0391C-40.7397 -28.746 -41.9005 -28.8608 -42.7581 -28.2923C-43.6137 -27.7231 -43.8442 -26.6878 -43.2709 -25.9809L-43.27 -25.9786Z" fill="#482F28" fill-opacity="0.1"/>
<path fill-rule="evenodd" clip-rule="evenodd" d="M3.26243 26.0368C3.35531 27.1244 3.33839 28.3057 3.35399 29.5672C3.36288 30.3339 3.36809 31.1251 3.40167 31.9361C3.45494 33.2841 3.56548 34.6787 3.6497 36.0964C3.84682 39.3842 4.06841 42.7776 4.47247 45.8832C4.89877 49.1498 5.55089 52.088 6.66226 54.244C6.75903 54.4558 7.04306 54.5461 7.29411 54.4405C7.54663 54.3345 7.67323 54.0774 7.57648 53.8656C6.97809 52.3599 6.64281 50.5074 6.44689 48.4445C6.1701 45.5359 6.20764 42.2295 6.24758 38.9099C6.27581 36.7265 6.37127 34.5389 6.27428 32.4716C6.21823 31.2704 6.09558 30.1169 5.91899 29.0262C5.71712 27.7961 5.41945 26.6689 5.10545 25.6288C5.0213 25.188 4.53975 24.9208 4.03117 25.033C3.52337 25.1477 3.17827 25.5959 3.26242 26.0367L3.26243 26.0368Z" fill="#482F28" fill-opacity="0.1"/>
<path fill-rule="evenodd" clip-rule="evenodd" d="M85.9162 76.9644C86.4385 77.4115 86.9033 77.9048 87.4128 78.409C87.6073 78.6018 87.7988 78.7955 88.0005 78.9861C88.2958 79.2639 88.5915 79.5485 88.9037 79.8293C90.3756 81.1409 91.8979 82.5653 93.2621 84.2634C94.6508 85.9894 95.9488 87.8974 97.0729 90.0278C97.1665 90.2447 97.4476 90.3359 97.7016 90.2349C97.9541 90.1342 98.0855 89.877 97.9931 89.6639C96.7416 86.0322 95.0501 82.8504 93.0015 80.2283C92.3803 79.4323 91.7345 78.6862 91.0294 78.0168C90.8473 77.8434 90.658 77.6776 90.459 77.5217C90.052 77.2017 89.6341 76.9082 89.1954 76.6456C88.5008 76.2337 87.7963 75.9039 87.0767 75.5923C86.6736 75.3421 86.0857 75.4445 85.7642 75.8241C85.4441 76.2033 85.5109 76.7122 85.9162 76.9645L85.9162 76.9644Z" fill="#482F28" fill-opacity="0.1"/>
<path fill-rule="evenodd" clip-rule="evenodd" d="M20.8641 42.7963C21.2485 44.7263 21.6823 46.625 22.2153 48.4835C22.7571 50.3762 23.3705 52.232 24.0747 54.0259C24.9447 56.241 25.9518 58.3633 26.9921 60.4171C28.641 63.672 30.4431 66.7255 32.2676 69.5717C41.2771 83.6147 51.0895 92.4157 51.0895 92.4157C51.2664 92.5825 51.574 92.5783 51.7797 92.4075C51.9838 92.2371 52.0068 91.964 51.8307 91.7997C51.8307 91.7997 42.6127 82.7033 34.3235 68.4912C32.6548 65.6287 31.0364 62.5514 29.5049 59.3154C28.5416 57.279 27.6412 55.1673 26.7422 53.0185C26.0123 51.2762 25.2837 49.5118 24.6005 47.7087C23.9276 45.934 23.2647 44.1452 22.6878 42.3043C22.5775 41.8715 22.0802 41.631 21.5751 41.7654C21.0723 41.9017 20.7533 42.3624 20.864 42.7964L20.8641 42.7963Z" fill="#482F28" fill-opacity="0.1"/>
<path fill-rule="evenodd" clip-rule="evenodd" d="M53.1103 62.6913C53.1103 62.6913 55.1008 62.2462 58.7705 61.7691C60.3736 61.5614 62.2906 61.3598 64.5034 61.1521C66.5564 60.9579 68.8601 60.7455 71.4009 60.6105C74.5092 60.4419 77.9706 60.3453 81.7543 60.4213C89.8216 60.5852 99.3354 61.4694 109.996 63.7548C110.25 63.8135 110.531 63.6755 110.622 63.4471C110.712 63.2163 110.579 62.9813 110.325 62.9201C97.0416 59.4808 85.4517 58.2947 76.2121 58.1859C72.721 58.1444 69.5648 58.2443 66.7807 58.4594C65.96 58.5241 65.1694 58.5987 64.4151 58.688C62.1322 58.9582 60.1576 59.2934 58.5165 59.6274C54.6893 60.401 52.6589 61.1367 52.6589 61.1367C52.1582 61.2847 51.8539 61.7518 51.9777 62.1818C52.1026 62.6101 52.6109 62.8403 53.1098 62.6915L53.1103 62.6913Z" fill="#482F28" fill-opacity="0.1"/>
<path fill-rule="evenodd" clip-rule="evenodd" d="M31.602 50.0384C31.602 50.0384 32.4161 50.3837 33.9114 50.7644C34.5763 50.9344 35.3689 51.1158 36.2882 51.2378C37.1684 51.3568 38.162 51.4042 39.2323 51.4322C40.6033 51.4648 42.1038 51.421 43.6957 51.2958C47.4412 50.999 51.66 50.2309 55.8222 48.5769C56.0797 48.487 56.2261 48.2375 56.1471 48.0161C56.0685 47.796 55.7957 47.69 55.5364 47.779C52.303 48.7185 49.1069 49.1089 46.152 49.233C42.971 49.3664 40.114 49.0661 37.7911 48.8573C36.7487 48.7648 35.8131 48.7037 35.0218 48.6461C33.286 48.5193 32.2553 48.4546 32.2553 48.4546C31.7722 48.3325 31.2332 48.5892 31.0535 49.0263C30.8743 49.4647 31.1193 49.9162 31.6024 50.0383L31.602 50.0384Z" fill="#482F28" fill-opacity="0.1"/>
<path fill-rule="evenodd" clip-rule="evenodd" d="M-7.7686 15.0707C-7.7686 15.0707 -5.9001 16.7162 -1.319 18.6322C0.543663 19.4117 2.86636 20.2276 5.70779 20.9651C6.62467 21.2038 7.59755 21.4226 8.62831 21.6277C12.007 22.2945 15.9816 22.8181 20.5905 23.1349C31.7243 23.8975 46.6011 23.3624 65.9971 20.0301C66.3745 19.9731 66.6545 19.6608 66.6219 19.3311C66.5901 19.0039 66.2587 18.7848 65.8825 18.8402C50.7191 20.789 38.4259 21.105 28.5579 20.5872C23.5961 20.3239 19.2656 19.8331 15.4869 19.2533C12.2801 18.7631 9.49339 18.1686 7.05635 17.6075C4.34862 16.9847 2.08782 16.3858 0.251684 15.7974C-4.04838 14.4199 -5.98313 13.2601 -5.98313 13.2601C-6.51081 12.868 -7.33893 12.9554 -7.83048 13.4554C-8.32164 13.9566 -8.29438 14.6795 -7.76708 15.0703L-7.7686 15.0707Z" fill="#482F28" fill-opacity="0.1"/>
</svg>
