<svg width="110" height="143" viewBox="0 0 110 143" fill="none" xmlns="http://www.w3.org/2000/svg">
<path fill-rule="evenodd" clip-rule="evenodd" d="M63.0708 12.4176C64.8799 12.5041 66.374 12.8953 67.6148 13.5012C68.2878 13.8306 68.862 14.2389 69.3714 14.6857C70.7536 15.9015 71.5405 17.47 71.8395 19.0944C71.9746 19.8221 71.9929 20.5683 71.9139 21.3034C71.4431 25.6718 67.5611 29.7921 61.657 29.3065C55.5035 28.7482 51.5499 23.5789 51.5265 19.053C51.5066 14.8238 54.7997 10.9473 63.071 12.418L63.0708 12.4176ZM62.9389 13.288C55.8215 12.3795 52.9241 15.4002 53.1111 19.0081C53.302 22.7346 56.7188 26.8637 61.8094 27.1038C66.2233 27.3472 69.0098 24.2859 69.3832 21.0292C69.4997 19.9967 69.4022 18.9474 69.0016 17.965C68.7454 17.3337 68.3923 16.7234 67.9055 16.1653C67.1219 15.2703 66.0757 14.4823 64.6576 13.8918C64.1254 13.671 63.5646 13.4586 62.9391 13.2878L62.9389 13.288Z" fill="#482F28" fill-opacity="0.1"/>
<path fill-rule="evenodd" clip-rule="evenodd" d="M75.3009 113.702C77.1795 113.804 78.7725 114.281 80.1147 115.02C80.7894 115.391 81.384 115.846 81.9163 116.34C83.0618 117.404 83.8772 118.705 84.4051 120.09C84.7689 121.044 84.9778 122.046 85.0422 123.044C85.3894 128.32 81.9339 133.456 75.7965 132.955C69.9622 132.433 65.5894 127.132 64.7752 122.158C64.3812 119.751 64.8004 117.442 66.2184 115.802C67.8176 113.952 70.7218 112.893 75.3009 113.702L75.3009 113.702ZM75.1672 114.57C71.1102 114.047 68.5575 114.943 67.2278 116.633C66.1333 118.021 65.9247 119.923 66.3305 121.871C67.2014 126.057 70.9817 130.514 75.9465 130.755C80.4837 131.009 82.7272 127.098 82.5033 123.205C82.4363 122.044 82.1776 120.876 81.6714 119.787C81.3409 119.081 80.933 118.405 80.4112 117.784C79.5469 116.754 78.4397 115.862 76.9905 115.225C76.4238 114.976 75.8275 114.745 75.1675 114.57L75.1672 114.57Z" fill="#482F28" fill-opacity="0.1"/>
<path fill-rule="evenodd" clip-rule="evenodd" d="M91.0278 73.0754C92.9119 73.1785 94.5079 73.6618 95.8565 74.4082C96.5312 74.7823 97.124 75.2378 97.6612 75.7379C98.8036 76.8043 99.6202 78.1093 100.15 79.4972C100.518 80.4541 100.73 81.4565 100.799 82.455C101.172 87.7728 97.7318 92.9496 91.5889 92.4481C85.7623 91.9286 81.375 86.6107 80.5405 81.6117C80.1351 79.1969 80.5393 76.8789 81.9349 75.2261C83.5227 73.3475 86.4264 72.2626 91.0278 73.0755L91.0278 73.0754ZM90.8935 73.9446C86.8214 73.4191 84.2716 74.3326 82.9526 76.0465C81.8744 77.4474 81.6798 79.3607 82.0928 81.3179C82.9842 85.5298 86.7762 90.0082 91.7387 90.2472C96.2809 90.5037 98.5024 86.5515 98.2594 82.6276C98.1864 81.4604 97.9235 80.2855 97.4136 79.1922C97.0831 78.4828 96.6746 77.8021 96.1517 77.1775C95.2849 76.1408 94.1748 75.242 92.7235 74.6029C92.1537 74.3512 91.5562 74.1188 90.8932 73.9442L90.8935 73.9446Z" fill="#482F28" fill-opacity="0.1"/>
<path fill-rule="evenodd" clip-rule="evenodd" d="M49.5995 26.8745C51.5052 27.0611 53.0709 27.5866 54.3483 28.3547C55.4252 29.0036 56.2537 29.8425 56.9042 30.7583C57.4962 31.5948 57.9036 32.5185 58.1562 33.4703C58.4123 34.442 58.4911 35.4532 58.4128 36.4459C58.0331 41.1627 54.1686 45.5553 48.2216 45.0555C42.2549 44.511 39.5002 39.4437 39.8199 34.6833C40.1446 29.8982 43.5116 25.4746 49.5993 26.8742L49.5995 26.8745ZM49.4235 27.7363C44.1747 26.8021 41.453 30.6591 41.3704 34.7515C41.295 38.5924 43.5502 42.6836 48.3683 42.9062C52.8501 43.1474 55.6009 39.7956 55.8724 36.2455C55.9265 35.5116 55.8852 34.772 55.7332 34.0448C55.5129 32.9837 55.0864 31.9535 54.3651 31.0308C53.8025 30.3105 53.1103 29.637 52.2214 29.0659C51.4182 28.55 50.5115 28.0834 49.4238 27.7361L49.4235 27.7363Z" fill="#482F28" fill-opacity="0.1"/>
<path fill-rule="evenodd" clip-rule="evenodd" d="M33.7091 62.5274L34.4212 63.2003C36.321 64.9186 39.4628 66.9027 43.1688 69.207C45.9858 70.9582 49.128 72.876 52.3149 74.9752C54.6987 76.5464 57.109 78.2217 59.4271 79.9929C63.0165 82.7334 66.3842 85.7105 69.1534 88.8633C73.8298 94.189 76.7682 100.062 76.2021 106.354L76.1424 107.104L75.414 107.292C65.1617 109.829 54.1625 103.123 45.9524 93.7683C37.1541 83.7441 31.5816 70.7902 33.4176 63.7036L33.7091 62.5274ZM34.0584 65.1592C35.9656 66.8568 38.75 68.8263 42.0004 71.0164C44.7387 72.8612 47.7995 74.8743 50.9341 77.0259C53.2478 78.6163 55.6002 80.2807 57.8801 82.019C61.3434 84.6582 64.6461 87.4603 67.3553 90.4649C71.4706 95.0255 74.2614 100.005 74.133 105.426C64.7561 107.468 54.7597 101.179 47.0841 92.7543C38.8822 83.7533 33.2987 72.23 34.0581 65.159L34.0584 65.1592Z" fill="#482F28" fill-opacity="0.1"/>
<path fill-rule="evenodd" clip-rule="evenodd" d="M77.3278 13.9046C77.1972 22.3681 74.698 29.7522 72.7445 36.5967C71.134 42.229 69.8975 47.506 70.5317 52.7024C71.1473 57.7729 73.5217 62.7744 79.049 67.9482L79.4522 68.3174L79.9798 68.1802C89.4199 65.8191 94.0516 57.3752 94.5576 47.3799C94.7199 44.158 94.4612 40.7741 93.7712 37.3991C93.1135 34.1795 92.074 30.9661 90.6795 27.9086C89.5708 25.4776 88.2376 23.144 86.6999 20.9845C84.3424 17.6773 81.5069 14.7759 78.2703 12.5126L77.3193 11.815L77.3345 13.1937C77.3352 13.4059 77.3324 13.6163 77.3289 13.8279L77.278 13.8659L77.3278 13.9046ZM78.2195 14.6239C80.7791 16.7675 82.9952 19.3681 84.8755 22.231C86.254 24.3301 87.4425 26.5758 88.4442 28.9001C89.7007 31.817 90.6517 34.8632 91.2726 37.9087C91.9207 41.0781 92.2261 44.2462 92.1148 47.2729C91.7929 56.0621 88.0674 63.6578 79.9936 66.0926C75.0651 61.5167 72.8521 57.052 72.2057 52.482C71.5028 47.4978 72.6236 42.406 74.0609 36.9589C75.848 30.1895 78.1316 22.8904 78.2195 14.6235L78.2195 14.6239Z" fill="#482F28" fill-opacity="0.1"/>
<path fill-rule="evenodd" clip-rule="evenodd" d="M129.921 63.6776L129.685 64.6457C129.027 67.5956 129.053 71.8428 129.234 76.769C129.371 80.5909 129.622 84.8105 129.761 89.1511C129.865 92.4541 129.901 95.8241 129.788 99.1361C129.609 104.451 129.033 109.614 127.781 114.127C125.579 122.062 121.251 128.006 113.175 129.522L112.497 129.429C109.013 127.644 106.574 124.343 105.135 120.07C102.713 112.871 103.123 102.873 105.824 93.2611C109.603 79.8149 117.838 67.1533 128.746 64.0238L129.921 63.6776ZM127.816 65.2707C127.214 68.2364 127.059 72.2416 127.079 76.8128C127.096 80.6381 127.224 84.8658 127.288 89.2076C127.335 92.4639 127.35 95.7853 127.241 99.0511C127.07 104.165 126.611 109.14 125.454 113.496C123.612 120.453 120.046 125.82 113.121 127.37C109.338 125.338 107.066 121.137 106.003 115.896C104.698 109.446 105.244 101.438 107.293 93.6614C110.615 81.0461 117.887 69.0218 127.816 65.2707Z" fill="#482F28" fill-opacity="0.1"/>
<path fill-rule="evenodd" clip-rule="evenodd" d="M153.165 188.913C147.748 183.646 142.148 178.32 136.564 172.784C134.383 170.621 132.206 168.424 130.042 166.186C126.84 162.873 123.654 159.49 120.529 156.004C105.403 139.126 91.2183 120.427 80.3435 99.0152C69.385 77.4342 61.9156 52.9981 60.6628 24.5091C60.6354 24.0247 61.0082 23.6084 61.4926 23.5811C61.9746 23.5526 62.3904 23.9237 62.419 24.4087C64.3609 52.4358 72.35 76.2952 83.6265 97.3039C94.8067 118.134 109.394 136.006 124.322 152.594C129.526 158.375 134.741 164.029 139.894 169.577C145.24 175.333 150.455 181.021 155.572 186.573C156.218 187.237 156.205 188.3 155.541 188.947C154.876 189.592 153.813 189.578 153.168 188.914L153.165 188.913Z" fill="#482F28" fill-opacity="0.1"/>
<path fill-rule="evenodd" clip-rule="evenodd" d="M106.135 136.192C105.055 135.877 103.869 135.641 102.607 135.359C101.839 135.188 101.047 135.015 100.238 134.812C98.8927 134.477 97.5071 134.082 96.0954 133.705C92.822 132.829 89.4453 131.908 86.3772 130.886C83.1502 129.809 80.2771 128.6 78.2386 127.146C78.0369 127.015 77.9777 126.741 78.1111 126.539C78.2452 126.336 78.5168 126.277 78.7184 126.409C80.1616 127.265 81.9815 127.959 84.0274 128.573C86.912 129.44 90.2301 130.11 93.5615 130.781C95.753 131.22 97.956 131.6 100.017 132.127C101.215 132.432 102.358 132.788 103.431 133.178C104.642 133.62 105.739 134.127 106.747 134.629C107.179 134.798 107.394 135.286 107.226 135.717C107.055 136.148 106.568 136.361 106.135 136.192L106.135 136.192Z" fill="#482F28" fill-opacity="0.1"/>
<path fill-rule="evenodd" clip-rule="evenodd" d="M64.2037 51.3603C63.8131 50.7976 63.3698 50.2765 62.9206 49.713C62.7487 49.498 62.5757 49.2853 62.4068 49.0642C62.1608 48.7407 61.9082 48.4154 61.661 48.0762C60.5084 46.4794 59.2483 44.8135 57.6965 43.2309C56.1195 41.6204 54.35 40.0525 52.3384 38.5928C52.1313 38.4629 52.0709 38.1919 52.2001 37.986C52.3287 37.7813 52.601 37.7184 52.8045 37.8465C56.3067 39.7396 59.3095 41.9309 61.7121 44.3228C62.4415 45.0483 63.1183 45.7852 63.7116 46.5589C63.8654 46.7588 64.0107 46.9635 64.1451 47.1749C64.421 47.6073 64.6692 48.0439 64.8841 48.4925C65.2205 49.202 65.4736 49.9028 65.7066 50.6133C65.9131 51.0274 65.7457 51.532 65.3298 51.739C64.9146 51.9448 64.4119 51.7768 64.2036 51.3602L64.2037 51.3603Z" fill="#482F28" fill-opacity="0.1"/>
<path fill-rule="evenodd" clip-rule="evenodd" d="M91.2815 116.867C89.3894 116.112 87.5341 115.32 85.7299 114.447C83.8925 113.559 82.1 112.615 80.3795 111.603C78.255 110.353 76.2385 109 74.2945 107.631C71.2135 105.463 68.3512 103.2 65.6992 100.961C52.6149 89.9085 44.8727 79.2531 44.8727 79.2531C44.725 79.0593 44.7631 78.7848 44.9569 78.6372C45.1501 78.4907 45.4263 78.5282 45.5716 78.7209C45.5716 78.7209 53.6751 88.9072 67.0081 99.3512C69.6937 101.454 72.6 103.557 75.675 105.617C77.6101 106.913 79.6276 108.168 81.6824 109.43C83.3484 110.454 85.0367 111.482 86.7688 112.477C88.4736 113.457 90.1935 114.431 91.9752 115.339C92.3968 115.53 92.5832 116.026 92.393 116.45C92.201 116.871 91.7042 117.058 91.2814 116.867L91.2815 116.867Z" fill="#482F28" fill-opacity="0.1"/>
<path fill-rule="evenodd" clip-rule="evenodd" d="M74.8983 83.7662C74.8983 83.7662 75.5636 82.0789 76.4456 78.8949C76.8302 77.5039 77.2433 75.8305 77.695 73.8937C78.1156 72.097 78.5819 70.0797 78.9968 67.8337C79.5078 65.0866 79.9855 62.0082 80.3255 58.6046C81.0487 51.3471 81.2089 42.6411 80.0904 32.6099C80.0595 32.3704 80.2287 32.1483 80.4677 32.1156C80.7091 32.0842 80.9301 32.2528 80.9634 32.4935C82.9503 45.1181 82.8645 55.7469 81.957 64.0423C81.6146 67.1767 81.1671 69.9812 80.6452 72.428C80.49 73.149 80.3283 73.841 80.1557 74.4972C79.6337 76.4836 79.0804 78.1801 78.565 79.5783C77.3683 82.8401 76.4073 84.5013 76.4073 84.5013C76.2038 84.918 75.702 85.091 75.2846 84.8886C74.8689 84.6857 74.694 84.1815 74.8981 83.7666L74.8983 83.7662Z" fill="#482F28" fill-opacity="0.1"/>
<path fill-rule="evenodd" clip-rule="evenodd" d="M85.2045 105.714C85.2045 105.714 84.948 104.911 84.731 103.492C84.6338 102.86 84.5392 102.112 84.5182 101.263C84.4957 100.45 84.5576 99.55 84.6474 98.5858C84.7656 97.3513 84.9748 96.0172 85.2755 94.6186C85.9855 91.3284 87.22 87.7146 89.3362 84.34C89.4546 84.1287 89.7209 84.0507 89.9341 84.1685C90.1461 84.2857 90.2224 84.5525 90.1046 84.7657C88.8068 87.4607 88.0635 90.2392 87.6138 92.8583C87.1299 95.678 87.1163 98.2998 87.0699 100.424C87.0478 101.377 87.0061 102.228 86.9767 102.948C86.9127 104.529 86.8641 105.466 86.8641 105.466C86.9332 105.924 86.6166 106.352 86.1586 106.42C85.6995 106.487 85.2738 106.172 85.2047 105.714L85.2045 105.714Z" fill="#482F28" fill-opacity="0.1"/>
<path fill-rule="evenodd" clip-rule="evenodd" d="M115.919 148.397C115.919 148.397 114.475 146.374 113.058 141.865C112.482 140.031 111.919 137.778 111.492 135.077C111.354 134.206 111.242 133.288 111.149 132.322C110.853 129.155 110.765 125.485 110.954 121.291C111.415 111.161 113.588 97.9558 119.062 81.3001C119.161 80.9744 119.505 80.7902 119.832 80.8896C120.156 80.9877 120.34 81.331 120.243 81.6561C116.621 94.8168 114.952 105.756 114.385 114.7C114.103 119.199 114.119 123.18 114.284 126.687C114.423 129.662 114.713 132.284 115.007 134.585C115.334 137.142 115.685 139.293 116.073 141.062C116.981 145.205 117.931 147.184 117.931 147.184C118.266 147.74 118.087 148.463 117.532 148.797C116.976 149.13 116.254 148.951 115.92 148.396L115.919 148.397Z" fill="#482F28" fill-opacity="0.1"/>
</svg>
