<svg width="171" height="149" viewBox="0 0 171 149" fill="none" xmlns="http://www.w3.org/2000/svg">
<g clip-path="url(#clip0_1_2272)">
<path fill-rule="evenodd" clip-rule="evenodd" d="M80.9482 17.8588C92.4645 6.75 122.143 -8.80836 148.939 17.8588C182.319 51.1549 148.089 121.455 80.9482 147.441C58.3252 138.36 36.7644 123.755 21.0755 105.064C12.1385 94.3641 4.9617 81.8932 1.92709 68.1813C-1.27442 53.9245 -1.28959 34.4917 8.19355 22.5354C15.598 13.1065 25.4149 5.22141 37.2802 2.51231C53.7278 -1.2562 69.2195 6.87108 80.9482 17.8588ZM80.9482 38.3813C88.292 31.2983 107.213 21.37 124.298 38.3813C145.661 59.6454 123.766 104.429 80.9482 121.077C66.208 115.27 53.106 105.972 42.7729 93.9858C36.8988 87.2275 32.7362 79.162 30.6345 70.4666C28.6013 61.3859 28.5861 48.9906 34.6401 41.3628C39.2831 35.3544 45.5192 30.2691 53.1057 28.5892C63.5903 26.1979 73.4679 31.374 80.9482 38.3813Z" fill="#F8DCDB"/>
<path d="M156.525 17.7983L157.602 16.7237L156.525 17.7983ZM88.5347 17.7983L87.4878 18.9031L88.5499 19.8868L89.5816 18.888L88.5347 17.7983ZM88.5347 147.381L87.9733 148.788L88.5195 149L89.0809 148.788L88.5347 147.381ZM28.6619 105.004L29.8303 104.035L28.6619 105.004ZM9.51358 68.1056L11.0309 67.7727L9.51358 68.1056ZM15.78 22.4749L16.9635 23.4132L15.78 22.4749ZM44.8667 2.4518L45.2005 3.96526L44.8667 2.4518ZM131.884 38.3208L132.961 37.2462L131.884 38.3208ZM88.5347 38.3208L87.5029 39.4256L88.5499 40.4093L89.5968 39.4105L88.5347 38.3208ZM88.5347 120.956L87.9733 122.348L88.5195 122.575L89.0809 122.363L88.5347 120.956ZM50.3594 93.9252L51.5277 92.9566L50.3594 93.9252ZM38.221 70.4061L39.7383 70.0883L38.221 70.4061ZM42.2266 41.3023L43.4101 42.2406L42.2266 41.3023ZM60.6922 28.5438L61.026 30.0573L60.6922 28.5438ZM157.602 16.7237C143.84 3.02692 129.229 0.121074 116.559 2.13397C105.65 4.03341 95.5382 9.07926 87.4726 16.648L89.521 18.888C97.1305 11.7233 106.678 6.94037 116.984 5.13062C128.728 3.25393 142.353 5.88735 155.387 18.8728L157.602 16.7237ZM89.0809 148.788C122.977 135.666 148.696 111.36 161.593 86.0401C174.49 60.72 174.975 34.0528 157.602 16.7237L155.448 18.8728C171.516 34.8852 171.531 59.9784 158.892 84.6629C146.253 109.347 121.217 133.184 88.0037 145.973L89.0809 148.788ZM27.4936 105.942C43.3646 124.875 65.1379 139.617 88.0037 148.788L89.1265 145.973C66.7007 136.892 45.3674 122.499 29.8606 104.035L27.4936 105.942ZM8.02662 68.4386C11.1371 82.4532 18.3898 95.136 27.4936 105.942L29.8303 104.005C20.9389 93.4712 13.9593 81.2122 11.0005 67.7878L8.02662 68.4386ZM14.5965 21.5214C9.60462 27.8022 7.17693 35.9598 6.37276 44.2233C5.6785 52.3319 6.23628 60.4988 8.02662 68.4386L11.0612 67.7727C9.31256 60.1705 8.7496 52.3447 9.3922 44.5714C10.166 36.6106 12.4268 29.0887 16.9787 23.3829L14.5965 21.5214ZM44.5329 0.968611C32.2124 3.78364 22.1224 11.9412 14.5814 21.5365L16.9787 23.4132C24.2769 14.1508 33.7904 6.53814 45.2005 3.91986L44.5329 0.968611ZM89.521 16.648C77.686 5.55439 61.6936 -2.95125 44.5329 0.968611L45.2005 3.91986C60.935 0.317824 75.8652 8.06673 87.4878 18.9031L89.521 16.648ZM132.916 37.2008C124.009 28.3471 114.526 26.4401 106.272 27.7568C99.2138 29.0068 92.6808 32.3019 87.4878 37.2311L89.5968 39.3499C94.3632 34.8581 100.345 31.8589 106.803 30.7232C114.116 29.5578 122.628 31.1924 130.822 39.3348L132.916 37.2008ZM89.0809 122.363C110.763 113.948 127.287 98.3748 135.617 82.09C143.947 65.8052 144.28 48.5366 132.961 37.2462L130.822 39.3499C140.821 49.3236 140.912 65.0787 132.916 80.6673C124.92 96.256 109.064 111.391 88.0037 119.563L89.0809 122.363ZM49.191 94.8939C59.7083 107.046 73.0277 116.467 88.0037 122.348L89.0961 119.563C74.6231 113.845 61.7537 104.716 51.5884 92.9566L49.191 94.8939ZM36.6733 70.6785C38.8339 79.6366 43.1278 87.943 49.191 94.8939L51.5884 92.9566C45.8385 86.3981 41.7581 78.5538 39.6927 70.0883L36.6733 70.6785ZM40.9673 40.3639C37.8046 44.688 35.9463 49.8235 35.6112 55.1656C35.1582 60.381 35.5216 65.6351 36.6885 70.7391L39.6472 70.0883C38.5548 65.2912 38.217 60.3538 38.6458 55.4531C38.9191 50.6918 40.551 46.1076 43.3494 42.2406L40.9673 40.3639ZM60.3736 27.0606C52.347 28.8919 45.8226 34.189 40.9673 40.3791L43.3494 42.2406C47.9013 36.3987 53.9706 31.6464 61.0412 30.0119L60.3736 27.0606ZM89.521 37.216C81.9344 30.0724 71.4954 24.4878 60.2977 27.0606L60.9653 30.0119C70.7367 27.772 80.1137 32.5696 87.4423 39.4256L89.521 37.216Z" fill="#433939"/>
<path d="M31.0462 84.4499L28.7997 88.8906L32.4444 86.8144C32.6812 86.6795 32.8868 86.6288 33.0612 86.6623C33.24 86.6971 33.3788 86.8007 33.4776 86.9732C33.5795 87.1513 33.6001 87.326 33.5392 87.4972C33.4811 87.6669 33.3337 87.8191 33.0968 87.9541L28.2777 90.6992C27.74 91.0055 27.3436 90.9361 27.0887 90.4908C27.0249 90.3795 26.9843 90.2698 26.9667 90.1617C26.9464 90.0552 26.9488 89.9431 26.9738 89.8255C26.9989 89.7079 27.0382 89.5895 27.0919 89.4703C27.1484 89.3496 27.2063 89.228 27.2656 89.1057L29.5038 84.7473L25.9135 86.7924C25.6794 86.9258 25.4714 86.9723 25.2895 86.932C25.1075 86.8917 24.9679 86.7867 24.8708 86.6169C24.7704 86.4416 24.7498 86.267 24.8091 86.093C24.8711 85.9174 25.0178 85.7637 25.2491 85.632L29.9762 82.9392C30.1769 82.8249 30.347 82.7575 30.4868 82.7369C30.6424 82.7184 30.7943 82.7481 30.9425 82.8261C31.0934 82.9025 31.2095 83.0117 31.2907 83.1537C31.3544 83.265 31.3905 83.3699 31.3989 83.4685C31.4089 83.5698 31.3999 83.6672 31.3721 83.7605C31.3459 83.8567 31.3015 83.9631 31.239 84.0799C31.1782 84.1995 31.1139 84.3228 31.0462 84.4499Z" fill="#433939"/>
<path d="M34.2411 99.0305L34.7319 98.2169L32.9516 95.9542L32.0274 96.2483C31.6668 96.3629 31.4082 96.4222 31.2516 96.4262C31.0975 96.4282 30.9547 96.3457 30.8233 96.1787C30.7118 96.037 30.6652 95.871 30.6835 95.6808C30.7019 95.4906 30.777 95.3438 30.9088 95.2406C30.9849 95.1811 31.0735 95.1322 31.1745 95.094C31.2756 95.0557 31.4213 95.0092 31.6116 94.9542L36.3529 93.5432C36.4887 93.5023 36.6508 93.4531 36.8391 93.3956C37.032 93.3387 37.2015 93.3041 37.3477 93.292C37.4958 93.2824 37.6399 93.3066 37.7798 93.3647C37.9243 93.4234 38.0573 93.5299 38.1788 93.6843C38.3022 93.8412 38.3744 93.9954 38.3952 94.1468C38.4205 94.2987 38.4111 94.4431 38.3671 94.5798C38.325 94.719 38.2664 94.8528 38.1912 94.9812C38.1205 95.1102 38.0221 95.2793 37.8958 95.4885L35.4415 99.7594C35.2572 100.088 35.103 100.3 34.9787 100.398C34.8494 100.499 34.6874 100.538 34.4927 100.514C34.3026 100.491 34.1478 100.404 34.0283 100.252C33.9586 100.164 33.9154 100.075 33.8985 99.9857C33.8792 99.8986 33.8792 99.8127 33.8986 99.728C33.9206 99.6413 33.9674 99.529 34.0391 99.391C34.1154 99.2536 34.1827 99.1334 34.2411 99.0305ZM34.0328 95.5863L35.3411 97.2491L36.9822 94.6087L34.0328 95.5863Z" fill="#433939"/>
<path d="M44.7228 103.196L43.6405 102.075L39.9454 105.623C39.7326 105.827 39.5285 105.932 39.3331 105.938C39.14 105.941 38.9711 105.867 38.8263 105.717C38.6794 105.565 38.6112 105.39 38.6217 105.194C38.6345 104.999 38.7461 104.801 38.9566 104.599L42.6518 101.05L41.5695 99.9289C41.4002 99.7536 41.3126 99.5866 41.3065 99.4279C41.3028 99.267 41.3645 99.1255 41.4917 99.0033C41.6236 98.8767 41.77 98.8206 41.9309 98.835C42.0941 98.8517 42.257 98.9443 42.4195 99.1127L45.5729 102.38C45.7443 102.558 45.8319 102.727 45.8357 102.888C45.8417 103.051 45.7811 103.194 45.6538 103.316C45.5266 103.438 45.3814 103.493 45.2181 103.481C45.0571 103.467 44.892 103.372 44.7228 103.196Z" fill="#433939"/>
<path d="M46.4427 109.007L48.6488 106.432C48.8365 106.212 49.0261 106.09 49.2176 106.063C49.4116 106.039 49.5891 106.095 49.7502 106.233C49.9186 106.376 50.0047 106.544 50.0084 106.737C50.0146 106.932 49.9238 107.139 49.7361 107.358L47.4799 109.992C47.2234 110.292 47.0414 110.571 46.9342 110.829C46.8315 111.087 46.8175 111.345 46.8924 111.602C46.9694 111.858 47.1617 112.116 47.4692 112.378C47.8939 112.74 48.29 112.884 48.6577 112.81C49.0274 112.733 49.4084 112.466 49.8006 112.008L52.0755 109.352C52.2653 109.13 52.455 109.008 52.6444 108.984C52.8359 108.957 53.0134 109.014 53.1769 109.153C53.3404 109.292 53.4253 109.459 53.4315 109.654C53.4422 109.849 53.3527 110.057 53.1628 110.279L50.9568 112.854C50.5979 113.273 50.2571 113.587 49.9342 113.797C49.6138 114.008 49.2493 114.123 48.8408 114.141C48.4912 114.155 48.1516 114.093 47.8219 113.956C47.4923 113.818 47.1542 113.601 46.8076 113.306C46.3951 112.954 46.0775 112.608 45.8549 112.267C45.6343 111.923 45.5093 111.578 45.4799 111.233C45.4526 110.885 45.5192 110.529 45.6795 110.164C45.842 109.797 46.0964 109.411 46.4427 109.007Z" fill="#433939"/>
<path d="M57.0631 117.349L56.6525 117.059L55.3362 118.915C55.163 119.16 54.9814 119.302 54.7915 119.341C54.6016 119.381 54.4199 119.339 54.2462 119.216C54.0593 119.085 53.9574 118.922 53.9405 118.729C53.9235 118.536 53.998 118.322 54.1638 118.088L57.3161 113.643C57.495 113.39 57.681 113.248 57.8743 113.215C58.0676 113.182 58.2906 113.254 58.5432 113.432L60.4499 114.778C60.7131 114.963 60.9297 115.134 61.0998 115.289C61.2718 115.442 61.4086 115.606 61.5101 115.78C61.6377 115.984 61.7209 116.206 61.7598 116.447C61.7987 116.687 61.7866 116.927 61.7235 117.166C61.6649 117.405 61.5611 117.629 61.412 117.839C61.1065 118.27 60.74 118.528 60.3127 118.613C59.888 118.699 59.3901 118.622 58.8189 118.381C58.9486 118.638 59.0318 118.941 59.0685 119.29C59.1052 119.639 59.1106 119.988 59.0847 120.336C59.0633 120.684 59.0236 120.985 58.9654 121.239C58.9118 121.493 58.8588 121.657 58.8067 121.73C58.7527 121.807 58.6736 121.865 58.5696 121.906C58.47 121.946 58.3633 121.958 58.2492 121.94C58.1334 121.925 58.0201 121.879 57.9096 121.801C57.778 121.708 57.6898 121.599 57.6451 121.473C57.5984 121.349 57.5758 121.217 57.577 121.076C57.5809 120.937 57.5928 120.736 57.6127 120.474L57.6963 119.362C57.7309 118.957 57.7342 118.632 57.7062 118.388C57.6808 118.145 57.6193 117.948 57.5215 117.796C57.4238 117.645 57.271 117.496 57.0631 117.349ZM59.4557 115.395L58.374 114.631L57.2478 116.22L58.2978 116.961C58.5794 117.159 58.8331 117.303 59.0587 117.391C59.2862 117.477 59.491 117.497 59.673 117.452C59.8595 117.406 60.0254 117.281 60.1707 117.076C60.2843 116.915 60.3432 116.746 60.3473 116.568C60.3533 116.387 60.3053 116.215 60.2034 116.052C60.1076 115.898 59.8583 115.679 59.4557 115.395Z" fill="#433939"/>
<path d="M67.311 126.715L67.4646 125.787L64.9975 124.356L64.2547 124.965C63.9649 125.203 63.7486 125.352 63.6059 125.413C63.4649 125.471 63.3033 125.448 63.1211 125.342C62.9666 125.253 62.8629 125.117 62.8101 124.935C62.7573 124.753 62.7727 124.591 62.8562 124.447C62.9044 124.365 62.968 124.287 63.047 124.215C63.126 124.143 63.243 124.047 63.3981 123.926L67.2443 120.891C67.3544 120.803 67.4855 120.699 67.6378 120.577C67.7944 120.454 67.9378 120.36 68.0678 120.295C68.2006 120.232 68.342 120.202 68.4921 120.204C68.6466 120.205 68.808 120.254 68.9763 120.352C69.1474 120.451 69.2703 120.567 69.3448 120.698C69.4238 120.829 69.4681 120.965 69.4776 121.107C69.4899 121.251 69.485 121.396 69.4628 121.541C69.445 121.686 69.4164 121.878 69.3768 122.116L68.6827 126.947C68.6334 127.316 68.5693 127.569 68.4906 127.704C68.4087 127.844 68.2739 127.939 68.0861 127.989C67.9028 128.038 67.7283 128.014 67.5627 127.918C67.4661 127.862 67.3938 127.796 67.3457 127.72C67.296 127.647 67.2645 127.568 67.2513 127.483C67.2398 127.395 67.2417 127.275 67.2572 127.121C67.2771 126.967 67.295 126.832 67.311 126.715ZM65.8577 123.621L67.6708 124.673L68.2138 121.641L65.8577 123.621Z" fill="#433939"/>
<path d="M76.9455 125.54L74.7103 130.16L77.3195 131.416C77.5276 131.516 77.6621 131.643 77.723 131.797C77.7868 131.952 77.7817 132.106 77.7077 132.259C77.6323 132.415 77.5159 132.516 77.3586 132.561C77.2027 132.604 77.0193 132.574 76.8084 132.473L73.7008 130.977C73.4205 130.842 73.2482 130.682 73.1841 130.498C73.1227 130.316 73.1591 130.086 73.2932 129.809L75.6582 124.92C75.7839 124.661 75.936 124.493 76.1144 124.419C76.2957 124.346 76.4817 124.356 76.6724 124.448C76.866 124.541 76.9906 124.681 77.0463 124.868C77.1062 125.053 77.0726 125.277 76.9455 125.54Z" fill="#433939"/>
<path d="M93.5863 133.663L91.0037 128.744C90.8696 128.488 90.8272 128.266 90.8767 128.077C90.9261 127.889 91.0432 127.746 91.228 127.65C91.4184 127.55 91.6055 127.534 91.7891 127.601C91.9741 127.663 92.1344 127.824 92.27 128.082L94.8525 133.001C94.9882 133.26 95.0299 133.484 94.9776 133.674C94.9281 133.863 94.8081 134.007 94.6177 134.106C94.4358 134.201 94.2516 134.216 94.0652 134.15C93.88 134.081 93.7204 133.918 93.5863 133.663Z" fill="#433939"/>
<path d="M97.7651 125.005L102.298 127.083L100.078 123.524C99.9342 123.293 99.8755 123.089 99.9023 122.914C99.9301 122.735 100.029 122.592 100.197 122.488C100.372 122.379 100.546 122.352 100.72 122.407C100.892 122.459 101.05 122.6 101.194 122.831L104.13 127.537C104.457 128.062 104.403 128.46 103.967 128.731C103.858 128.798 103.75 128.843 103.642 128.864C103.536 128.888 103.424 128.89 103.305 128.87C103.187 128.849 103.067 128.814 102.945 128.765C102.822 128.713 102.698 128.659 102.573 128.605L98.1227 126.532L100.31 130.038C100.452 130.267 100.507 130.472 100.473 130.655C100.44 130.838 100.34 130.981 100.174 131.084C100.003 131.191 99.8285 131.218 99.6519 131.165C99.4737 131.11 99.3142 130.969 99.1733 130.743L96.294 126.127C96.1718 125.931 96.0977 125.764 96.0717 125.626C96.0471 125.471 96.071 125.318 96.1434 125.168C96.214 125.015 96.3188 124.895 96.4578 124.809C96.5668 124.741 96.6705 124.701 96.7688 124.689C96.8699 124.675 96.9677 124.681 97.0623 124.705C97.1596 124.728 97.2679 124.768 97.3872 124.826C97.5093 124.882 97.6353 124.942 97.7651 125.005Z" fill="#433939"/>
<path d="M112.818 118.77L113.644 119.837C113.754 119.978 113.828 120.103 113.867 120.21C113.903 120.316 113.91 120.431 113.887 120.558C113.866 120.683 113.822 120.822 113.755 120.976C113.558 121.418 113.337 121.8 113.089 122.124C112.842 122.448 112.535 122.751 112.167 123.035C111.738 123.365 111.297 123.6 110.843 123.739C110.388 123.879 109.94 123.92 109.497 123.86C109.055 123.801 108.628 123.645 108.218 123.392C107.81 123.136 107.435 122.789 107.094 122.348C106.759 121.915 106.517 121.469 106.368 121.01C106.219 120.551 106.174 120.1 106.231 119.656C106.288 119.212 106.445 118.786 106.704 118.377C106.96 117.965 107.316 117.584 107.773 117.232C108.148 116.943 108.519 116.738 108.887 116.617C109.252 116.493 109.584 116.437 109.881 116.45C110.179 116.464 110.439 116.52 110.662 116.619C110.884 116.718 111.046 116.834 111.148 116.965C111.258 117.107 111.299 117.27 111.271 117.453C111.243 117.632 111.156 117.778 111.009 117.891C110.927 117.954 110.834 117.995 110.729 118.016C110.626 118.034 110.523 118.029 110.419 118C110.111 117.89 109.866 117.816 109.683 117.779C109.501 117.742 109.297 117.749 109.074 117.8C108.853 117.849 108.615 117.971 108.362 118.166C108.101 118.367 107.903 118.592 107.768 118.842C107.631 119.089 107.556 119.355 107.542 119.64C107.529 119.921 107.579 120.216 107.692 120.524C107.808 120.831 107.982 121.135 108.216 121.436C108.721 122.089 109.26 122.476 109.831 122.597C110.405 122.717 110.961 122.57 111.499 122.155C111.76 121.954 111.978 121.732 112.153 121.488C112.331 121.242 112.489 120.964 112.627 120.656L111.928 119.753L111.053 120.426C110.842 120.589 110.658 120.68 110.5 120.701C110.345 120.719 110.208 120.653 110.09 120.501C109.994 120.377 109.959 120.24 109.986 120.091C110.014 119.94 110.106 119.804 110.26 119.685L111.542 118.698C111.699 118.577 111.843 118.488 111.974 118.432C112.105 118.376 112.24 118.371 112.38 118.416C112.523 118.46 112.669 118.577 112.818 118.77Z" fill="#433939"/>
<path d="M118.405 113.772L118.041 114.115L119.595 115.763C119.8 115.98 119.903 116.185 119.903 116.377C119.904 116.57 119.828 116.739 119.673 116.883C119.507 117.039 119.328 117.106 119.136 117.085C118.943 117.063 118.749 116.948 118.553 116.74L114.831 112.793C114.619 112.569 114.517 112.36 114.523 112.165C114.529 111.971 114.644 111.768 114.868 111.557L116.563 109.967C116.796 109.748 117.006 109.571 117.192 109.436C117.376 109.299 117.563 109.198 117.753 109.134C117.978 109.05 118.212 109.013 118.455 109.023C118.698 109.032 118.93 109.092 119.152 109.2C119.373 109.305 119.572 109.45 119.748 109.637C120.109 110.019 120.289 110.427 120.287 110.86C120.287 111.29 120.113 111.759 119.763 112.268C120.04 112.192 120.353 112.171 120.702 112.204C121.051 112.238 121.393 112.301 121.729 112.396C122.064 112.485 122.351 112.583 122.589 112.69C122.826 112.793 122.976 112.877 123.037 112.942C123.101 113.01 123.143 113.098 123.162 113.207C123.182 113.312 123.172 113.418 123.132 113.526C123.095 113.636 123.027 113.737 122.929 113.829C122.812 113.939 122.687 114.003 122.555 114.022C122.425 114.042 122.291 114.038 122.153 114.009C122.018 113.978 121.824 113.927 121.572 113.856L120.501 113.554C120.111 113.44 119.794 113.373 119.55 113.352C119.307 113.329 119.102 113.35 118.934 113.415C118.767 113.48 118.59 113.599 118.405 113.772ZM116.969 111.057L116.008 111.959L117.338 113.369L118.271 112.494C118.521 112.259 118.712 112.041 118.843 111.838C118.972 111.634 119.032 111.439 119.024 111.253C119.016 111.062 118.927 110.876 118.755 110.694C118.621 110.551 118.467 110.461 118.293 110.421C118.117 110.38 117.94 110.392 117.761 110.459C117.591 110.522 117.327 110.721 116.969 111.057Z" fill="#433939"/>
<path d="M125.804 101.939L123.68 104.357L124.984 105.496L126.939 103.27C127.083 103.107 127.228 103.018 127.372 103.003C127.517 102.985 127.649 103.028 127.77 103.134C127.891 103.239 127.955 103.366 127.962 103.513C127.967 103.658 127.897 103.813 127.751 103.979L125.795 106.205L127.305 107.526L129.502 105.025C129.65 104.856 129.801 104.765 129.955 104.75C130.108 104.731 130.25 104.778 130.381 104.892C130.506 105.002 130.571 105.135 130.574 105.291C130.578 105.443 130.505 105.603 130.357 105.772L127.795 108.688C127.589 108.922 127.389 109.045 127.195 109.058C127.002 109.068 126.79 108.972 126.558 108.77L122.567 105.281C122.412 105.146 122.307 105.013 122.251 104.883C122.192 104.751 122.183 104.618 122.224 104.483C122.265 104.344 122.352 104.199 122.486 104.047L124.975 101.214C125.125 101.043 125.275 100.95 125.424 100.936C125.573 100.917 125.709 100.962 125.832 101.069C125.957 101.179 126.022 101.31 126.025 101.462C126.028 101.609 125.954 101.768 125.804 101.939Z" fill="#433939"/>
<path d="M128.91 96.3605L129.988 94.8424C130.268 94.4475 130.545 94.1347 130.819 93.904C131.092 93.6733 131.412 93.5141 131.777 93.4264C132.715 93.19 133.708 93.4417 134.756 94.1815C135.102 94.4256 135.396 94.6786 135.639 94.9403C135.882 95.202 136.074 95.4771 136.216 95.7653C136.355 96.0518 136.445 96.3569 136.486 96.6806C136.516 96.933 136.507 97.1803 136.461 97.4225C136.415 97.6648 136.334 97.9038 136.218 98.1397C136.103 98.373 135.953 98.6217 135.765 98.8858L134.688 100.404C134.538 100.616 134.393 100.753 134.254 100.816C134.112 100.877 133.972 100.884 133.832 100.836C133.692 100.785 133.529 100.693 133.343 100.562L129.119 97.5794C128.867 97.4019 128.725 97.2171 128.692 97.0251C128.66 96.8331 128.732 96.6116 128.91 96.3605ZM130.154 96.5613L134.064 99.3217L134.69 98.439C134.827 98.2455 134.93 98.0901 134.997 97.9729C135.065 97.8556 135.119 97.7234 135.161 97.5761C135.203 97.4288 135.216 97.2852 135.201 97.1453C135.148 96.5225 134.717 95.9264 133.911 95.3567C133.342 94.9554 132.855 94.7412 132.45 94.714C132.046 94.6843 131.717 94.7681 131.463 94.9656C131.206 95.1611 130.952 95.4368 130.7 95.7924L130.154 96.5613Z" fill="#433939"/>
<path d="M140 91.1018L135.19 88.3225C134.94 88.1781 134.785 88.0129 134.726 87.8271C134.667 87.6412 134.69 87.4581 134.795 87.2778C134.903 87.092 135.052 86.9784 135.243 86.9369C135.433 86.891 135.654 86.941 135.907 87.087L140.718 89.8663C140.97 90.0123 141.125 90.1796 141.183 90.3683C141.241 90.5542 141.217 90.74 141.109 90.9258C141.006 91.1033 140.858 91.2142 140.666 91.2585C140.472 91.2984 140.25 91.2461 140 91.1018Z" fill="#433939"/>
<path d="M140.311 79.221L138.968 82.1457L140.543 82.865L141.779 80.1721C141.87 79.9739 141.983 79.8473 142.118 79.7925C142.251 79.7333 142.39 79.7371 142.536 79.8037C142.682 79.8703 142.779 79.973 142.829 80.1118C142.875 80.2493 142.852 80.4186 142.76 80.6197L141.523 83.3126L143.348 84.1458L144.737 81.1207C144.83 80.9166 144.949 80.7856 145.092 80.7276C145.233 80.6653 145.383 80.6701 145.54 80.742C145.692 80.8113 145.792 80.9204 145.84 81.0693C145.886 81.2139 145.863 81.3882 145.769 81.5922L144.15 85.1202C144.02 85.4029 143.864 85.5782 143.681 85.6463C143.499 85.7114 143.268 85.68 142.988 85.5521L138.167 83.3501C137.98 83.2649 137.841 83.1679 137.75 83.0593C137.655 82.9493 137.609 82.824 137.61 82.6834C137.609 82.5386 137.651 82.3744 137.735 82.1908L139.309 78.7634C139.404 78.5565 139.52 78.4248 139.659 78.3683C139.797 78.3076 139.94 78.3113 140.088 78.3792C140.24 78.4485 140.339 78.5554 140.386 78.7C140.431 78.8404 140.406 79.0141 140.311 79.221Z" fill="#433939"/>
<path d="M142.528 72.4142L147.29 70.9389L143.262 69.7672C143.001 69.6911 142.821 69.5788 142.724 69.4303C142.625 69.2779 142.604 69.1063 142.659 68.9155C142.717 68.7185 142.829 68.5823 142.994 68.507C143.157 68.4307 143.369 68.4307 143.631 68.5068L148.956 70.0561C149.551 70.229 149.776 70.5617 149.632 71.0541C149.596 71.1772 149.545 71.2827 149.479 71.3704C149.416 71.4591 149.334 71.5353 149.232 71.5991C149.13 71.6628 149.017 71.7169 148.894 71.7612C148.767 71.8046 148.64 71.8476 148.51 71.8901L143.814 73.3141L147.781 74.4684C148.04 74.5436 148.218 74.6605 148.315 74.8191C148.413 74.9777 148.434 75.1508 148.379 75.3386C148.322 75.5325 148.211 75.6686 148.044 75.7471C147.874 75.8246 147.662 75.8262 147.406 75.7519L142.182 74.2321C141.961 74.1676 141.794 74.0924 141.682 74.0064C141.561 73.9076 141.477 73.778 141.43 73.6175C141.38 73.4561 141.378 73.2969 141.424 73.1399C141.46 73.0168 141.511 72.918 141.576 72.8434C141.642 72.7658 141.719 72.7046 141.805 72.6596C141.893 72.6116 142 72.5694 142.128 72.5331C142.256 72.4936 142.39 72.454 142.528 72.4142Z" fill="#433939"/>
<path d="M145.623 59.1438L145.466 60.6944L150.564 61.2064C150.857 61.2359 151.069 61.3232 151.199 61.4685C151.327 61.6134 151.38 61.7895 151.359 61.9969C151.338 62.2075 151.248 62.3726 151.091 62.4922C150.934 62.6085 150.711 62.6522 150.421 62.623L145.323 62.111L145.167 63.6617C145.142 63.9041 145.071 64.0791 144.954 64.1866C144.834 64.2937 144.686 64.3385 144.51 64.3209C144.329 64.3026 144.191 64.2276 144.098 64.0958C144.005 63.9608 143.971 63.7768 143.994 63.5439L144.45 59.026C144.475 58.7804 144.548 58.6039 144.668 58.4968C144.789 58.3864 144.937 58.3401 145.112 58.3577C145.288 58.3753 145.424 58.4502 145.52 58.5824C145.613 58.7142 145.647 58.9013 145.623 59.1438Z" fill="#433939"/>
<path d="M148.926 48.7563C149.348 48.7053 149.741 48.7689 150.104 48.9473C150.467 49.1225 150.769 49.4081 151.01 49.8041C151.252 50.2001 151.407 50.6854 151.477 51.26C151.561 51.9489 151.5 52.5329 151.294 53.012C151.145 53.3521 150.927 53.6409 150.641 53.8786C150.35 54.1134 150.057 54.2486 149.762 54.2843C149.591 54.3051 149.437 54.264 149.303 54.1611C149.164 54.0555 149.084 53.9106 149.061 53.7264C149.043 53.5772 149.076 53.4461 149.158 53.333C149.241 53.2167 149.371 53.1107 149.55 53.0151C149.761 52.8993 149.935 52.7816 150.072 52.662C150.209 52.5392 150.315 52.3782 150.391 52.179C150.463 51.9802 150.481 51.7284 150.444 51.4236C150.393 51.0046 150.255 50.6766 150.029 50.4397C149.801 50.2 149.54 50.0978 149.248 50.1331C149.016 50.1611 148.838 50.2552 148.712 50.4153C148.583 50.5727 148.494 50.7687 148.445 51.0033C148.396 51.2347 148.351 51.5429 148.311 51.9279C148.255 52.4437 148.169 52.8808 148.055 53.2393C147.937 53.595 147.755 53.8892 147.51 54.1218C147.261 54.3516 146.935 54.4909 146.531 54.5397C146.147 54.5861 145.793 54.5226 145.469 54.3492C145.145 54.1757 144.88 53.9002 144.673 53.5226C144.463 53.1453 144.325 52.6884 144.26 52.1519C144.208 51.7234 144.217 51.347 144.287 51.0228C144.354 50.6959 144.463 50.4185 144.616 50.1906C144.766 49.9632 144.931 49.7901 145.114 49.6715C145.296 49.5528 145.479 49.4823 145.663 49.4601C145.831 49.4397 145.991 49.4816 146.142 49.5858C146.29 49.6871 146.374 49.8267 146.396 50.0044C146.416 50.1663 146.391 50.2949 146.322 50.3903C146.249 50.4828 146.127 50.5894 145.955 50.7101C145.707 50.8689 145.521 51.046 145.396 51.2415C145.268 51.4373 145.229 51.732 145.276 52.1257C145.321 52.4908 145.438 52.7762 145.627 52.982C145.813 53.1851 146.018 53.2729 146.244 53.2457C146.383 53.2288 146.499 53.1761 146.592 53.0876C146.684 52.9992 146.759 52.8838 146.815 52.7417C146.872 52.5995 146.913 52.4577 146.938 52.3162C146.962 52.1747 146.995 51.942 147.037 51.6181C147.081 51.2133 147.139 50.8455 147.212 50.5146C147.284 50.1805 147.386 49.8928 147.518 49.6514C147.649 49.4068 147.829 49.2078 148.059 49.0545C148.285 48.8983 148.574 48.7989 148.926 48.7563Z" fill="#433939"/>
<path d="M58.2949 80.8943H112.918C112.259 84.9963 110.565 88.8638 107.996 92.1335C105.427 95.4031 102.066 97.9675 98.2303 99.5856H72.1024C72.1024 99.5856 58.6894 93.1231 58.2949 80.8943Z" fill="#ABC6C6"/>
<path d="M72.1023 99.5856L71.0857 103.46H99.5958L98.5337 99.4645L72.1023 99.5856Z" fill="#ABC6C6"/>
<path d="M85.5911 77.6101C85.5911 77.6101 67.9904 73.2968 76.4873 57.0573C76.4873 57.0573 82.2834 47.9766 85.5911 45.5853C89.1309 49.3641 92.3107 53.4631 95.0894 57.8292C98.2302 63.2323 99.3379 74.1594 85.5911 77.6101Z" fill="#77AA9A"/>
<path d="M80.1289 75.1281C80.1289 75.1281 66.3822 81.5905 63.3476 66.5921C63.3476 66.5921 62.3461 57.693 63.1958 54.3483C67.5035 54.9655 71.7447 55.9788 75.8653 57.3752C80.7358 59.1308 87.2603 65.6841 80.1289 75.1281Z" fill="#77AA9A"/>
<path d="M90.8259 75.1281C90.8259 75.1281 104.482 81.5906 107.607 66.5317C107.607 66.5317 108.594 57.6325 107.744 54.2878C103.441 54.9057 99.2051 55.919 95.0895 57.3147C90.2038 59.1308 83.6946 65.6841 90.8259 75.1281Z" fill="#77AA9A"/>
<path d="M98.3213 100.115C98.188 100.116 98.0586 100.071 97.9551 99.9869C97.8516 99.9031 97.7803 99.7862 97.7535 99.6559C97.7267 99.5257 97.7459 99.3902 97.8079 99.2725C97.87 99.1548 97.971 99.0622 98.0937 99.0105C106.105 95.5144 111.461 88.84 112.22 81.4846H58.7804C59.5391 88.8249 64.8496 95.4992 72.8913 98.9953C72.9631 99.0249 73.0281 99.0686 73.0824 99.1239C73.1368 99.1791 73.1794 99.2448 73.2078 99.3168C73.2361 99.3889 73.2496 99.4659 73.2473 99.5433C73.2451 99.6207 73.2272 99.6969 73.1948 99.7672C73.1653 99.8369 73.1219 99.8999 73.0673 99.9524C73.0127 100.005 72.948 100.046 72.8771 100.073C72.8062 100.1 72.7306 100.112 72.6548 100.109C72.579 100.106 72.5046 100.087 72.4361 100.055C63.8179 96.3014 58.1128 88.9611 57.5666 80.9398C57.5599 80.8601 57.57 80.7799 57.5961 80.7044C57.6222 80.6288 57.6638 80.5595 57.7183 80.5009C57.7733 80.4437 57.8392 80.3982 57.9122 80.367C57.9852 80.3358 58.0637 80.3195 58.1432 80.3192H112.857C112.937 80.3167 113.016 80.3316 113.09 80.363C113.163 80.3944 113.229 80.4415 113.282 80.5009C113.336 80.5595 113.378 80.6288 113.404 80.7044C113.43 80.7799 113.44 80.8601 113.434 80.9398C112.887 88.9762 107.182 96.3014 98.6248 100.07C98.5292 100.111 98.4247 100.126 98.3213 100.115Z" fill="#433939"/>
<path d="M99.6414 103.914H71.3133C71.2243 103.914 71.1362 103.896 71.0551 103.859C70.9739 103.823 70.9016 103.769 70.843 103.702C70.7916 103.631 70.7557 103.55 70.7374 103.464C70.7191 103.378 70.7189 103.289 70.7368 103.203L71.632 99.404C71.6626 99.2786 71.7346 99.1672 71.8365 99.0876C71.9383 99.0079 72.064 98.9648 72.1934 98.9651H98.7462C98.8755 98.9648 99.0012 99.0079 99.1031 99.0876C99.2049 99.1672 99.2769 99.2786 99.3076 99.404L100.142 103.203C100.164 103.289 100.166 103.378 100.148 103.465C100.129 103.552 100.091 103.633 100.036 103.702C99.9373 103.822 99.7956 103.898 99.6414 103.914ZM72.1023 102.764H98.8979L98.291 100.115H72.7244L72.1023 102.764Z" fill="#433939"/>
<path d="M85.5912 78.2005H85.4395C84.9388 78.0643 73.4376 74.553 73.4376 65.4117C73.4376 56.2705 84.7264 45.7368 85.1967 45.2827C85.3061 45.1817 85.4497 45.1255 85.5988 45.1255C85.7479 45.1255 85.8915 45.1817 86.0009 45.2827C86.4713 45.7216 97.76 56.4369 97.76 65.4117C97.76 74.3866 86.2588 78.0643 85.7581 78.2005H85.5912ZM85.5912 46.4178C83.5732 48.4156 74.5908 57.7688 74.5908 65.3209C74.5908 72.8731 84.2105 76.4903 85.5912 76.9443C86.9871 76.4903 96.6068 73.0396 96.6068 65.3209C96.6068 57.6023 87.6244 48.4307 85.5912 46.4784V46.4178Z" fill="#433939"/>
<path d="M85.5911 78.2004C85.4368 78.1965 85.2902 78.1326 85.1825 78.0223C85.0748 77.912 85.0145 77.7641 85.0145 77.6102V53.7581C85.0009 53.6737 85.0057 53.5873 85.0288 53.505C85.0519 53.4227 85.0926 53.3463 85.1481 53.2812C85.2037 53.2162 85.2727 53.1639 85.3505 53.128C85.4283 53.0922 85.513 53.0736 85.5987 53.0736C85.6844 53.0736 85.7691 53.0922 85.8469 53.128C85.9247 53.1639 85.9937 53.2162 86.0493 53.2812C86.1049 53.3463 86.1456 53.4227 86.1686 53.505C86.1917 53.5873 86.1966 53.6737 86.1829 53.7581V77.6102C86.1829 77.7667 86.1205 77.9169 86.0096 78.0275C85.8986 78.1382 85.7481 78.2004 85.5911 78.2004Z" fill="#433939"/>
<path d="M85.5002 71.4049C85.3475 71.4028 85.2012 71.3434 85.0905 71.2384L80.5386 66.6981C80.4299 66.5897 80.3689 66.4427 80.3689 66.2894C80.3689 66.1362 80.4299 65.9892 80.5386 65.8808C80.6472 65.7724 80.7946 65.7115 80.9483 65.7115C81.1019 65.7115 81.2493 65.7724 81.3579 65.8808L85.9098 70.4212C85.964 70.4747 86.0069 70.5383 86.0363 70.6084C86.0656 70.6786 86.0807 70.7538 86.0807 70.8298C86.0807 70.9058 86.0656 70.9811 86.0363 71.0512C86.0069 71.1213 85.964 71.185 85.9098 71.2384C85.8 71.3447 85.6532 71.4044 85.5002 71.4049Z" fill="#433939"/>
<path d="M85.5002 62.6269C85.3475 62.6248 85.2012 62.5653 85.0906 62.4604L82.2077 59.5848C82.0974 59.4742 82.0355 59.3246 82.0355 59.1686C82.0355 59.0126 82.0974 58.863 82.2077 58.7524C82.3196 58.6503 82.4657 58.5937 82.6173 58.5937C82.769 58.5937 82.9151 58.6503 83.027 58.7524L85.9099 61.6431C85.964 61.6966 86.007 61.7602 86.0363 61.8304C86.0657 61.9005 86.0807 61.9758 86.0807 62.0517C86.0807 62.1277 86.0657 62.203 86.0363 62.2731C86.007 62.3433 85.964 62.4069 85.9099 62.4604C85.8 62.5666 85.6532 62.6263 85.5002 62.6269Z" fill="#433939"/>
<path d="M85.6974 71.4049C85.5444 71.4044 85.3975 71.3447 85.2877 71.2384C85.2335 71.185 85.1906 71.1213 85.1613 71.0512C85.1319 70.9811 85.1168 70.9058 85.1168 70.8298C85.1168 70.7538 85.1319 70.6786 85.1613 70.6084C85.1906 70.5383 85.2335 70.4747 85.2877 70.4212L89.8396 65.8808C89.9482 65.7724 90.0956 65.7115 90.2493 65.7115C90.4029 65.7115 90.5503 65.7724 90.6589 65.8808C90.7676 65.9892 90.8286 66.1362 90.8286 66.2894C90.8286 66.4427 90.7676 66.5897 90.6589 66.6981L86.107 71.2384C85.9963 71.3434 85.85 71.4028 85.6974 71.4049Z" fill="#433939"/>
<path d="M85.6974 62.6269C85.5444 62.6263 85.3975 62.5666 85.2877 62.4604C85.2335 62.4069 85.1906 62.3433 85.1613 62.2731C85.1319 62.203 85.1168 62.1277 85.1168 62.0517C85.1168 61.9758 85.1319 61.9005 85.1613 61.8304C85.1906 61.7602 85.2335 61.6966 85.2877 61.6431L88.1706 58.7524C88.2824 58.6503 88.4286 58.5937 88.5802 58.5937C88.7319 58.5937 88.878 58.6503 88.9899 58.7524C89.1002 58.863 89.1621 59.0126 89.1621 59.1686C89.1621 59.3246 89.1002 59.4742 88.9899 59.5848L86.107 62.4604C85.9963 62.5653 85.85 62.6248 85.6974 62.6269Z" fill="#433939"/>
<path d="M97.3805 77.0047C95.2225 76.9861 93.0814 76.6233 91.0382 75.9302C90.9665 75.9033 90.9007 75.8627 90.8448 75.8105C90.7888 75.7583 90.7437 75.6957 90.712 75.6261C90.6803 75.5565 90.6626 75.4814 90.66 75.4051C90.6574 75.3287 90.6699 75.2525 90.6968 75.181C90.7237 75.1094 90.7645 75.0439 90.8168 74.9881C90.8691 74.9322 90.9319 74.8872 91.0016 74.8556C91.0714 74.824 91.1467 74.8063 91.2233 74.8038C91.2998 74.8012 91.3761 74.8136 91.4479 74.8405C91.5389 74.8405 100.552 78.1247 104.755 72.6157C108.487 67.6213 107.243 57.0422 106.879 54.4542C102.867 55.0187 98.9511 56.1288 95.2411 57.7535C95.1023 57.8218 94.942 57.8322 94.7954 57.7825C94.6489 57.7329 94.5281 57.6272 94.4597 57.4887C94.3913 57.3502 94.3809 57.1903 94.4307 57.0441C94.4804 56.8979 94.5864 56.7775 94.7253 56.7092C98.7277 54.9496 102.964 53.7771 107.304 53.2283C107.451 53.218 107.597 53.2615 107.714 53.3507C107.831 53.4398 107.912 53.5684 107.941 53.7126C108.032 54.2574 110.232 67.1672 105.68 73.2513C104.695 74.4891 103.428 75.475 101.985 76.1277C100.542 76.7803 98.9633 77.081 97.3805 77.0047Z" fill="#433939"/>
<path d="M97.2288 68.1056C97.1042 68.1079 96.9821 68.0708 96.8798 67.9997C96.7564 67.9064 96.6746 67.7686 96.6519 67.6158C96.6292 67.463 96.6675 67.3074 96.7585 67.1824L102.464 59.6151C102.509 59.5525 102.566 59.4996 102.632 59.4594C102.698 59.4193 102.771 59.3928 102.847 59.3815C102.924 59.3702 103.002 59.3744 103.077 59.3937C103.151 59.413 103.222 59.4472 103.283 59.4941C103.404 59.5896 103.483 59.7285 103.503 59.8811C103.522 60.0338 103.482 60.1882 103.389 60.3113L97.6992 67.8786C97.6434 67.9499 97.572 68.0074 97.4905 68.0467C97.4089 68.0861 97.3194 68.1062 97.2288 68.1056Z" fill="#433939"/>
<path d="M73.6197 77.0048C72.0295 77.1004 70.4395 76.8151 68.9824 76.1727C67.5254 75.5303 66.2436 74.5494 65.2442 73.312C60.6922 67.2581 62.8923 54.3181 62.9985 53.7732C63.0245 53.6275 63.1045 53.4968 63.2225 53.4071C63.3405 53.3174 63.4881 53.2752 63.6358 53.2889C67.9704 53.8366 72.2023 55.0092 76.1991 56.7699C76.3379 56.8361 76.4447 56.9546 76.4959 57.0994C76.5471 57.2441 76.5386 57.4032 76.4722 57.5417C76.4058 57.6802 76.287 57.7867 76.1418 57.8378C75.9967 57.8889 75.8372 57.8804 75.6984 57.8141C71.994 56.1823 68.0838 55.0621 64.0758 54.4845C63.6965 57.012 62.4523 67.5911 66.2001 72.646C70.3271 78.155 79.4158 74.9011 79.5068 74.8708C79.6497 74.8167 79.8082 74.8214 79.9476 74.8838C80.087 74.9463 80.1959 75.0613 80.2503 75.2038C80.3002 75.3505 80.2919 75.5108 80.227 75.6515C80.1621 75.7923 80.0455 75.9029 79.9013 75.9605C77.8763 76.639 75.7558 76.9916 73.6197 77.0048Z" fill="#433939"/>
<path d="M73.7714 68.1056C73.6829 68.1062 73.5956 68.086 73.5165 68.0465C73.4374 68.007 73.3688 67.9495 73.3162 67.8786L67.6111 60.3113C67.5641 60.2501 67.5299 60.1802 67.5105 60.1056C67.4911 60.031 67.487 59.9533 67.4983 59.877C67.5096 59.8008 67.5362 59.7276 67.5764 59.6618C67.6167 59.596 67.6697 59.539 67.7325 59.494C67.7926 59.4475 67.8615 59.4136 67.9351 59.3945C68.0087 59.3753 68.0854 59.3713 68.1606 59.3826C68.2358 59.3939 68.3079 59.4204 68.3726 59.4603C68.4372 59.5003 68.4931 59.553 68.5367 59.6151L74.2417 67.1824C74.2888 67.2436 74.323 67.3135 74.3424 67.3881C74.3617 67.4627 74.3659 67.5404 74.3546 67.6167C74.3433 67.6929 74.3167 67.7661 74.2765 67.8319C74.2362 67.8977 74.1831 67.9547 74.1204 67.9997C74.0181 68.0708 73.896 68.1078 73.7714 68.1056Z" fill="#433939"/>
<path d="M74.2418 68.817L69.0374 68.1056C68.9615 68.0963 68.8881 68.072 68.8216 68.0341C68.7551 67.9962 68.6969 67.9455 68.6503 67.885C68.6037 67.8244 68.5696 67.7551 68.5501 67.6813C68.5306 67.6075 68.5261 67.5305 68.5367 67.4549C68.5593 67.3035 68.64 67.1668 68.7617 67.0736C68.8835 66.9804 69.0367 66.938 69.1892 66.9554L74.348 67.6516C74.424 67.6609 74.4974 67.6852 74.5638 67.7231C74.6303 67.761 74.6885 67.8117 74.7351 67.8723C74.7817 67.9329 74.8158 68.0021 74.8353 68.0759C74.8548 68.1498 74.8594 68.2268 74.8487 68.3024C74.8299 68.4481 74.7573 68.5816 74.645 68.6768C74.5328 68.772 74.389 68.8219 74.2418 68.817Z" fill="#433939"/>
<path d="M96.9709 68.817C96.8322 68.7946 96.7059 68.7237 96.6148 68.6169C96.5237 68.5101 96.4736 68.3745 96.4736 68.2343C96.4736 68.0941 96.5237 67.9584 96.6148 67.8517C96.7059 67.7449 96.8322 67.674 96.9709 67.6516L102.084 66.9857C102.237 66.9656 102.392 67.007 102.514 67.1006C102.637 67.1943 102.717 67.3326 102.737 67.4851C102.757 67.6376 102.715 67.7919 102.621 67.9139C102.528 68.036 102.389 68.1158 102.236 68.1359L97.1075 68.8018L96.9709 68.817Z" fill="#433939"/>
<path d="M46.809 39.8645L56.1859 40.7574L46.809 41.6655C45.9656 41.8032 45.1868 42.2016 44.5824 42.8044C43.9781 43.4072 43.5787 44.1841 43.4406 45.0254L42.4847 54.3785L41.5895 45.0254C41.4505 44.1819 41.0489 43.4035 40.4416 42.8005C39.8343 42.1974 39.0521 41.8003 38.2059 41.6655L28.829 40.7574L38.2059 39.8645C39.0524 39.7244 39.8338 39.3237 40.4406 38.7185C41.0473 38.1132 41.4491 37.3338 41.5895 36.4895L42.4847 27.1363L43.3951 36.4895C43.5373 37.3381 43.9435 38.1207 44.5562 38.7264C45.1688 39.332 45.957 39.7302 46.809 39.8645Z" fill="#F8CA42" stroke="#433939" stroke-width="0.307851" stroke-miterlimit="10"/>
<path d="M125.329 84.1483L130.534 84.6477L125.329 85.1472C124.859 85.2257 124.425 85.4488 124.088 85.7852C123.75 86.1216 123.527 86.5546 123.448 87.0239L122.902 92.215L122.447 87.0239C122.371 86.5559 122.15 86.1232 121.815 85.7866C121.481 85.4501 121.049 85.2265 120.58 85.1472L115.315 84.6477L120.535 84.1483C121.002 84.0721 121.434 83.8514 121.768 83.5174C122.103 83.1834 122.325 82.7529 122.401 82.2867L122.902 77.0804L123.402 82.2867C123.485 82.7606 123.715 83.1962 124.062 83.5308C124.408 83.8654 124.852 84.0816 125.329 84.1483Z" fill="#F8CA42" stroke="#433939" stroke-width="0.307851" stroke-miterlimit="10"/>
</g>
<defs>
<clipPath id="clip0_1_2272">
<rect width="171" height="149" fill="white"/>
</clipPath>
</defs>
</svg>
