<svg width="35" height="36" viewBox="0 0 35 36" fill="none" xmlns="http://www.w3.org/2000/svg">
<g id="Search">
<path id="Vector" fill-rule="evenodd" clip-rule="evenodd" d="M22.7245 24.5745C21.1669 25.8356 19.183 26.591 17.0225 26.591C12.0144 26.591 7.95453 22.5311 7.95453 17.5226C7.95453 12.5145 12.0145 8.45459 17.0225 8.45459C22.0311 8.45459 26.0909 12.5145 26.0909 17.5226C26.0909 19.683 25.3355 21.6667 24.0744 23.2246L26.7659 25.916C27.1386 26.2888 27.1386 26.8932 26.7659 27.266C26.3931 27.6387 25.7887 27.6387 25.4159 27.266L22.7245 24.5745ZM9.86337 17.5225C9.86337 13.5687 13.0687 10.3633 17.0225 10.3633C20.9763 10.3633 24.1817 13.5687 24.1817 17.5225C24.1817 19.444 23.4247 21.1887 22.1928 22.4746C22.1516 22.5043 22.1121 22.5377 22.075 22.5749C22.0378 22.612 22.0044 22.6515 21.9747 22.6927C20.6887 23.9246 18.944 24.6816 17.0226 24.6816C13.0687 24.6816 9.86341 21.4763 9.86341 17.5224L9.86337 17.5225Z" fill="#222222"/>
</g>
</svg>
