<svg width="35" height="36" viewBox="0 0 35 36" fill="none" xmlns="http://www.w3.org/2000/svg">
<g id="Login/Signup">
<path id="Vector" d="M21.4018 18.6657C22.5908 17.6062 23.296 16.1103 23.3552 14.5221C23.4143 12.9339 22.8225 11.3899 21.7156 10.2454C20.6087 9.10116 19.0823 8.45459 17.487 8.45459C15.8918 8.45459 14.3654 9.10122 13.2585 10.2454C12.1517 11.3899 11.5598 12.9339 11.6189 14.5221C11.6781 16.1103 12.3833 17.6062 13.5723 18.6657C11.9323 19.2379 10.5111 20.3031 9.50488 21.7144C8.49863 23.1255 7.95703 24.8133 7.95453 26.5445C7.95453 26.902 8.14614 27.2326 8.45698 27.4115C8.76783 27.5902 9.1508 27.5902 9.46166 27.4115C9.77273 27.2326 9.96411 26.9021 9.96411 26.5445C9.96593 24.8588 10.6388 23.2427 11.8351 22.0509C13.0314 20.859 14.6534 20.1886 16.3451 20.1868H18.6548C20.3467 20.1886 21.9688 20.859 23.1651 22.0509C24.3614 23.2427 25.0343 24.8588 25.0361 26.5445C25.0361 26.902 25.2275 27.2326 25.5383 27.4115C25.8491 27.5902 26.2324 27.5902 26.5432 27.4115C26.8541 27.2326 27.0454 26.9021 27.0454 26.5445C27.0413 24.8101 26.4959 23.1201 25.4846 21.7085C24.4733 20.297 23.0465 19.2334 21.4017 18.6657H21.4018ZM17.4871 10.5075C18.5063 10.5075 19.4837 10.9108 20.2044 11.6288C20.9253 12.3469 21.3302 13.3208 21.3302 14.3363C21.3302 15.3518 20.9253 16.3256 20.2044 17.0436C19.4837 17.7617 18.5064 18.165 17.4871 18.165C16.4678 18.165 15.4905 17.7616 14.7698 17.0436C14.0489 16.3256 13.644 15.3519 13.644 14.3363C13.644 13.3208 14.0489 12.3469 14.7698 11.6288C15.4905 10.9108 16.4678 10.5075 17.4871 10.5075Z" fill="#222222"/>
</g>
</svg>
