<svg width="24" height="24" viewBox="0 0 24 24" fill="none" xmlns="http://www.w3.org/2000/svg">
<g id="Star">
<path id="Vector" d="M6.67736 20.4704C6.53205 20.5477 6.3633 20.5735 6.20158 20.5454C5.79377 20.4751 5.51955 20.0883 5.58986 19.6805L6.67736 20.4704ZM6.67736 20.4704L12 17.6719L6.67736 20.4704ZM18.1124 20.4141C18.2256 20.3318 18.3135 20.2195 18.3661 20.0899C18.4188 19.9602 18.434 19.8184 18.4102 19.6805L17.393 13.7532L21.6985 9.55553C21.841 9.41655 21.9226 9.22666 21.9252 9.02758C21.9279 8.8285 21.8514 8.63651 21.7125 8.49381C21.5977 8.37662 21.4477 8.29928 21.2836 8.27584L17.3227 20.4704C17.4464 20.5357 17.586 20.5651 17.7256 20.5551C17.8651 20.5452 17.9991 20.4963 18.1124 20.4141ZM18.1124 20.4141L18.0242 20.2927C17.9337 20.3585 17.8265 20.3975 17.7149 20.4055C17.6033 20.4134 17.4917 20.39 17.3927 20.3377L17.3925 20.3376L12.0698 17.5392L12 17.5025L11.9302 17.5392L6.60756 20.3376L6.60688 20.338C6.49165 20.3993 6.35683 20.4201 6.22728 20.3976L6.22706 20.3976C5.90052 20.3413 5.68151 20.0318 5.73768 19.706L5.7377 19.7059L6.75489 13.7786L6.76822 13.7008L6.71176 13.6458L2.40657 9.44839C2.40652 9.44835 2.40648 9.44831 2.40643 9.44826C2.31242 9.35607 2.25078 9.23614 2.2321 9.10541L2.23186 9.10375C2.18154 8.77763 2.40869 8.47336 2.73819 8.42425C2.73828 8.42424 2.73837 8.42422 2.73847 8.42421L8.68878 7.55944L8.76684 7.54809L8.80173 7.47735L11.4619 2.08438L11.462 2.08425C11.52 1.9663 11.6155 1.87081 11.7334 1.81277L11.7336 1.81269C12.0293 1.66669 12.3898 1.78808 12.5383 2.08478C12.5384 2.08489 12.5385 2.085 12.5385 2.08511L15.1983 7.47735L15.2332 7.54809L15.3113 7.55944L21.262 8.42428L21.2624 8.42433C21.3931 8.44301 21.513 8.50463 21.6052 8.59863C21.7162 8.71281 21.7773 8.86637 21.7752 9.02559C21.7731 9.18492 21.7079 9.33689 21.5938 9.44812L21.5937 9.44812L17.2883 13.6458L17.2318 13.7008L17.2451 13.7786L18.2623 19.7059L18.2624 19.7061C18.2814 19.8164 18.2692 19.9298 18.2271 20.0334C18.1851 20.1371 18.1147 20.2269 18.0242 20.2927L18.1124 20.4141Z" fill="#FFC01F" stroke="#222222" stroke-width="0.3"/>
</g>
</svg>
