<svg width="36" height="36" viewBox="0 0 36 36" fill="none" xmlns="http://www.w3.org/2000/svg">
<g id="Wholesale">
<path id="Vector" d="M27.1475 23.6924H25.8985C25.5418 23.0402 24.947 22.5067 24.2335 22.3288L24.2339 13.376C24.2339 12.9608 23.8772 12.6051 23.4608 12.6051H12.7572V9.22547C12.7572 8.81025 12.4005 8.45459 11.984 8.45459H9.54587C9.12942 8.45459 8.77271 8.81026 8.77271 9.22547C8.77271 9.64069 9.12943 9.99635 9.54587 9.99635H11.2701V22.3284C10.1402 22.6249 9.3078 23.6328 9.3078 24.8776C9.3078 26.3598 10.497 27.5455 11.9836 27.5455C13.3512 27.5455 14.4811 26.5376 14.6594 25.2332H20.7249C20.9032 26.5376 22.0331 27.5455 23.4007 27.5455C24.7682 27.5455 25.8982 26.5376 26.0764 25.2332H27.0873C27.5037 25.2332 27.8605 24.8776 27.8605 24.4624C27.8609 24.048 27.5037 23.6923 27.147 23.6923L27.1475 23.6924ZM23.4016 26.0046C22.7474 26.0046 22.2124 25.4711 22.2124 24.819C22.2124 24.1668 22.7475 23.6333 23.4016 23.6333C24.0557 23.6333 24.5907 24.1668 24.5907 24.819C24.5907 25.4707 24.115 26.0046 23.4016 26.0046ZM18.7037 14.0876V15.985H16.7413V14.0876H18.7037ZM15.2547 14.0876V16.6964C15.2547 17.1116 15.6114 17.4673 16.0279 17.4673H19.4768C19.8933 17.4673 20.25 17.1116 20.25 16.6964V14.0876H22.7475V22.3287C22.034 22.5657 21.3799 23.0401 21.0825 23.6923H14.5412C14.1845 23.0401 13.5897 22.5066 12.8762 22.3287V14.0876H15.2547ZM12.0439 26.0046C11.3897 26.0046 10.8547 25.4711 10.8547 24.819C10.8547 24.1668 11.3898 23.6333 12.0439 23.6333C12.698 23.6333 13.233 24.1668 13.233 24.819C13.233 25.4707 12.698 26.0046 12.0439 26.0046Z" fill="#222222"/>
</g>
</svg>
