<svg width="28" height="20" viewBox="0 0 28 20" fill="none" xmlns="http://www.w3.org/2000/svg">
<g id="Lozenge">
<path id="Vector" d="M27.721 4.4001C27.721 4.4001 27.4475 2.46963 26.6053 1.62197C25.5389 0.506348 24.3468 0.500879 23.7999 0.435254C19.8843 0.150879 14.0053 0.150879 14.0053 0.150879H13.9944C13.9944 0.150879 8.1155 0.150879 4.19988 0.435254C3.653 0.500879 2.46082 0.506348 1.39441 1.62197C0.552222 2.46963 0.284253 4.4001 0.284253 4.4001C0.284253 4.4001 -0.00012207 6.66963 -0.00012207 8.93369V11.0556C-0.00012207 13.3196 0.278784 15.5892 0.278784 15.5892C0.278784 15.5892 0.552222 17.5196 1.38894 18.3673C2.45535 19.4829 3.85535 19.4446 4.47878 19.5649C6.72097 19.7782 13.9999 19.8438 13.9999 19.8438C13.9999 19.8438 19.8843 19.8329 23.7999 19.554C24.3468 19.4884 25.5389 19.4829 26.6053 18.3673C27.4475 17.5196 27.721 15.5892 27.721 15.5892C27.721 15.5892 27.9999 13.3251 27.9999 11.0556V8.93369C27.9999 6.66963 27.721 4.4001 27.721 4.4001ZM11.1069 13.6313V5.76182L18.6702 9.71025L11.1069 13.6313Z" fill="white"/>
</g>
</svg>
